<svg width="52" height="36" viewBox="0 0 52 36" fill="none" xmlns="http://www.w3.org/2000/svg">
<g clip-path="url(#clip0_66_1065)">
<path d="M14.4986 24.738C10.19 24.738 5.88137 24.738 1.57143 24.738C0.523839 24.738 0.327578 24.5418 0.326278 23.479C0.324978 16.5526 0.322379 9.62625 0.326278 2.69987C0.328878 0.775661 1.12432 0 3.06873 0C10.7333 0 18.3992 0 26.0637 0C27.9133 0 28.7321 0.806843 28.7321 2.63751C28.7334 9.58597 28.7321 16.5331 28.7321 23.4816C28.7321 24.5353 28.5332 24.7367 27.4895 24.7367C23.1588 24.7367 18.8281 24.7367 14.4973 24.7367L14.4986 24.738ZM14.5896 16.3707C14.5896 17.1997 14.6026 17.9117 14.5857 18.6236C14.574 19.1096 14.6468 19.5422 15.1459 19.7566C15.6476 19.9723 16.0128 19.7189 16.3534 19.3785C18.2783 17.4491 20.211 15.5275 22.1333 13.5942C22.7494 12.9744 22.752 12.5379 22.1463 11.9285C20.2084 9.98094 18.2627 8.04244 16.3196 6.10004C15.9998 5.78043 15.6528 5.52967 15.1693 5.73365C14.6689 5.94413 14.5766 6.36509 14.587 6.85362C14.6013 7.60069 14.5909 8.34777 14.5909 9.14812C14.2517 9.14812 14.0177 9.14812 13.7838 9.14812C11.7289 9.14812 9.67271 9.14552 7.61782 9.14942C6.81588 9.15071 6.51304 9.44695 6.51044 10.233C6.50524 11.8987 6.50524 13.5643 6.51044 15.2287C6.51304 16.068 6.79898 16.3642 7.63992 16.3681C9.67401 16.3772 11.7081 16.3707 13.7409 16.372C13.9956 16.372 14.2517 16.372 14.5909 16.372L14.5896 16.3707Z" fill="white"/>
<path d="M19.5332 26.9019H30.8084C30.8084 26.5784 30.8084 26.3251 30.8084 26.0717C30.8084 19.5351 30.8084 12.9972 30.8084 6.46063C30.8084 5.00935 31.3049 4.51173 32.762 4.50913C34.7753 4.50653 36.7899 4.51173 38.8032 4.50783C41.1518 4.50264 42.9662 5.4563 44.2647 7.43248C45.5956 9.45803 46.9603 11.4602 48.3341 13.4572C49.1348 14.6213 49.5117 15.8959 49.5104 17.3004C49.5052 20.2003 49.5091 23.1016 49.5091 26.0016C49.5091 26.2588 49.5091 26.5161 49.5091 26.8967C50.0147 26.8967 50.4774 26.8916 50.9414 26.8967C51.7681 26.9071 51.9929 27.1267 51.9994 27.9284C52.0046 28.513 51.9916 29.0977 52.002 29.6811C52.0124 30.267 51.7317 30.5919 51.1533 30.5971C49.3349 30.6113 47.5153 30.6139 45.697 30.588C45.5462 30.5854 45.3109 30.3489 45.2655 30.1813C44.496 27.3164 42.2202 25.4546 39.4296 25.4351C36.6261 25.4143 34.297 27.2995 33.521 30.1826C33.4742 30.3554 33.2013 30.588 33.0323 30.5893C29.3293 30.6126 25.6264 30.6113 21.9247 30.5932C21.7727 30.5932 21.5127 30.4165 21.4854 30.2839C21.219 29.0145 20.5886 27.9556 19.5345 26.9032L19.5332 26.9019ZM39.4296 15.0111C40.8372 15.0111 42.2462 15.0345 43.6525 14.9929C43.9735 14.9838 44.4375 14.824 44.5623 14.5888C44.6858 14.3563 44.5545 13.8794 44.3764 13.6157C43.3353 12.0734 42.2696 10.5455 41.157 9.05266C40.949 8.77332 40.4993 8.53425 40.1523 8.52256C38.486 8.46799 36.8171 8.49138 35.1496 8.50177C34.371 8.50567 34.1397 8.73434 34.1332 9.5139C34.1215 11.0081 34.1215 12.5022 34.1332 13.9964C34.1397 14.8071 34.3645 15.0085 35.2055 15.0098C36.6131 15.0124 38.022 15.0098 39.4296 15.0098V15.0111Z" fill="white"/>
<path d="M43.9394 31.4681C43.9355 33.9796 41.9105 36.0026 39.4007 36C36.8935 35.9974 34.8568 33.9744 34.8438 31.4707C34.8308 28.9827 36.8688 26.922 39.3643 26.8986C41.8845 26.8752 43.9433 28.9307 43.9394 31.4681ZM41.6532 31.4915C41.67 30.2325 40.6666 29.197 39.4189 29.1866C38.1724 29.1749 37.1483 30.1975 37.1457 31.4526C37.1431 32.6869 38.1166 33.6886 39.3474 33.7172C40.6017 33.7471 41.6363 32.7479 41.6532 31.4915Z" fill="white"/>
<path d="M11.043 31.4407C11.0469 28.9409 13.0953 26.8933 15.583 26.8984C18.0876 26.9049 20.1295 28.9396 20.1334 31.4342C20.1373 33.9755 18.0928 36.0154 15.557 35.9998C13.0446 35.9842 11.0391 33.9573 11.043 31.4394V31.4407ZM17.8302 31.4368C17.8211 30.1804 16.7904 29.1644 15.5492 29.1877C14.3261 29.2111 13.3357 30.2168 13.3279 31.4446C13.3188 32.7023 14.3313 33.7209 15.5895 33.7196C16.8502 33.7183 17.8406 32.7101 17.8315 31.4381L17.8302 31.4368Z" fill="white"/>
<path d="M11.5168 27.0187C10.5796 27.9581 9.93627 29.056 9.67113 30.363C9.64903 30.4696 9.38388 30.5943 9.23181 30.5956C6.46337 30.6099 3.69362 30.6112 0.923876 30.6008C0.275306 30.5982 0.0166577 30.3254 0.00625976 29.6939C-0.0054379 29.0456 0.00236054 28.3959 0.00496002 27.7476C0.00625976 27.2292 0.266208 26.9083 0.784804 26.9083C4.311 26.9018 7.83589 26.9122 11.3621 26.92C11.3972 26.92 11.431 26.9629 11.5168 27.0213V27.0187Z" fill="white"/>
<path d="M14.5898 16.3723C14.2505 16.3723 13.9958 16.3723 13.7397 16.3723C11.7056 16.3723 9.67156 16.3775 7.63876 16.3684C6.79783 16.3645 6.51189 16.0683 6.50929 15.2289C6.50539 13.5633 6.50409 11.8976 6.50929 10.2333C6.51189 9.44721 6.81473 9.15098 7.61667 9.14968C9.67156 9.14448 11.7277 9.14838 13.7826 9.14838C14.0166 9.14838 14.2505 9.14838 14.5898 9.14838C14.5898 8.34803 14.6002 7.60095 14.5859 6.85388C14.5768 6.36535 14.6678 5.94439 15.1682 5.73391C15.6517 5.52993 15.9987 5.78068 16.3184 6.1003C18.2615 8.0427 20.2085 9.9812 22.1452 11.9288C22.7508 12.5382 22.7482 12.9747 22.1322 13.5945C20.2111 15.5278 18.2784 17.4494 16.3522 19.3788C16.0117 19.7205 15.6452 19.9725 15.1448 19.7569C14.6457 19.5425 14.5729 19.1098 14.5846 18.6239C14.6015 17.9132 14.5885 17.2012 14.5885 16.371L14.5898 16.3723Z" fill="#0F2442"/>
<path d="M39.4283 15.0093C38.0206 15.0093 36.6117 15.0119 35.2041 15.0093C34.3632 15.008 34.1383 14.8053 34.1318 13.9959C34.1201 12.5017 34.1201 11.0076 34.1318 9.51341C34.1383 8.73385 34.3697 8.50518 35.1482 8.50128C36.8158 8.49219 38.4847 8.4688 40.1509 8.52207C40.498 8.53377 40.9477 8.77283 41.1556 9.05217C42.2682 10.5437 43.334 12.0717 44.3751 13.6152C44.5531 13.8789 44.6844 14.3558 44.5609 14.5883C44.4362 14.8235 43.9722 14.982 43.6511 14.9924C42.2448 15.034 40.8359 15.0106 39.4283 15.0106V15.0093Z" fill="#0F2442"/>
<path d="M41.652 31.4925C41.6351 32.7489 40.6005 33.748 39.3463 33.7181C38.1154 33.6895 37.1419 32.6878 37.1445 31.4535C37.1471 30.1984 38.1726 29.1772 39.4178 29.1876C40.6655 29.1993 41.6689 30.2335 41.652 31.4925Z" fill="#0F2442"/>
<path d="M17.8298 31.4343C17.8389 32.7076 16.8485 33.7145 15.5878 33.7158C14.3309 33.7171 13.3184 32.6985 13.3262 31.4408C13.3353 30.213 14.3244 29.2087 15.5475 29.184C16.7887 29.1606 17.8194 30.1766 17.8285 31.433L17.8298 31.4343Z" fill="#0F2442"/>
</g>
<defs>
<clipPath id="clip0_66_1065">
<rect width="52" height="36" fill="white"/>
</clipPath>
</defs>
</svg>
