<svg width="53" height="32" viewBox="0 0 53 32" fill="none" xmlns="http://www.w3.org/2000/svg">
<g clip-path="url(#clip0_66_1043)">
<path d="M0 6.4849C0.189548 6.40565 0.383246 6.33752 0.565876 6.24576C4.49795 4.26722 8.43418 2.29842 12.3524 0.296245C12.892 0.020946 13.3929 -0.0499643 13.9753 0.0320692C20.5334 0.945561 27.0942 1.83959 33.6537 2.74334C39.5988 3.56229 45.5426 4.3854 51.4878 5.20574C51.9817 5.27387 52.4756 5.33783 53 5.40735V27.4577C51.5334 27.6287 50.0641 27.8011 48.5961 27.9693C44.7581 28.4101 40.9201 28.8494 37.0821 29.2888C33.6039 29.6865 30.1242 30.0813 26.646 30.479C22.8426 30.9142 19.0378 31.3508 15.2344 31.7874C14.6007 31.8597 13.9684 31.9514 13.332 31.9987C13.141 32.0126 12.9294 31.9334 12.7453 31.8541C8.65693 30.0966 4.57128 28.3336 0.484246 26.5734C0.327904 26.5066 0.161876 26.4635 0 26.4093C0 19.7674 0 13.1268 0 6.4849H0ZM14.1663 30.1147C26.5588 28.6965 38.8891 27.2839 51.236 25.8698V6.96181C38.8683 5.26414 26.5297 3.57063 14.1663 1.87157V30.1147ZM12.3386 2.36794C12.2514 2.3874 12.1822 2.39018 12.1255 2.41938C10.5206 3.22303 8.91427 4.02112 7.32179 4.84702C7.18759 4.91654 7.07552 5.17098 7.07552 5.33922C7.06307 12.5846 7.06722 19.8286 7.05753 27.0739C7.05753 27.3937 7.17514 27.5341 7.44908 27.6454C8.24601 27.9721 9.03326 28.3253 9.82604 28.6645C10.6465 29.0163 11.4669 29.3667 12.34 29.7393V2.36794H12.3386ZM5.27966 5.86201C4.12854 6.4418 3.04798 6.97293 1.98402 7.53605C1.86365 7.6 1.77372 7.83776 1.77234 7.99488C1.76127 13.6065 1.76127 19.2168 1.77649 24.8284C1.77649 24.9953 1.94252 25.2414 2.09471 25.3137C2.88887 25.6905 3.7024 26.0256 4.5104 26.3718C4.75114 26.4747 4.99742 26.5664 5.27828 26.6776V5.86201H5.27966Z" fill="white"/>
<path d="M14.166 30.1142V1.87109C26.5309 3.56877 38.8681 5.26227 51.2357 6.96134V25.8707C38.8888 27.2848 26.5586 28.696 14.166 30.1156V30.1142ZM15.9162 15.9864C15.9162 17.951 15.9162 19.9157 15.9162 21.8803C15.9162 23.3931 15.9107 24.9058 15.919 26.4186C15.9231 27.2764 16.2967 27.6046 17.1517 27.5364C17.4617 27.5114 17.7702 27.478 18.0801 27.4516C21.5708 27.1596 25.0615 26.8691 28.5523 26.5757C32.0942 26.2781 35.6361 25.9764 39.1794 25.6789C42.2398 25.423 45.3016 25.1755 48.3621 24.9128C49.26 24.8363 49.5049 24.5485 49.5049 23.6489C49.5049 18.8326 49.5049 14.0176 49.5049 9.20127C49.5049 8.30307 49.2434 8.02917 48.3621 7.93601C46.7322 7.76221 45.1038 7.57729 43.4753 7.39375C38.9663 6.88626 34.4587 6.3732 29.9483 5.86849C25.7478 5.39853 21.5459 4.94109 17.3454 4.46697C16.2427 4.34322 15.9176 4.60879 15.9176 5.70998C15.9176 9.13453 15.9176 12.5605 15.9176 15.985L15.9162 15.9864Z" fill="#333399"/>
<path d="M12.3391 2.36719V29.7399C11.4674 29.3673 10.6456 29.0169 9.82515 28.6652C9.03376 28.3245 8.24651 27.9727 7.4482 27.646C7.17426 27.5334 7.05527 27.393 7.05665 27.0746C7.06634 19.8292 7.06219 12.5852 7.07464 5.33986C7.07464 5.17162 7.18671 4.91718 7.32091 4.84766C8.91339 4.02176 10.5211 3.22367 12.1246 2.42002C12.1814 2.39221 12.2519 2.38943 12.3377 2.36858L12.3391 2.36719ZM10.6013 16.8829H10.5958C10.5958 15.7025 10.6096 14.5207 10.5889 13.3402C10.5792 12.7993 10.243 12.4615 9.77535 12.4323C9.2994 12.4031 8.92446 12.7451 8.84698 13.2874C8.83038 13.4069 8.83176 13.5293 8.83176 13.6517C8.83176 15.8054 8.82899 17.9591 8.83453 20.1128C8.83453 20.3019 8.85251 20.4966 8.90094 20.6787C9.02407 21.1292 9.45159 21.3781 9.90125 21.2877C10.3454 21.1973 10.5916 20.8595 10.5958 20.2713C10.6055 19.1423 10.5986 18.0133 10.5986 16.8843L10.6013 16.8829Z" fill="#333399"/>
<path d="M5.27989 5.86328V26.6789C4.99903 26.5677 4.75276 26.4759 4.51202 26.373C3.70402 26.0268 2.89048 25.6917 2.09632 25.3149C1.94413 25.2426 1.7781 24.9965 1.7781 24.8297C1.7615 19.2181 1.76288 13.6078 1.77395 7.99615C1.77395 7.83904 1.86527 7.60128 1.98564 7.53732C3.04959 6.97421 4.13015 6.44169 5.28127 5.86328H5.27989ZM2.65943 16.4164C2.65943 17.4064 2.64975 18.3963 2.6622 19.3849C2.6705 20.0245 2.99979 20.4068 3.51309 20.4221C4.03884 20.4388 4.41655 20.037 4.42208 19.3793C4.43592 17.4175 4.43454 15.4556 4.42208 13.4938C4.41793 12.8292 4.06098 12.4301 3.53384 12.4329C2.99702 12.4343 2.66912 12.8208 2.66081 13.4993C2.64975 14.4712 2.65805 15.4445 2.65805 16.4164H2.65943Z" fill="#333399"/>
<path d="M15.9173 15.9879C15.9173 12.5634 15.9173 9.13741 15.9173 5.71286C15.9173 4.61028 16.2424 4.34471 17.3451 4.46985C21.5456 4.94258 25.7474 5.40002 29.9479 5.87137C34.4569 6.37608 38.966 6.88914 43.475 7.39663C45.1034 7.58017 46.7319 7.76509 48.3617 7.93889C49.243 8.03344 49.5045 8.30595 49.5045 9.20415C49.5045 14.0205 49.5045 18.8354 49.5045 23.6518C49.5045 24.5514 49.2596 24.8392 48.3617 24.9156C45.3013 25.1784 42.2395 25.4245 39.179 25.6818C35.6371 25.9793 32.0952 26.281 28.5519 26.5786C25.0612 26.8719 21.5705 27.1625 18.0798 27.4545C17.7698 27.4809 17.4613 27.5143 17.1514 27.5393C16.295 27.6075 15.9228 27.2793 15.9186 26.4214C15.9103 24.9087 15.9159 23.3959 15.9159 21.8832C15.9159 19.9186 15.9159 17.9539 15.9159 15.9893L15.9173 15.9879ZM21.19 25.3967V6.68892C20.0209 6.55822 18.8822 6.4317 17.7325 6.30239V25.6929C18.9113 25.5928 20.043 25.4954 21.19 25.3981V25.3967ZM26.4973 24.9518V7.28262C25.331 7.15331 24.1799 7.0254 23.0287 6.89748V25.2507C24.202 25.1506 25.3338 25.0533 26.4973 24.9532V24.9518ZM28.3236 7.49257V24.7988C29.4969 24.7001 30.6273 24.6056 31.7673 24.511V7.86937L28.3236 7.49396V7.49257ZM33.6144 8.07515V24.3539C34.6091 24.2719 35.5666 24.1634 36.5268 24.1273C36.993 24.1092 37.13 23.9688 37.1272 23.4933C37.1092 18.6658 37.1161 13.8397 37.1161 9.01227C37.1161 8.84265 37.1009 8.67441 37.0912 8.46724C35.9221 8.33515 34.7835 8.20723 33.6144 8.07654V8.07515ZM38.9286 8.67302V23.9146C40.1143 23.8117 41.2571 23.7129 42.4332 23.6114V23.0303C42.4332 18.5657 42.4332 14.0997 42.4332 9.63517C42.4332 9.54897 42.4622 9.44469 42.4262 9.37795C42.3543 9.24864 42.2575 9.05121 42.1509 9.0373C41.0939 8.89965 40.0327 8.79259 38.9286 8.67163V8.67302ZM44.2525 9.27367V23.4696C45.4327 23.3681 46.5631 23.2708 47.6962 23.1735V9.65186C46.5285 9.52394 45.4023 9.4002 44.2525 9.27367Z" fill="white"/>
<path d="M10.5991 16.8835C10.5991 18.0125 10.606 19.1415 10.5963 20.2705C10.5908 20.8586 10.3445 21.1979 9.90174 21.2869C9.4507 21.3786 9.02457 21.1284 8.90143 20.6779C8.85162 20.4971 8.83502 20.3011 8.83502 20.112C8.83087 17.9583 8.83225 15.8045 8.83225 13.6508C8.83225 13.5298 8.82949 13.4061 8.84747 13.2865C8.92495 12.7443 9.2999 12.4022 9.77584 12.4314C10.2435 12.4606 10.5797 12.7985 10.5894 13.3393C10.6101 14.5198 10.5963 15.7016 10.5963 16.8821H10.6018L10.5991 16.8835Z" fill="white"/>
<path d="M2.65729 16.4132C2.65729 15.4413 2.64898 14.468 2.66005 13.4961C2.66697 12.8176 2.99626 12.4311 3.53308 12.4297C4.0616 12.4283 4.41856 12.826 4.42132 13.4906C4.43239 15.4524 4.43378 17.4143 4.42132 19.3761C4.41717 20.0338 4.03946 20.4356 3.51232 20.4189C2.99902 20.4022 2.66974 20.0199 2.66144 19.3817C2.64898 18.3917 2.65867 17.4018 2.65729 16.4132Z" fill="white"/>
<path d="M21.1899 25.3965C20.043 25.4938 18.9112 25.5912 17.7324 25.6913V6.30078C18.8822 6.4287 20.0208 6.55661 21.1899 6.68731V25.3965Z" fill="#333399"/>
<path d="M26.4959 24.9502C25.3324 25.0503 24.2006 25.1477 23.0273 25.2478V6.89453C24.1798 7.02245 25.3296 7.15036 26.4959 7.27967V24.9488V24.9502Z" fill="#333399"/>
<path d="M28.3223 7.49219L31.7659 7.86759V24.5093C30.6259 24.6052 29.4969 24.6997 28.3223 24.7971V7.49219Z" fill="#333399"/>
<path d="M33.6152 8.07422C34.7843 8.20631 35.9244 8.33422 37.0921 8.46492C37.1018 8.67209 37.117 8.84172 37.117 9.00996C37.117 13.8374 37.1115 18.6649 37.1281 23.4909C37.1295 23.9665 36.9939 24.1069 36.5276 24.125C35.5674 24.1611 34.61 24.2696 33.6152 24.3516V8.07422Z" fill="#333399"/>
<path d="M38.9297 8.67188C40.0338 8.79145 41.095 8.89851 42.152 9.03755C42.2585 9.05145 42.3554 9.24889 42.4273 9.3782C42.4647 9.44494 42.4342 9.54782 42.4342 9.63542C42.4342 14.1 42.4342 18.5659 42.4342 23.0305V23.6117C41.2582 23.7132 40.1154 23.8133 38.9297 23.9148V8.67188Z" fill="#333399"/>
<path d="M44.252 9.27344C45.4017 9.39996 46.5279 9.52371 47.6956 9.65163V23.1719C46.5625 23.2692 45.4321 23.3665 44.252 23.468V9.27344Z" fill="#333399"/>
</g>
<defs>
<clipPath id="clip0_66_1043">
<rect width="53" height="32" fill="white"/>
</clipPath>
</defs>
</svg>
