<svg width="39" height="32" viewBox="0 0 39 32" fill="none" xmlns="http://www.w3.org/2000/svg">
<path d="M25.6882 0L18.2303 32H0L7.45785 0H25.6882Z" fill="#FF9900" fill-opacity="0.5"/>
<path d="M35.8388 12.4194V12.9624C35.589 13.7878 35.475 14.7598 34.1989 14.4992C34.1826 14.4992 34.15 14.5589 34.0957 14.6404C34.9428 15.4821 35.1057 16.5518 35.0351 17.6976C35.0026 18.2135 35.0677 18.7403 35.0189 19.2561C34.9754 19.7014 34.9591 20.2227 34.7202 20.554C34.2043 21.2599 34.2152 22.0202 34.2315 22.8076C34.2369 23.1931 34.2423 23.5787 34.2315 23.9588C34.2043 25.0123 33.5907 25.6259 32.5263 25.6585C32.0756 25.6748 31.6195 25.6748 31.1688 25.6585C30.0718 25.6204 29.4854 25.0068 29.4691 23.8882C29.4691 23.4266 29.4691 22.965 29.4691 22.5035H16.6862C16.6862 22.8564 16.6862 23.166 16.6862 23.4809C16.6862 25.1643 16.192 25.6585 14.514 25.6639C12.255 25.6639 11.9292 25.3326 11.9238 23.0791C11.9238 22.1885 12.0432 21.2816 11.397 20.4997C11.2015 20.2662 11.131 19.8589 11.1418 19.5331C11.207 17.8334 10.6748 16.0251 12.2713 14.3906C10.7888 14.7924 10.5282 14.005 10.3979 13.071C10.3979 13.033 10.3436 13.0059 10.3164 12.9678C10.3164 12.7886 10.3164 12.604 10.3164 12.4248C10.7617 12.3271 11.2015 12.1696 11.6468 12.137C12.3636 12.0827 13.2651 12.3596 13.7592 12.023C14.2805 11.67 14.4271 10.7577 14.715 10.0789C15.687 7.79819 17.4247 6.60353 19.8574 6.5275C22.0024 6.45691 24.1474 6.4732 26.2924 6.5275C28.4699 6.58181 30.137 7.58098 31.1742 9.5196C31.5217 10.1712 31.777 10.8826 32.0268 11.5831C32.1679 11.985 32.3743 12.1587 32.8142 12.1316C33.5147 12.0936 34.2152 12.0936 34.9102 12.1316C35.2252 12.1533 35.5293 12.3162 35.8388 12.4194ZM29.4799 13.6738C29.0347 12.642 28.6926 11.6809 28.2255 10.7903C27.8291 10.0355 27.0852 9.70423 26.2381 9.6988C24.1365 9.68251 22.0296 9.68794 19.928 9.6988C19.1895 9.6988 18.4673 9.93773 18.1035 10.5676C17.5496 11.5234 17.1532 12.5714 16.6427 13.6738H29.4799ZM15.5675 19.305C15.9259 19.2779 16.2897 19.267 16.6427 19.2127C17.4301 19.0932 17.7614 18.5882 17.3378 17.9311C16.9359 17.3121 16.3875 16.7473 15.7956 16.2966C15.2526 15.8839 14.5846 15.9871 14.047 16.4432C13.5366 16.8777 13.4008 17.4533 13.5583 18.094C13.7701 18.9357 14.3131 19.2507 15.5729 19.2996L15.5675 19.305ZM30.4846 19.2887C30.7561 19.2724 31.0222 19.2616 31.2937 19.2344C31.9453 19.1692 32.3797 18.8163 32.5698 18.1972C32.7761 17.5402 32.6621 16.9374 32.1408 16.465C31.6412 16.0142 31.0167 15.8948 30.452 16.2423C29.9307 16.5627 29.4256 16.9863 29.0618 17.475C28.2907 18.5068 28.6111 19.1421 29.8818 19.2561C30.0827 19.2724 30.2891 19.2779 30.49 19.2887H30.4846Z" fill="black"/>
</svg>
