<svg width="41" height="45" viewBox="0 0 41 45" fill="none" xmlns="http://www.w3.org/2000/svg">
<g clip-path="url(#clip0_66_1082)">
<path d="M20.227 0H20.7742C20.7849 0.0104538 20.7944 0.0243921 20.8062 0.0290383C22.1261 0.494812 23.4472 0.958262 24.7671 1.42636C29.6883 3.17214 34.607 4.9214 39.5294 6.66486C40.1691 6.89136 40.53 7.31996 40.5834 7.97971C40.7033 9.46763 40.8148 10.9567 40.9252 12.4446C40.9596 12.9023 40.9774 13.3622 41.0024 13.821V16.8968C40.9917 16.9851 40.9774 17.0722 40.9715 17.1604C40.8623 18.6193 40.7863 20.0817 40.6356 21.5371C40.4065 23.7428 39.9578 25.9114 39.3133 28.0393C38.1513 31.8712 36.3554 35.3698 33.5874 38.3444C30.607 41.5456 26.9749 43.691 22.6603 44.7015C21.5327 44.9652 20.4086 45.1173 19.2371 44.892C15.3082 44.1381 11.8708 42.4388 8.91645 39.8103C5.70097 36.9494 3.55613 33.4091 2.14721 29.4181C0.87479 25.8208 0.284871 22.1028 0.0878351 18.3162C0.060535 17.783 0.029674 17.251 0 16.7179C0 15.7968 0 14.8746 0 13.9535C0.0118696 13.8292 0.0261131 13.7049 0.0344219 13.5794C0.161427 11.728 0.286058 9.87533 0.416623 8.02385C0.465289 7.33622 0.828499 6.89136 1.49557 6.65441C6.96627 4.71814 12.4346 2.7749 17.9029 0.832817C18.6792 0.557534 19.4519 0.277606 20.227 0ZM38.1169 14.9338L38.1727 14.9303C38.0551 13.0777 37.9329 11.225 37.8273 9.37122C37.813 9.12382 37.724 9.02044 37.489 8.93797C35.5518 8.26196 33.6219 7.57085 31.6883 6.88555C28.023 5.58464 24.3564 4.28256 20.6887 2.98629C20.5795 2.94796 20.4323 2.9468 20.322 2.98397C19.6264 3.2186 18.9356 3.46717 18.2436 3.71225C14.9059 4.89817 11.5681 6.0841 8.23157 7.26886C6.61968 7.84149 5.00779 8.41412 3.39589 8.9856C3.28313 9.02509 3.20361 9.06342 3.19055 9.20745C2.97571 11.57 2.8582 13.9349 2.89856 16.3079C2.94604 19.1072 3.19886 21.8844 3.78522 24.6291C4.49027 27.929 5.63213 31.0628 7.54076 33.8923C10.3337 38.0343 14.1379 40.8092 19.1065 41.9719C19.7012 42.1113 20.2982 42.2565 20.9261 42.1543C23.3665 41.757 25.6087 40.8673 27.6859 39.5687C30.2734 37.9507 32.3067 35.803 33.8889 33.2395C35.8498 30.0627 36.9347 26.5863 37.5388 22.9484C37.9792 20.2943 38.1311 17.6192 38.1181 14.9326L38.1169 14.9338Z" fill="white"/>
<path d="M14.6054 18.9975C14.6054 18.8453 14.6054 18.7129 14.6054 18.5817C14.6054 17.3261 14.6031 16.0704 14.6054 14.8148C14.6114 12.3791 16.4927 10.552 18.9841 10.5555C20.0239 10.5567 21.0637 10.5532 22.1046 10.5555C24.2625 10.5613 26.0644 12.0748 26.3504 14.1679C26.4347 14.7823 26.3955 15.413 26.4003 16.0368C26.4074 16.9277 26.4014 17.8197 26.4003 18.7118C26.4003 18.7989 26.4003 18.886 26.4003 18.9975C26.6092 18.9975 26.7896 18.9975 26.9688 18.9975C28.1665 19.0022 29.1148 19.9105 29.1231 21.0848C29.1338 22.6749 29.1279 24.2639 29.1279 25.854C29.1279 27.0725 29.1338 28.2909 29.1243 29.5094C29.1148 30.7743 28.1949 31.6605 26.9 31.6617C22.634 31.664 18.3669 31.664 14.101 31.6617C12.7941 31.6617 11.879 30.7708 11.8766 29.4873C11.8719 26.6938 11.8719 23.9003 11.8766 21.1068C11.879 19.9081 12.825 18.9998 14.0523 18.9963C14.2256 18.9963 14.3989 18.9963 14.6031 18.9963L14.6054 18.9975ZM23.5017 18.9882C23.5064 18.9081 23.5136 18.85 23.5136 18.7919C23.5136 17.462 23.5136 16.132 23.5112 14.8021C23.51 13.9518 22.9237 13.378 22.0512 13.3757C21.0269 13.3734 20.0014 13.3734 18.977 13.3757C18.0642 13.378 17.4886 13.9448 17.4874 14.8439C17.485 16.1587 17.4862 17.4736 17.4862 18.7884C17.4862 18.8523 17.4957 18.9162 17.5016 18.9882H23.5029H23.5017ZM19.6037 26.7937H19.6013C19.6013 27.3129 19.5978 27.8333 19.6025 28.3525C19.6061 28.6638 19.7794 28.8357 20.0951 28.845C20.3301 28.8519 20.5652 28.8473 20.8002 28.8461C21.2489 28.845 21.4008 28.6963 21.4008 28.2561C21.4008 27.2688 21.4008 26.2815 21.3948 25.2942C21.3948 25.1548 21.434 25.0677 21.5539 24.9829C22.1889 24.538 22.4453 23.7458 22.202 23.0257C21.9587 22.3044 21.2619 21.8096 20.4951 21.8142C19.7236 21.8177 19.0375 22.309 18.7942 23.0338C18.5533 23.7505 18.8144 24.5426 19.4518 24.9898C19.5634 25.0677 19.6085 25.1478 19.6061 25.2802C19.599 25.7855 19.6037 26.2896 19.6037 26.7949V26.7937Z" fill="white"/>
<path d="M23.503 18.9893H17.5018C17.4958 18.9172 17.4863 18.8534 17.4863 18.7895C17.4863 17.4746 17.4863 16.1598 17.4875 14.8449C17.4887 13.9471 18.0644 13.3791 18.9772 13.3767C20.0015 13.3744 21.027 13.3744 22.0514 13.3767C22.9238 13.3791 23.5102 13.954 23.5113 14.8031C23.5137 16.1331 23.5137 17.463 23.5137 18.793C23.5137 18.851 23.5066 18.9091 23.5018 18.9893H23.503Z" fill="#0F2442"/>
</g>
<defs>
<clipPath id="clip0_66_1082">
<rect width="41" height="45" fill="white"/>
</clipPath>
</defs>
</svg>
