<svg width="56" height="56" viewBox="0 0 56 56" fill="none" xmlns="http://www.w3.org/2000/svg">
<g clip-path="url(#clip0_66_955)">
<path d="M23.215 47.059C23.0204 47.059 22.8811 47.059 22.7425 47.059C19.1263 47.059 15.5094 47.0259 11.8932 47.0744C10.3707 47.0949 9.2094 45.9422 9.2129 44.3983C9.2374 32.0257 9.2262 19.6525 9.2269 7.2793C9.2269 5.64389 10.244 4.62211 11.868 4.62211C18.4823 4.62211 25.0973 4.62352 31.7116 4.61719C32.0889 4.61719 32.3808 4.73822 32.6447 5.00493C35.1563 7.53826 37.6721 10.0681 40.1935 12.5916C40.4644 12.8625 40.5575 13.1644 40.5568 13.5373C40.5505 17.1846 40.5526 20.8319 40.5526 24.4792V24.9402C40.7136 24.9402 40.8368 24.9402 40.9607 24.9402C41.8238 24.9402 42.6876 24.9338 43.5507 24.9416C45.3427 24.957 46.7623 26.3483 46.7658 28.1533C46.7784 34.9553 46.7777 41.7573 46.7658 48.56C46.7623 50.3171 45.3413 51.7435 43.5948 51.747C37.8667 51.7597 32.1386 51.759 26.4112 51.747C24.643 51.7435 23.2542 50.3284 23.2178 48.5424C23.208 48.0639 23.2164 47.5853 23.2164 47.0569L23.215 47.059ZM30.9857 6.43767C30.8212 6.43767 30.7057 6.43767 30.5902 6.43767C24.3609 6.43767 18.1316 6.43767 11.9023 6.43767C11.2324 6.43767 11.0252 6.64526 11.0252 7.32011C11.0252 19.6574 11.0252 31.9948 11.0266 44.3321C11.0266 45.0555 11.2205 45.2497 11.938 45.2497C15.543 45.2497 19.1473 45.2497 22.7523 45.249C22.8902 45.249 23.0281 45.249 23.2143 45.249C23.2143 45.0633 23.2143 44.9148 23.2143 44.7663C23.2143 39.2894 23.2136 33.8132 23.2143 28.3362C23.2143 26.3131 24.5856 24.9423 26.6037 24.9416C30.4999 24.9409 34.3961 24.9416 38.2923 24.9416C38.4302 24.9416 38.5674 24.9416 38.7305 24.9416V14.2495C38.58 14.2495 38.4526 14.2495 38.3259 14.2495C36.9847 14.2495 35.6428 14.2523 34.3016 14.2488C32.3836 14.2439 30.9948 12.8498 30.9864 10.9182C30.9808 9.69863 30.985 8.47911 30.985 7.25889C30.985 7.00274 30.985 6.74659 30.985 6.43767H30.9857ZM44.9654 38.352C44.9654 35.0341 44.9654 31.7161 44.9654 28.3989C44.9654 27.3032 44.4215 26.755 43.3351 26.755C37.936 26.755 32.5362 26.755 27.1371 26.755C26.8809 26.755 26.6233 26.7473 26.3678 26.7599C25.6909 26.7951 25.1547 27.2729 25.0434 27.9471C25.0112 28.142 25.0119 28.344 25.0119 28.5424C25.0105 35.1192 25.0105 41.6967 25.0119 48.2736C25.0119 49.3784 25.5691 49.9364 26.6688 49.9364C32.2317 49.9364 37.7939 49.9364 43.3568 49.9364C44.4117 49.9364 44.9661 49.3756 44.9661 48.3052C44.9661 44.9873 44.9661 41.6693 44.9661 38.352H44.9654ZM37.2766 12.4192C35.7933 10.9238 34.2806 9.39815 32.7875 7.89222C32.7875 8.92104 32.7623 10.009 32.7966 11.0948C32.8183 11.7844 33.3447 12.3797 33.9908 12.4058C35.1164 12.4515 36.2448 12.4184 37.2766 12.4184V12.4192Z" fill="white"/>
<path d="M30.9852 6.4375C30.9852 6.74643 30.9852 7.00257 30.9852 7.25872C30.9852 8.47824 30.981 9.69776 30.9866 10.918C30.995 12.8496 32.3838 14.2437 34.3018 14.2486C35.643 14.2521 36.9849 14.2493 38.3261 14.2493C38.4528 14.2493 38.5802 14.2493 38.7307 14.2493V24.9414C38.5676 24.9414 38.4304 24.9414 38.2925 24.9414C34.3963 24.9414 30.5001 24.9414 26.6039 24.9414C24.5851 24.9414 23.2145 26.3129 23.2145 28.3361C23.2131 33.813 23.2145 39.2892 23.2145 44.7661C23.2145 44.9146 23.2145 45.0631 23.2145 45.2489C23.0276 45.2489 22.8897 45.2489 22.7525 45.2489C19.1475 45.2489 15.5432 45.2496 11.9382 45.2496C11.2207 45.2496 11.0268 45.0554 11.0268 44.3319C11.0261 31.9946 11.0254 19.6573 11.0254 7.31995C11.0254 6.64509 11.2326 6.4375 11.9025 6.4375C18.1318 6.4375 24.3611 6.4375 30.5904 6.4375C30.7059 6.4375 30.8214 6.4375 30.9859 6.4375H30.9852ZM17.24 11.343C17.6495 11.5781 17.7293 11.6801 17.7755 11.9813C17.8623 12.5442 18.276 12.8954 18.7772 12.8314C19.2994 12.7645 19.6354 12.3057 19.5619 11.7336C19.4058 10.5246 18.6239 9.87298 17.5501 9.50072C17.3597 9.43458 17.2407 9.37335 17.184 9.15098C17.0888 8.77661 16.7542 8.55072 16.3769 8.53946C15.9877 8.5275 15.665 8.68795 15.5411 9.05106C15.4403 9.34732 15.2779 9.47398 14.9993 9.54787C14.7998 9.60135 14.6094 9.70339 14.4295 9.80965C12.7691 10.7864 12.6312 12.8813 14.1614 14.0551C14.482 14.3007 14.8656 14.4618 15.2135 14.6736C15.301 14.7271 15.4235 14.8235 15.4256 14.9031C15.4431 15.5554 15.4354 16.2084 15.4354 16.9016C15.1288 16.7679 14.9531 16.5955 14.9069 16.3006C14.8096 15.6792 14.4071 15.3485 13.8618 15.4336C13.3291 15.5174 13.0225 15.9846 13.1226 16.5912C13.3137 17.7573 14.0823 18.3934 15.1323 18.7495C15.3262 18.8149 15.4368 18.8874 15.4935 19.1042C15.5894 19.4708 15.9289 19.7009 16.3041 19.7213C16.6478 19.7403 17.0377 19.5391 17.1385 19.1985C17.2281 18.8945 17.3996 18.7734 17.6775 18.7031C17.8553 18.658 18.0247 18.5665 18.1871 18.4765C19.8888 17.5342 20.0715 15.4238 18.542 14.2169C18.2165 13.9601 17.8196 13.7954 17.4619 13.5773C17.3737 13.5238 17.2498 13.4288 17.2477 13.35C17.2302 12.6984 17.2379 12.0467 17.2379 11.343H17.24ZM24.8469 23.6205C28.3798 23.6205 31.9134 23.6205 35.4463 23.6205C35.5744 23.6205 35.7032 23.6255 35.8313 23.6163C36.2877 23.5846 36.6384 23.2314 36.6699 22.7775C36.7014 22.3271 36.3983 21.9225 35.9482 21.8366C35.7893 21.8064 35.6234 21.8071 35.461 21.8071C28.4764 21.8057 21.4918 21.8057 14.5065 21.8064C14.3315 21.8064 14.1558 21.7986 13.9822 21.812C13.6021 21.8416 13.3172 22.0224 13.173 22.3862C12.921 23.0189 13.3732 23.6184 14.1082 23.6191C17.688 23.6219 21.2678 23.6205 24.8476 23.6205H24.8469ZM25.6911 15.0304C26.9392 15.0304 28.1873 15.0325 29.4361 15.0297C30.0591 15.0283 30.4567 14.6673 30.4511 14.1177C30.4462 13.5709 30.0479 13.2156 29.4221 13.2149C26.914 13.2128 24.4059 13.2128 21.8978 13.2149C21.286 13.2149 20.8723 13.5928 20.8772 14.1311C20.8814 14.6687 21.2902 15.0276 21.9118 15.0283C23.1718 15.0311 24.4318 15.029 25.6918 15.0297L25.6911 15.0304ZM24.8938 10.0968C23.8921 10.0968 22.8904 10.0946 21.8887 10.0975C21.279 10.0989 20.8695 10.4725 20.8758 11.013C20.8814 11.5337 21.2923 11.9081 21.8796 11.9095C23.883 11.913 25.8864 11.913 27.8898 11.9095C28.4995 11.9081 28.9083 11.526 28.9006 10.9869C28.8929 10.4564 28.496 10.0996 27.8989 10.0982C26.8972 10.0946 25.8955 10.0975 24.8938 10.0975V10.0968ZM19.8356 26.5008C19.4632 26.5008 19.0915 26.4959 18.7191 26.5022C18.1591 26.5106 17.7748 26.8843 17.7755 27.4093C17.7762 27.9181 18.1507 28.3023 18.6897 28.3114C19.4569 28.3248 20.2248 28.3248 20.992 28.3128C21.5226 28.3044 21.9062 27.9068 21.9041 27.4036C21.9027 26.8984 21.5177 26.5149 20.9857 26.5036C20.6021 26.4952 20.2185 26.5022 19.8342 26.5015L19.8356 26.5008ZM19.816 37.6862C20.2115 37.6862 20.607 37.6953 21.0025 37.6841C21.517 37.6693 21.8936 37.2942 21.9055 36.8037C21.9174 36.3013 21.5373 35.8875 21.0116 35.8776C20.2325 35.8622 19.4534 35.8629 18.6743 35.8769C18.1416 35.8861 17.7706 36.2816 17.7755 36.7946C17.7804 37.3026 18.1619 37.6763 18.6995 37.6869C19.0712 37.6939 19.4436 37.6883 19.816 37.6869V37.6862ZM19.8307 32.7532C19.6438 32.7532 19.4576 32.7532 19.2707 32.7532C19.0726 32.7532 18.8738 32.7476 18.6757 32.7546C18.1535 32.7736 17.7839 33.1388 17.7762 33.6371C17.7685 34.1381 18.1178 34.5406 18.6393 34.5561C19.4317 34.58 20.2262 34.5793 21.0186 34.5582C21.5527 34.5441 21.9244 34.1233 21.9048 33.6209C21.8852 33.1269 21.5086 32.7666 20.985 32.7546C20.6 32.7462 20.215 32.7532 19.83 32.7525L19.8307 32.7532ZM19.8461 31.4316V31.4331C20.2311 31.4331 20.6161 31.4415 21.0011 31.4309C21.5198 31.4162 21.8957 31.0418 21.9048 30.5492C21.9139 30.0559 21.5569 29.6456 21.0375 29.6302C20.2332 29.6062 19.4275 29.6055 18.6232 29.6316C18.1066 29.6485 17.7594 30.0636 17.7755 30.5647C17.7916 31.0502 18.1493 31.4112 18.6561 31.4288C19.0523 31.4422 19.4492 31.4316 19.8461 31.4316ZM19.8216 40.8099C20.2178 40.8099 20.6154 40.8226 21.0109 40.8071C21.5324 40.7867 21.9027 40.406 21.9048 39.9155C21.9069 39.4039 21.5345 39.019 20.992 39.0091C20.2227 38.9958 19.4527 38.9958 18.6827 39.0091C18.1388 39.0183 17.7713 39.4011 17.7755 39.9169C17.779 40.4172 18.1367 40.7853 18.6666 40.8064C19.0509 40.8219 19.4359 40.8092 19.8209 40.8106L19.8216 40.8099ZM14.7802 37.6855C15.0483 37.6855 15.3164 37.6946 15.5838 37.6834C16.0829 37.6622 16.4441 37.297 16.4581 36.8136C16.4721 36.3259 16.141 35.9121 15.6475 35.884C15.0784 35.8516 14.5051 35.8523 13.936 35.8819C13.4474 35.9072 13.0925 36.3308 13.1044 36.8016C13.1163 37.29 13.4971 37.6658 14.0109 37.6848C14.2671 37.6939 14.5233 37.6862 14.7795 37.6855H14.7802ZM14.7704 28.3149C15.0385 28.3149 15.3066 28.3255 15.574 28.3128C16.1039 28.2868 16.4721 27.892 16.4588 27.3783C16.4462 26.8829 16.0717 26.5121 15.5537 26.5029C15.0413 26.4938 14.5282 26.4931 14.0158 26.5029C13.5041 26.5135 13.1198 26.8928 13.1044 27.3811C13.0883 27.8765 13.4789 28.2882 14.0011 28.3135C14.2566 28.3255 14.5135 28.3156 14.7697 28.3149H14.7704ZM14.7935 32.756V32.7546C14.5254 32.7546 14.2573 32.7462 13.9899 32.7567C13.4957 32.775 13.1268 33.1424 13.1058 33.623C13.0855 34.0811 13.4145 34.5132 13.8884 34.5441C14.4911 34.5828 15.1001 34.5835 15.7021 34.5406C16.1767 34.5068 16.4798 34.0839 16.4581 33.6033C16.4371 33.1388 16.078 32.7799 15.5971 32.7581C15.3297 32.7462 15.0616 32.756 14.7935 32.756ZM14.7914 31.4309V31.4295C15.0707 31.4295 15.3514 31.4429 15.63 31.4267C16.0927 31.4 16.435 31.0432 16.4581 30.5872C16.4819 30.1206 16.197 29.6935 15.7378 29.6597C15.1022 29.6126 14.4575 29.6126 13.8226 29.6632C13.3711 29.6991 13.0687 30.1572 13.1072 30.5985C13.1471 31.0545 13.4929 31.4028 13.9528 31.4281C14.2314 31.4436 14.5114 31.4309 14.7914 31.4309ZM14.8194 39.0091C14.5282 39.0091 14.2363 38.9944 13.9465 39.0126C13.4698 39.0415 13.1191 39.4145 13.1051 39.8817C13.0904 40.3588 13.4418 40.7761 13.9311 40.7986C14.5002 40.8247 15.0728 40.8247 15.6419 40.7986C16.1382 40.7747 16.4721 40.3729 16.4588 39.8803C16.4462 39.4074 16.1039 39.0422 15.6223 39.0119C15.3556 38.9951 15.0868 39.0091 14.8187 39.0098L14.8194 39.0091ZM26.0677 16.352C25.9165 16.352 25.7653 16.3435 25.6148 16.3534C25.122 16.3858 24.7727 16.7587 24.7706 17.2464C24.7685 17.7207 25.0975 18.1042 25.5735 18.1401C25.8969 18.1647 26.2245 18.1654 26.5479 18.1401C27.0099 18.1042 27.355 17.6961 27.348 17.2351C27.341 16.7735 26.9861 16.3907 26.5206 16.3534C26.3708 16.3414 26.2189 16.3513 26.0677 16.3506V16.352ZM33.8181 16.3555V16.352C33.6669 16.352 33.5157 16.3421 33.3652 16.3541C32.8934 16.3907 32.5511 16.7601 32.5427 17.2323C32.5343 17.708 32.8591 18.1014 33.3302 18.1394C33.6641 18.1661 34.005 18.1661 34.3389 18.1352C34.789 18.0944 35.1208 17.6968 35.1194 17.2499C35.118 16.7862 34.7694 16.3984 34.3046 16.3576C34.1436 16.3435 33.9798 16.3555 33.8174 16.3555H33.8181ZM29.9576 16.3541V16.3513C29.8064 16.3513 29.6552 16.3435 29.5047 16.3527C29.0168 16.3836 28.6514 16.7651 28.6472 17.2408C28.6423 17.7151 29.0042 18.1169 29.4872 18.145C29.7994 18.1626 30.1158 18.1654 30.4273 18.1401C30.8984 18.1021 31.2309 17.7129 31.2267 17.2415C31.2225 16.7672 30.8844 16.3956 30.4112 16.3562C30.2614 16.3435 30.1095 16.3541 29.9583 16.3541H29.9576ZM22.1554 18.138V18.1471C22.3178 18.1471 22.4816 18.1598 22.6426 18.145C23.1277 18.1 23.4686 17.7045 23.4539 17.2189C23.4399 16.7538 23.0864 16.378 22.6153 16.3541C22.3024 16.3386 21.9874 16.3372 21.6752 16.3611C21.2237 16.3963 20.8884 16.7756 20.8758 17.2288C20.8632 17.6749 21.188 18.0732 21.6339 18.1345C21.8047 18.1577 21.9811 18.138 22.1554 18.138Z" fill="#0F2442"/>
<path d="M44.9643 38.3497C44.9643 41.6676 44.9643 44.9856 44.9643 48.3029C44.9643 49.3732 44.4099 49.934 43.355 49.934C37.7921 49.934 32.2299 49.934 26.667 49.934C25.5673 49.934 25.0101 49.376 25.0101 48.2712C25.0101 41.6944 25.0094 35.1169 25.0101 28.54C25.0101 28.3416 25.0101 28.1396 25.0416 27.9447C25.1529 27.2706 25.6884 26.7927 26.366 26.7576C26.6222 26.7442 26.8791 26.7526 27.1353 26.7526C32.5344 26.7526 37.9342 26.7526 43.3333 26.7526C44.4204 26.7526 44.9636 27.3008 44.9636 28.3965C44.9636 31.7144 44.9636 35.0324 44.9636 38.3497H44.9643ZM34.969 34.5651C37.2314 34.5651 39.4945 34.5651 41.7569 34.5651C43.0099 34.5651 43.6686 33.8959 43.6686 32.6264C43.6686 31.7116 43.67 30.7975 43.6686 29.8827C43.6665 28.7624 42.9665 28.0573 41.8556 28.0573C37.272 28.0573 32.6884 28.0566 28.1048 28.0573C27.0317 28.0573 26.3261 28.761 26.3205 29.8363C26.3156 30.7623 26.3191 31.6891 26.3198 32.6152C26.3205 33.9121 26.968 34.5659 28.2518 34.5659C30.4911 34.5659 32.7304 34.5659 34.9697 34.5659L34.969 34.5651ZM37.4484 39.1104C37.4484 38.8648 37.4519 38.6185 37.4484 38.3729C37.4323 37.4116 36.7694 36.7002 35.8188 36.6559C35.2728 36.6305 34.7233 36.6312 34.1773 36.6544C33.2246 36.6946 32.5547 37.4039 32.5421 38.363C32.5358 38.8662 32.5372 39.37 32.5421 39.8732C32.5512 40.8387 33.2057 41.5417 34.1668 41.5867C34.7247 41.6127 35.2854 41.6141 35.8433 41.5853C36.7785 41.5374 37.4323 40.8288 37.4484 39.883C37.4526 39.6255 37.4484 39.3679 37.4498 39.1104H37.4484ZM31.2261 39.1104C31.2261 38.8648 31.2289 38.6185 31.2261 38.3729C31.2142 37.4109 30.5548 36.7009 29.6 36.6559C29.054 36.6298 28.5045 36.6312 27.9585 36.6551C27.0079 36.6967 26.3331 37.4102 26.3205 38.3637C26.3135 38.8669 26.3142 39.3707 26.3205 39.8739C26.3324 40.8373 26.9918 41.5438 27.9487 41.5881C28.5066 41.6141 29.0673 41.6134 29.6252 41.586C30.5597 41.541 31.2121 40.8316 31.2254 39.8837C31.2289 39.6262 31.2254 39.3686 31.2261 39.1111V39.1104ZM43.6679 39.1315H43.6693C43.6693 38.8739 43.6735 38.6164 43.6686 38.3588C43.6504 37.4081 42.97 36.6931 42.0215 36.6544C41.4867 36.6326 40.9498 36.6333 40.415 36.653C39.4567 36.6882 38.784 37.3786 38.7602 38.3419C38.7469 38.8803 38.7448 39.4193 38.763 39.9576C38.7931 40.8408 39.4168 41.5184 40.2946 41.5761C40.9085 41.617 41.5301 41.6163 42.144 41.5719C43.0134 41.5093 43.6364 40.814 43.6672 39.9393C43.6763 39.6705 43.6686 39.401 43.6686 39.1315H43.6679ZM34.9914 47.8363C35.2595 47.8363 35.5269 47.8419 35.795 47.8349C36.7225 47.811 37.4239 47.1136 37.4456 46.1812C37.4582 45.6429 37.4575 45.1038 37.4456 44.5655C37.4267 43.6556 36.7323 42.9364 35.8321 42.9062C35.2735 42.8871 34.7135 42.8879 34.1556 42.9062C33.2673 42.9343 32.5687 43.6401 32.5449 44.5282C32.5302 45.0897 32.5302 45.652 32.5449 46.2136C32.5687 47.1094 33.2603 47.8004 34.1528 47.8335C34.4321 47.844 34.7114 47.8349 34.9914 47.8363ZM31.2261 45.3797C31.2261 45.1101 31.231 44.8413 31.2254 44.5718C31.2065 43.645 30.5065 42.928 29.5853 42.9047C29.0498 42.8914 28.5136 42.8921 27.9781 42.9033C27.0562 42.9237 26.3436 43.6345 26.3226 44.557C26.31 45.1066 26.3086 45.6576 26.3233 46.2079C26.3478 47.103 27.0352 47.8018 27.9291 47.8314C28.4989 47.8504 29.0708 47.8504 29.6406 47.83C30.5289 47.7976 31.2037 47.0869 31.2247 46.1882C31.231 45.9194 31.2254 45.6499 31.2261 45.3804V45.3797ZM41.2004 47.8356C41.4797 47.8356 41.7597 47.844 42.039 47.8342C42.9301 47.8018 43.628 47.1206 43.6637 46.2248C43.6861 45.664 43.684 45.1003 43.6637 44.5394C43.6315 43.6274 42.9273 42.9301 42.0222 42.9054C41.4755 42.8907 40.9274 42.89 40.3807 42.9054C39.505 42.9301 38.8057 43.6077 38.7665 44.4846C38.7406 45.0686 38.7413 45.6555 38.7651 46.2403C38.8015 47.141 39.4952 47.8067 40.3968 47.8342C40.6642 47.8426 40.9323 47.8356 41.2004 47.8356Z" fill="#0F2442"/>
<path d="M37.2751 12.4168C36.2433 12.4168 35.1149 12.4499 33.9893 12.4042C33.3432 12.3781 32.8161 11.7828 32.7951 11.0932C32.7615 10.0074 32.786 8.91944 32.786 7.89062C34.2791 9.39655 35.7918 10.9215 37.2751 12.4176V12.4168Z" fill="#0F2442"/>
<path d="M17.2395 11.3432C17.2395 12.0469 17.2318 12.6993 17.2493 13.3502C17.2514 13.429 17.376 13.5233 17.4635 13.5775C17.8212 13.7956 18.2174 13.9603 18.5436 14.2172C20.0731 15.4233 19.8904 17.5337 18.1887 18.4767C18.0263 18.5668 17.8569 18.6582 17.6791 18.7033C17.4012 18.7744 17.2304 18.8947 17.1401 19.1987C17.0393 19.54 16.6494 19.7405 16.3057 19.7215C15.9305 19.7011 15.591 19.471 15.4951 19.1044C15.4384 18.8876 15.3278 18.8159 15.1339 18.7497C14.0839 18.3936 13.3153 17.7575 13.1242 16.5915C13.0248 15.9849 13.3314 15.5176 13.8634 15.4339C14.4087 15.3487 14.8105 15.6795 14.9085 16.3008C14.9547 16.595 15.1297 16.7681 15.437 16.9018C15.437 16.2086 15.4447 15.5556 15.4272 14.9033C15.4251 14.8238 15.3026 14.7266 15.2151 14.6739C14.8672 14.4621 14.4836 14.3009 14.163 14.0553C12.6328 12.8815 12.7707 10.7873 14.4311 9.80987C14.611 9.70431 14.8021 9.60157 15.0009 9.54809C15.2795 9.4735 15.4419 9.34683 15.5427 9.05128C15.6659 8.68817 15.9893 8.52772 16.3785 8.53968C16.7558 8.55165 17.0904 8.77683 17.1856 9.1512C17.2423 9.37428 17.3613 9.4348 17.5517 9.50094C18.6248 9.8732 19.4074 10.5248 19.5635 11.7338C19.637 12.3059 19.3003 12.7647 18.7788 12.8316C18.2776 12.8956 17.8632 12.5445 17.7771 11.9815C17.7309 11.681 17.6511 11.5783 17.2416 11.3432H17.2395ZM15.4111 11.3615C15.129 11.4861 14.9344 11.6522 14.9148 11.9484C14.891 12.3017 15.0856 12.5325 15.4111 12.7169V11.3615ZM17.2479 16.8955C17.5727 16.7477 17.7834 16.564 17.7645 16.2291C17.7463 15.9075 17.5811 15.6781 17.2479 15.5514V16.8955Z" fill="white"/>
<path d="M24.8464 23.6172C21.2666 23.6172 17.6868 23.6186 14.107 23.6158C13.372 23.6158 12.9198 23.0155 13.1718 22.3829C13.3167 22.0198 13.6016 21.8389 13.981 21.8086C14.1546 21.7953 14.3303 21.803 14.5053 21.803C21.4899 21.803 28.4745 21.803 35.4598 21.8037C35.6222 21.8037 35.7881 21.803 35.947 21.8333C36.3971 21.9191 36.7002 22.3238 36.6687 22.7741C36.6372 23.228 36.2858 23.5813 35.8301 23.6129C35.7027 23.6221 35.5739 23.6172 35.4451 23.6172C31.9122 23.6172 28.3786 23.6172 24.8457 23.6172H24.8464Z" fill="white"/>
<path d="M25.6896 15.0279C24.4296 15.0279 23.1696 15.0293 21.9096 15.0265C21.288 15.0251 20.8792 14.6669 20.875 14.1293C20.8708 13.5916 21.2838 13.2138 21.8956 13.213C24.4037 13.2102 26.9118 13.2102 29.4199 13.213C30.0457 13.213 30.444 13.5684 30.4489 14.1159C30.4538 14.6655 30.0569 15.0265 29.4339 15.0279C28.1858 15.0307 26.9377 15.0286 25.6889 15.0279H25.6896Z" fill="white"/>
<path d="M24.8931 10.0952C25.8948 10.0952 26.8965 10.0931 27.8982 10.0959C28.4953 10.098 28.8922 10.4541 28.8999 10.9847C28.9076 11.5237 28.4988 11.9058 27.8891 11.9073C25.8857 11.9115 23.8823 11.9108 21.8789 11.9073C21.2909 11.9065 20.8807 11.5315 20.8751 11.0107C20.8688 10.4703 21.2783 10.0973 21.888 10.0952C22.8897 10.0924 23.8914 10.0945 24.8931 10.0945V10.0952Z" fill="white"/>
<path d="M19.8341 26.4984C20.2177 26.4984 20.602 26.492 20.9856 26.5005C21.5169 26.5124 21.9019 26.8953 21.904 27.4005C21.9054 27.9044 21.5225 28.3013 20.9919 28.3097C20.2247 28.3224 19.4568 28.3217 18.6896 28.3083C18.1506 28.2992 17.7761 27.9142 17.7754 27.4062C17.7747 26.8812 18.159 26.5075 18.719 26.4991C19.0914 26.4934 19.4631 26.4977 19.8355 26.4984H19.8341Z" fill="white"/>
<path d="M19.814 37.6841C19.4416 37.6841 19.0692 37.6904 18.6975 37.6834C18.1599 37.6729 17.7784 37.2999 17.7735 36.7911C17.7686 36.2781 18.1396 35.8826 18.6723 35.8735C19.4514 35.8601 20.2312 35.8594 21.0096 35.8742C21.5346 35.8847 21.9154 36.2978 21.9035 36.8003C21.8916 37.2907 21.515 37.6665 21.0005 37.6806C20.6057 37.6919 20.2095 37.6827 19.814 37.6834V37.6841Z" fill="white"/>
<path d="M19.8293 32.7523C20.2143 32.7523 20.5993 32.7459 20.9843 32.7544C21.5072 32.7657 21.8845 33.1267 21.9041 33.6207C21.9237 34.1231 21.5513 34.5439 21.0179 34.558C20.2255 34.5791 19.431 34.5798 18.6386 34.5559C18.1171 34.5404 17.7678 34.1379 17.7755 33.6368C17.7832 33.1386 18.1528 32.7727 18.675 32.7544C18.8731 32.7474 19.0719 32.753 19.27 32.753C19.4569 32.753 19.6431 32.753 19.83 32.753L19.8293 32.7523Z" fill="white"/>
<path d="M19.8446 31.4289C19.4477 31.4289 19.0508 31.4394 18.6546 31.4261C18.1478 31.4085 17.7901 31.0475 17.774 30.5619C17.7572 30.0609 18.1044 29.6457 18.6217 29.6288C19.426 29.6028 20.2317 29.6035 21.036 29.6274C21.5554 29.6429 21.9124 30.0524 21.9033 30.5464C21.8942 31.0397 21.5183 31.4134 20.9996 31.4282C20.6146 31.4387 20.2296 31.4303 19.8446 31.4303V31.4289Z" fill="white"/>
<path d="M19.8189 40.8064C19.4339 40.8064 19.0489 40.8183 18.6646 40.8029C18.1347 40.781 17.777 40.4137 17.7735 39.9134C17.7693 39.3976 18.1368 39.0147 18.6807 39.0056C19.45 38.9929 20.2207 38.9929 20.99 39.0056C21.5325 39.0147 21.9049 39.4004 21.9028 39.912C21.9007 40.4024 21.5304 40.7832 21.0089 40.8036C20.6127 40.819 20.2158 40.8064 19.8196 40.8064H19.8189Z" fill="white"/>
<path d="M14.7789 37.6856C14.5227 37.6856 14.2658 37.694 14.0103 37.6842C13.4972 37.6652 13.1164 37.2901 13.1038 36.801C13.0919 36.3302 13.4468 35.9066 13.9354 35.8813C14.5045 35.8524 15.0778 35.851 15.6469 35.8834C16.1404 35.9115 16.4715 36.3253 16.4575 36.813C16.4435 37.2964 16.0823 37.6617 15.5832 37.6828C15.3158 37.694 15.0477 37.6849 14.7796 37.6849L14.7789 37.6856Z" fill="white"/>
<path d="M14.7693 28.3123C14.5131 28.3123 14.2562 28.3229 14.0007 28.3102C13.4785 28.2856 13.0879 27.8739 13.104 27.3778C13.1194 26.8894 13.5037 26.5101 14.0154 26.4996C14.5278 26.489 15.0409 26.4904 15.5533 26.4996C16.0713 26.5087 16.4465 26.8796 16.4584 27.375C16.471 27.8887 16.1035 28.2835 15.5736 28.3095C15.3062 28.3222 15.0381 28.3116 14.77 28.3123H14.7693Z" fill="white"/>
<path d="M14.7921 32.7543C15.0602 32.7543 15.3283 32.7444 15.5957 32.7564C16.0773 32.7782 16.4357 33.1371 16.4567 33.6016C16.4784 34.0822 16.176 34.5051 15.7007 34.5389C15.0987 34.5818 14.489 34.5811 13.887 34.5424C13.4124 34.5114 13.0841 34.0801 13.1044 33.6213C13.1254 33.1406 13.4943 32.774 13.9885 32.755C14.2559 32.7452 14.524 32.7529 14.7921 32.7529V32.7543Z" fill="white"/>
<path d="M14.791 31.4312C14.5117 31.4312 14.231 31.4438 13.9524 31.4283C13.4925 31.403 13.1467 31.0547 13.1068 30.5987C13.0683 30.1575 13.37 29.6993 13.8222 29.6635C14.4571 29.6128 15.1018 29.6128 15.7374 29.6599C16.1966 29.6944 16.4815 30.1209 16.4577 30.5874C16.4346 31.0434 16.0923 31.4002 15.6296 31.4269C15.351 31.4431 15.071 31.4297 14.791 31.4297V31.4312Z" fill="white"/>
<path d="M14.8195 39.0055C15.0876 39.0055 15.3557 38.9914 15.6231 39.0083C16.1047 39.0386 16.447 39.4038 16.4596 39.8767C16.4722 40.3693 16.139 40.7711 15.6427 40.795C15.0736 40.8218 14.501 40.8218 13.9319 40.795C13.4426 40.7725 13.0912 40.3552 13.1059 39.8781C13.1206 39.4108 13.4706 39.0379 13.9473 39.009C14.2371 38.9914 14.529 39.0055 14.8202 39.0055H14.8195Z" fill="white"/>
<path d="M26.0666 16.3515C26.2178 16.3515 26.369 16.3416 26.5195 16.3536C26.985 16.3909 27.3406 16.7737 27.3469 17.2353C27.3539 17.6962 27.0081 18.1044 26.5468 18.1403C26.2234 18.1649 25.8958 18.1642 25.5724 18.1403C25.0971 18.1037 24.7674 17.7202 24.7695 17.2466C24.7716 16.7589 25.1209 16.386 25.6137 16.3536C25.7642 16.3437 25.9154 16.3522 26.0666 16.3522V16.3515Z" fill="white"/>
<path d="M33.8178 16.3547C33.9802 16.3547 34.144 16.3427 34.305 16.3568C34.7698 16.3976 35.1184 16.7853 35.1198 17.2491C35.1212 17.6959 34.7894 18.0935 34.3393 18.1343C34.0054 18.1646 33.6652 18.1653 33.3306 18.1386C32.8588 18.1006 32.5347 17.7072 32.5431 17.2315C32.5508 16.7593 32.8931 16.3899 33.3656 16.3533C33.5154 16.342 33.6673 16.3512 33.8185 16.3512V16.3547H33.8178Z" fill="white"/>
<path d="M29.9576 16.3535C30.1088 16.3535 30.2607 16.343 30.4105 16.3556C30.8837 16.395 31.2218 16.7666 31.226 17.2409C31.2302 17.7124 30.8984 18.1015 30.4266 18.1395C30.1151 18.1649 29.7987 18.162 29.4865 18.1445C29.0042 18.117 28.6423 17.7152 28.6465 17.2402C28.6514 16.7645 29.0168 16.3824 29.504 16.3521C29.6545 16.343 29.8057 16.3507 29.9569 16.3507V16.3535H29.9576Z" fill="white"/>
<path d="M22.1549 18.1351C21.9813 18.1351 21.8042 18.1548 21.6334 18.1315C21.1875 18.071 20.8634 17.672 20.8753 17.2259C20.8879 16.7727 21.2239 16.3934 21.6747 16.3582C21.9862 16.3343 22.3019 16.3357 22.6148 16.3512C23.0859 16.3744 23.4394 16.7502 23.4534 17.216C23.4681 17.7016 23.1272 18.0971 22.6421 18.1421C22.4811 18.1569 22.3173 18.1442 22.1549 18.1442V18.1351Z" fill="white"/>
<path d="M34.9677 34.5682C32.7284 34.5682 30.4891 34.5682 28.2498 34.5682C26.966 34.5682 26.3185 33.9145 26.3178 32.6175C26.3178 31.6915 26.3143 30.7647 26.3185 29.8386C26.3241 28.7634 27.0297 28.0596 28.1028 28.0596C32.6864 28.0582 37.27 28.0582 41.8536 28.0596C42.9645 28.0596 43.6645 28.7648 43.6666 29.8851C43.6687 30.7999 43.6666 31.714 43.6666 32.6288C43.6666 33.8983 43.0079 34.5675 41.7549 34.5675C39.4925 34.5682 37.2294 34.5675 34.967 34.5675L34.9677 34.5682ZM28.1469 29.8949V32.7322H41.841V29.8949H28.1469Z" fill="white"/>
<path d="M37.4483 39.1099C37.4483 39.3674 37.4518 39.625 37.4476 39.8826C37.4315 40.8283 36.7777 41.537 35.8425 41.5848C35.2853 41.6137 34.7239 41.6123 34.166 41.5862C33.2049 41.5405 32.5511 40.8382 32.5413 39.8727C32.5364 39.3696 32.535 38.8657 32.5413 38.3626C32.5539 37.4034 33.2238 36.6941 34.1765 36.654C34.7232 36.6314 35.272 36.63 35.818 36.6554C36.7686 36.6997 37.4315 37.4111 37.4476 38.3724C37.4518 38.618 37.4476 38.8643 37.4476 39.1099H37.4483ZM34.3697 38.4758V39.7643H35.6101V38.4758H34.3697Z" fill="white"/>
<path d="M31.2263 39.1108C31.2263 39.3683 31.2291 39.6259 31.2263 39.8834C31.2137 40.8313 30.5606 41.5407 29.6261 41.5857C29.0682 41.6124 28.5075 41.6138 27.9496 41.5878C26.9927 41.5435 26.3333 40.8369 26.3214 39.8736C26.3151 39.3704 26.3144 38.8666 26.3214 38.3634C26.334 37.4099 27.0088 36.6964 27.9594 36.6548C28.5054 36.6309 29.0549 36.6302 29.6009 36.6555C30.5557 36.7006 31.2151 37.4106 31.227 38.3726C31.2298 38.6182 31.227 38.8645 31.227 39.1101L31.2263 39.1108ZM29.4 38.488H28.1519V39.7659H29.4V38.488Z" fill="white"/>
<path d="M43.6666 39.1339C43.6666 39.4035 43.6743 39.673 43.6652 39.9418C43.6344 40.8172 43.0114 41.5118 42.142 41.5744C41.5281 41.6187 40.9065 41.6194 40.2926 41.5786C39.4148 41.5202 38.7911 40.8432 38.761 39.9601C38.7428 39.4225 38.7456 38.8827 38.7582 38.3444C38.7813 37.381 39.4547 36.6907 40.413 36.6555C40.9478 36.6358 41.4847 36.6351 42.0195 36.6569C42.968 36.6956 43.6477 37.4106 43.6666 38.3613C43.6715 38.6188 43.6673 38.8764 43.6673 39.1339H43.6659H43.6666ZM40.5747 39.7638H41.8396V38.4886H40.5747V39.7638Z" fill="white"/>
<path d="M34.9907 47.8374C34.7114 47.8374 34.4314 47.8459 34.1521 47.8353C33.2596 47.8023 32.568 47.1112 32.5442 46.2154C32.5295 45.6538 32.5295 45.0916 32.5442 44.53C32.568 43.642 33.2666 42.9361 34.1549 42.908C34.7135 42.8904 35.2735 42.8897 35.8314 42.908C36.7316 42.9383 37.426 43.6574 37.4449 44.5673C37.4561 45.1057 37.4575 45.6447 37.4449 46.183C37.4232 47.1154 36.7218 47.8128 35.7943 47.8367C35.5269 47.8438 35.2588 47.8381 34.9907 47.8367V47.8374ZM34.3607 44.7348V46.0099H35.6165V44.7348H34.3607Z" fill="white"/>
<path d="M31.2259 45.3806C31.2259 45.6501 31.2308 45.919 31.2245 46.1885C31.2035 47.0878 30.5287 47.7979 29.6404 47.8302C29.0706 47.8513 28.4987 47.8506 27.9289 47.8316C27.0357 47.8021 26.3476 47.1033 26.3231 46.2082C26.3084 45.6586 26.3098 45.1076 26.3224 44.5573C26.3434 43.6347 27.056 42.9233 27.9779 42.9036C28.5134 42.8916 29.0496 42.8909 29.5851 42.905C30.5056 42.9282 31.2056 43.6453 31.2252 44.5721C31.2308 44.8409 31.2259 45.1104 31.2259 45.3799V45.3806ZM29.401 44.748H28.1494V46.0119H29.401V44.748Z" fill="white"/>
<path d="M41.1993 47.836C40.9312 47.836 40.6631 47.8431 40.3957 47.8346C39.4941 47.8072 38.8004 47.1415 38.764 46.2407C38.7402 45.6567 38.7395 45.0691 38.7654 44.485C38.8046 43.6075 39.5039 42.9305 40.3796 42.9059C40.9263 42.8904 41.4744 42.8911 42.0211 42.9059C42.9262 42.9305 43.6304 43.6279 43.6626 44.5399C43.6822 45.1014 43.6843 45.6644 43.6626 46.2252C43.6269 47.1211 42.929 47.8022 42.0379 47.8346C41.7586 47.8445 41.4793 47.836 41.1993 47.836ZM41.8314 46.0134V44.7376H40.5784V46.0134H41.8314Z" fill="white"/>
<path d="M15.4103 11.3594V12.7147C15.0848 12.5296 14.8909 12.2995 14.914 11.9463C14.9336 11.65 15.1282 11.4839 15.4103 11.3594Z" fill="#0F2442"/>
<path d="M17.248 16.8949V15.5508C17.5805 15.6774 17.7464 15.9069 17.7646 16.2284C17.7835 16.5634 17.5735 16.7471 17.248 16.8949Z" fill="#0F2442"/>
<path d="M28.1484 29.8945H41.8425V32.7319H28.1484V29.8945Z" fill="#0F2442"/>
<path d="M34.3691 38.4766H35.6095V39.765H34.3691V38.4766Z" fill="#0F2442"/>
<path d="M29.3985 38.4883V39.7662H28.1504V38.4883H29.3985Z" fill="#0F2442"/>
<path d="M40.5762 39.7634V38.4883H41.8411V39.7634H40.5762Z" fill="#0F2442"/>
<path d="M34.3613 44.7344H35.6171V46.0095H34.3613V44.7344Z" fill="#0F2442"/>
<path d="M29.4 44.75V46.0139H28.1484V44.75H29.4Z" fill="#0F2442"/>
<path d="M41.8311 46.0141H40.5781V44.7383H41.8311V46.0141Z" fill="#0F2442"/>
</g>
<defs>
<clipPath id="clip0_66_955">
<rect width="70" height="76" fill="white" transform="translate(-7 -7)"/>
</clipPath>
</defs>
</svg>
