<svg width="45" height="41" viewBox="0 0 45 41" fill="none" xmlns="http://www.w3.org/2000/svg">
<g clip-path="url(#clip0_66_1093)">
<path d="M2.66048 20.968L2.9229 26.4118C4.1002 25.7742 4.49027 26.3277 4.88743 27.1264C6.7385 30.8677 8.63921 34.5809 10.5186 38.3082C11.086 39.4362 11.0576 39.5693 9.9229 40.1018C9.02219 40.5292 8.17112 41.2438 7.07183 40.9075C6.5541 40.7464 5.96545 40.4871 5.65339 40.0878C5.24914 39.5693 4.84488 39.3031 4.20658 39.3101C3.67467 39.3101 3.36261 39.0299 3.12148 38.5464C2.20658 36.6548 1.26332 34.7771 0.284598 32.9205C0.029279 32.4301 0.00091026 32.0377 0.348428 31.6173C0.745591 31.1409 0.766868 30.6785 0.518641 30.083C0.0505556 28.969 0.468995 27.9741 1.49736 27.1614C1.41935 25.0736 1.34843 23.0979 1.25623 21.1221C1.24914 20.9119 1.12857 20.6387 0.972541 20.5126C0.0576478 19.805 -0.133842 18.8591 0.0789244 17.8082C1.83779 9.07856 9.38389 1.89725 18.3981 0.348893C30.3626 -1.6969 41.5683 5.33027 44.703 16.8694C44.8449 17.3808 45.0222 17.9133 44.9938 18.4248C44.9654 18.9572 44.8803 19.7209 44.5257 19.9521C43.5896 20.5827 43.8307 21.4164 43.781 22.2431C43.6959 23.8265 43.5683 25.4169 43.4548 27.0844C44.6037 27.9111 44.9938 29.0461 44.3768 30.5244C44.2633 30.7906 44.4832 31.267 44.6747 31.5683C44.9867 32.0517 44.9938 32.4371 44.7172 32.9555C43.774 34.7351 42.8378 36.5287 42.0009 38.3573C41.6818 39.0579 41.2137 39.2681 40.5257 39.3732C40.1924 39.4292 39.8094 39.6324 39.6037 39.8916C38.7669 40.9355 37.5966 41.2648 36.3555 40.7113C35.8378 40.4801 35.3484 40.2069 34.8307 39.9827C34.1215 39.6744 34.0435 39.219 34.3768 38.5674C35.625 36.1223 36.852 33.6702 38.086 31.218C38.7952 29.8168 39.5328 28.4295 40.1924 27.0073C40.5612 26.2226 40.9938 25.7882 41.9513 26.3487C42.3413 24.5622 42.4123 22.8527 42.242 21.1291C42.2279 20.996 42.008 20.8419 41.852 20.7788C40.9158 20.4215 40.469 19.6999 40.2279 18.7751C38.313 11.3135 33.547 6.64742 25.9442 5.05002C16.5328 3.08129 6.97963 9.22569 4.85197 18.5018C4.57538 19.7069 4.05765 20.5757 2.66048 20.968Z" fill="white"/>
<path d="M14.717 38.3856C14.6532 38.5467 14.6319 38.7709 14.5185 38.8339C13.8589 39.1983 13.1993 39.6046 12.4901 39.8218C12.3057 39.8779 11.8234 39.3874 11.6532 39.0581C9.75251 35.3449 7.88726 31.6176 6.01492 27.8973C5.61067 27.0986 5.22059 26.2859 4.80216 25.5012C4.48301 24.8987 4.63194 24.5344 5.24187 24.2261C7.11421 23.2733 7.10712 23.2593 8.0362 25.0949C10.1497 29.2916 12.2702 33.4953 14.3837 37.6919C14.4972 37.9161 14.5965 38.1403 14.717 38.3856Z" fill="white"/>
<path d="M32.6517 40.0418C31.8432 39.5864 31.1269 39.2501 30.5028 38.7877C30.3609 38.6826 30.4531 38.1011 30.5879 37.8208C32.4957 33.9885 34.4319 30.1631 36.3609 26.3378C36.7368 25.5881 37.1269 24.8454 37.4957 24.0888C37.7581 23.5493 38.1269 23.4582 38.673 23.6894C40.7014 24.5512 40.7014 24.5372 39.7085 26.5129C37.6021 30.6816 35.5099 34.8572 33.3964 39.0259C33.2191 39.3692 32.9354 39.6564 32.6517 40.0418Z" fill="white"/>
</g>
<defs>
<clipPath id="clip0_66_1093">
<rect width="45" height="41" fill="white"/>
</clipPath>
</defs>
</svg>
