<svg width="40" height="32" viewBox="0 0 40 32" fill="none" xmlns="http://www.w3.org/2000/svg">
<path d="M25.2294 0.570312L17.9048 31.9989H0L7.32468 0.570312H25.2294Z" fill="#FF9900" fill-opacity="0.5"/>
<g clip-path="url(#clip0_115_177)">
<g clip-path="url(#clip1_115_177)">
<path d="M16.789 15.9996C17.0018 15.9996 17.2 15.9996 17.3979 15.9996C17.6768 15.9996 17.9556 15.9996 18.2348 15.9996C18.4479 15.9996 18.4485 15.9996 18.4485 15.779C18.4488 15.1812 18.4485 14.5834 18.4485 13.9859C18.4485 13.927 18.4485 13.8684 18.4485 13.7946C18.5161 13.7907 18.5687 13.785 18.6213 13.785C19.1841 13.7839 19.7469 13.7871 20.3098 13.7794C20.3833 13.7785 20.473 13.7381 20.5268 13.6864C20.8349 13.3905 21.1377 13.0886 21.4354 12.7819C21.5161 12.6988 21.5995 12.671 21.7113 12.6716C22.4137 12.6755 23.1162 12.6701 23.8183 12.6767C23.9591 12.6779 24.0075 12.6435 24.0039 12.495C23.9937 12.0568 23.9931 11.6183 24.0033 11.1801C24.0069 11.0298 23.9552 10.9993 23.8168 11.0011C23.2091 11.008 22.6014 11.0044 21.9938 11.0047C21.9343 11.0047 21.8751 11.0047 21.8013 11.0047V9.89844C21.8578 9.89844 21.911 9.89844 21.9642 9.89844C23.6826 9.89844 25.4013 9.89874 27.1196 9.89903C27.2567 9.89903 27.3255 9.96619 27.3259 10.1005C27.3259 10.3937 27.3259 10.6869 27.3259 10.9957C27.2643 10.9987 27.2114 11.0032 27.1585 11.0032C26.5308 11.0038 25.9031 11.0068 25.2757 11.0008C25.1472 10.9996 25.1029 11.0316 25.105 11.167C25.1128 11.6596 25.108 12.1522 25.108 12.6603C25.1837 12.6645 25.2464 12.6713 25.3092 12.6713C26.0065 12.6719 26.7039 12.6737 27.4012 12.6695C27.5145 12.669 27.5979 12.7015 27.678 12.7828C28.1565 13.2682 28.641 13.7477 29.1196 14.2334C29.1928 14.3075 29.2678 14.3326 29.3692 14.3317C29.917 14.3273 30.4649 14.329 31.0128 14.3287C31.0759 14.3287 31.1393 14.3287 31.2086 14.3287V15.423C31.1566 15.4263 31.1094 15.4317 31.0621 15.4317C30.34 15.4317 29.6176 15.4341 28.8954 15.4269C28.8216 15.4263 28.7301 15.3884 28.6772 15.3366C28.1981 14.8662 27.7243 14.39 27.2526 13.9121C27.1597 13.8179 27.0643 13.7725 26.9268 13.7728C25.3388 13.7776 23.7504 13.7773 22.1624 13.774C22.0368 13.774 21.9528 13.8173 21.8664 13.9076C21.5705 14.2164 21.2663 14.5174 20.9587 14.8148C20.9153 14.8566 20.8361 14.8787 20.7728 14.8799C20.4243 14.8862 20.0754 14.8832 19.7266 14.8832C19.6734 14.8832 19.6202 14.8832 19.5565 14.8832C19.5524 14.9496 19.5467 14.998 19.5467 15.0467C19.5461 16.0379 19.5458 17.0293 19.5461 18.0205C19.5461 18.2228 19.5476 18.2228 19.7514 18.2228C20.0853 18.2228 20.4192 18.2172 20.7524 18.2264C20.8284 18.2285 20.9216 18.2632 20.9748 18.3155C21.4821 18.8141 21.9812 19.3207 22.4849 19.8231C23.0447 20.3818 23.6052 20.9398 24.1704 21.4928C24.2155 21.537 24.3019 21.5586 24.3691 21.5586C25.8487 21.5622 27.328 21.5613 28.8075 21.5613C29.5524 21.5613 30.2973 21.5613 31.0421 21.5616C31.0908 21.5616 31.1396 21.5654 31.2107 21.5687C31.2107 21.8288 31.2104 22.081 31.2107 22.333C31.2111 22.5504 31.1049 22.6591 30.8921 22.6591C29.9463 22.6591 29.0006 22.6594 28.0549 22.6594C26.6758 22.6594 25.2963 22.6612 23.9172 22.6549C23.8341 22.6546 23.7307 22.611 23.6718 22.5524C22.8591 21.7469 22.053 20.9348 21.2447 20.1247C20.9952 19.8749 20.7477 19.6226 20.4912 19.3799C20.4485 19.3395 20.3645 19.3285 20.2996 19.3282C19.7419 19.324 19.1838 19.3207 18.6261 19.3288C18.4787 19.3309 18.4428 19.283 18.4443 19.142C18.4515 18.5193 18.4443 17.8967 18.4506 17.2741C18.4518 17.1438 18.4162 17.1029 18.2829 17.1052C17.8298 17.1133 17.3764 17.1079 16.9232 17.1085C16.8844 17.1085 16.8455 17.1133 16.789 17.1172C16.789 17.2412 16.789 17.3593 16.789 17.4774C16.7893 17.8659 16.7923 18.2545 16.7866 18.6428C16.786 18.6864 16.7382 18.7662 16.7107 18.7668C16.3732 18.7755 16.0355 18.7725 15.6843 18.7725C15.6801 18.705 15.6738 18.6518 15.6735 18.5986C15.6729 17.2389 15.6744 15.8791 15.6699 14.5194C15.6693 14.3736 15.7055 14.3171 15.8621 14.3258C16.1204 14.3398 16.3801 14.3362 16.639 14.3279C16.7585 14.324 16.7929 14.3634 16.7917 14.4803C16.7866 14.9783 16.7896 15.4762 16.7896 15.9999L16.789 15.9996Z" fill="black"/>
<path d="M31.4289 22.8588V14.2874H28.286L27.4289 13.716L21.7146 13.1445L20.286 14.2874L18.8574 14.5731L19.1431 18.5731L19.7146 19.1445L23.7146 22.8588H31.4289Z" fill="black"/>
<path d="M14.2637 28.2614C14.3166 28.2473 14.3692 28.2213 14.4221 28.221C14.9948 28.2183 15.5672 28.2201 16.1399 28.2192C16.5646 28.2186 16.7915 27.9894 16.7915 27.5631C16.7918 26.7367 16.7921 25.9102 16.7924 25.0834C16.7924 25.0246 16.7924 24.9657 16.7924 24.8945H31.2069C31.2096 24.9418 31.2144 24.9896 31.2144 25.0374C31.215 25.8887 31.2144 26.7402 31.2147 27.5915C31.2147 27.9819 31.4421 28.2147 31.8352 28.2165C32.4476 28.2195 33.0601 28.2165 33.6725 28.2192C33.7266 28.2192 33.7807 28.2431 33.8348 28.256C33.4947 28.5991 33.1542 28.942 32.8141 29.2851C32.7319 29.2956 32.6494 29.3165 32.5672 29.315C32.2043 29.3087 31.8349 29.3359 31.4801 29.2773C30.6491 29.1398 30.1195 28.4646 30.1123 27.59C30.1084 27.1121 30.1126 26.6338 30.1132 26.1559C30.1132 26.1027 30.1132 26.0495 30.1132 25.9852H17.8938C17.8938 26.0528 17.8938 26.1108 17.8938 26.1684C17.8938 26.6566 17.8992 27.1447 17.8932 27.6325C17.8831 28.4577 17.3459 29.1413 16.5404 29.2716C16.1351 29.3371 15.7112 29.2866 15.2958 29.2887C15.2249 29.2196 15.1532 29.1512 15.0833 29.0812C14.8098 28.808 14.5369 28.5342 14.2637 28.2608V28.2614Z" fill="black"/>
<path d="M37.8019 7.76154C37.757 7.79472 37.717 7.84224 37.6668 7.85868C37.289 7.98183 36.9007 8.07748 36.5315 8.22185C35.1781 8.7518 34.2097 9.69094 33.6893 11.0497C33.4373 11.7073 33.269 12.3972 33.0625 13.0724C33.0467 13.1241 33.0293 13.1752 32.9839 13.2335C32.9689 13.1863 32.9537 13.1391 32.939 13.0915C32.7397 12.4349 32.5624 11.7704 32.3359 11.1233C32.0364 10.2675 31.5025 9.5681 30.7998 8.9963C30.2146 8.51985 29.5474 8.21258 28.8232 8.01471C28.3291 7.8796 27.8395 7.72866 27.3481 7.58399C27.3344 7.57981 27.3224 7.56964 27.291 7.55141C27.5875 7.46294 27.8694 7.38074 28.1501 7.29465C28.7577 7.10814 29.3791 6.96437 29.953 6.67384C30.5858 6.35342 31.1155 5.91343 31.5632 5.36764C32.0716 4.74772 32.3783 4.03215 32.5834 3.26427C32.6987 2.83266 32.8347 2.40672 32.9618 1.9784C32.968 1.95658 32.9767 1.93566 33 1.87109C33.0936 2.18195 33.1722 2.45156 33.2562 2.71967C33.4071 3.2015 33.5348 3.6926 33.7195 4.16098C34.0596 5.0233 34.6302 5.71705 35.3757 6.26733C35.8656 6.6287 36.4078 6.88277 36.9898 7.05553C37.0561 7.07526 37.1192 7.10515 37.1837 7.12996C37.3894 7.34069 37.5953 7.55141 37.801 7.76214L37.8019 7.76154ZM32.997 9.91393C33.579 8.91021 34.3526 8.13397 35.3587 7.55709C34.3499 6.9823 33.579 6.19888 32.9964 5.20175C32.4124 6.21024 31.6397 6.98589 30.6387 7.55739C31.6406 8.12978 32.4121 8.90185 32.9967 9.91363L32.997 9.91393Z" fill="black"/>
<path d="M11.274 18.089C11.2635 18.0592 11.245 18.0299 11.2438 17.9997C11.216 17.302 11.2901 16.6202 11.5528 15.9659C11.7361 15.5092 11.997 15.1033 12.3058 14.7216C12.3948 14.6113 12.4501 14.4634 12.4878 14.3238C12.8408 13.02 13.1872 11.7141 13.5345 10.4088C13.7414 9.63104 13.9476 8.85329 14.1518 8.07496C14.4342 6.99742 15.3719 6.18052 16.485 6.04811C16.6129 6.03286 16.7423 6.0233 16.8712 6.0233C18.9473 6.02151 21.0235 6.0218 23.0997 6.02151C23.6024 6.02151 24.1052 6.02061 24.6079 6.0239C24.6701 6.0242 26.2863 6 26.2863 6L26.3221 7.11758C26.2811 7.12774 25.7339 7.11758 25.6929 7.11758C24.5278 7.11698 23.3627 7.11249 22.1976 7.11309C20.3803 7.11399 18.5627 7.11578 16.7453 7.12296C16.077 7.12565 15.4137 7.65171 15.238 8.30541C14.9633 9.32795 14.6919 10.3511 14.4184 11.3739C14.0872 12.6129 13.7557 13.8515 13.421 15.0896C13.4054 15.1476 13.363 15.2037 13.3196 15.2477C12.8686 15.7053 12.5661 16.2445 12.4173 16.8701C12.4071 16.9123 12.3817 16.9505 12.3634 16.9906C12 17.3567 11.6368 17.7232 11.2734 18.0893L11.274 18.089Z" fill="black"/>
<path d="M35.699 26.3847C35.6853 26.3273 35.6593 26.2699 35.6593 26.2128C35.6575 23.3493 35.6593 20.4861 35.656 17.6227C35.656 17.4146 35.6222 17.2069 35.6067 16.9989C35.6028 16.9463 35.6094 16.8927 35.6115 16.8398C35.9743 17.2012 36.3372 17.5626 36.6998 17.924C36.7195 18.0014 36.7562 18.0785 36.7562 18.1559C36.7595 19.9756 36.7586 21.7953 36.7586 23.615C36.7586 24.1372 36.7598 24.6591 36.7568 25.1813C36.7565 25.242 36.7314 25.3023 36.7177 25.3627C36.3781 25.7035 36.0386 26.0439 35.699 26.3847Z" fill="black"/>
<path d="M11.2732 18.0909C11.6367 17.7248 11.9998 17.3583 12.3633 16.9922C12.3654 17.0681 12.3717 17.1443 12.369 17.22C12.3621 17.4235 12.3439 17.6271 12.3436 17.8303C12.3418 20.5978 12.3427 23.3657 12.3409 26.1332C12.3409 26.1921 12.3179 26.2509 12.3056 26.3098C11.9622 25.9637 11.6187 25.6176 11.275 25.2714C11.2639 25.2194 11.2433 25.1674 11.2433 25.1154C11.2418 22.8261 11.2418 20.5369 11.2433 18.2476C11.2433 18.1953 11.2627 18.143 11.2732 18.0909Z" fill="black"/>
<path d="M36.7014 17.9266C36.3386 17.5652 35.9757 17.2039 35.6131 16.8425C35.5037 16.5821 35.4209 16.3063 35.2784 16.0653C35.111 15.7823 34.891 15.5303 34.6964 15.2631C34.651 15.2006 34.5975 15.1364 34.5774 15.0646C34.4292 14.5332 34.2881 13.9996 34.1458 13.4667C34.1384 13.4392 34.1392 13.4093 34.1348 13.3684C34.4654 13.2808 34.79 13.1914 35.117 13.1137C35.143 13.1074 35.2081 13.1744 35.2204 13.2171C35.3178 13.5611 35.4126 13.9058 35.4963 14.2534C35.5519 14.4845 35.652 14.679 35.8056 14.8667C36.2758 15.4415 36.5831 16.1009 36.6916 16.8389C36.7397 17.1668 36.7406 17.5016 36.7576 17.8336C36.7591 17.8635 36.7215 17.8955 36.7017 17.9266H36.7014Z" fill="black"/>
<path d="M14.263 28.261C14.5362 28.5345 14.8091 28.8083 15.0826 29.0814C15.1525 29.1514 15.2242 29.2198 15.2951 29.2889C15.2538 29.2988 15.2123 29.3173 15.171 29.3173C14.4447 29.3188 13.7187 29.3173 12.9923 29.3176C12.4815 29.3176 12.0341 29.1622 11.6841 28.7775C11.6243 28.7117 11.5893 28.6229 11.543 28.5449C11.7997 28.2891 12.0565 28.0332 12.3135 27.7773C12.336 27.8045 12.3649 27.8285 12.3796 27.8592C12.4854 28.0798 12.6522 28.2093 12.903 28.2113C13.29 28.2146 13.6774 28.2131 14.0645 28.2188C14.1309 28.2197 14.1972 28.2463 14.2633 28.261H14.263Z" fill="black"/>
<path d="M32.8145 29.2852C33.1546 28.942 33.4951 28.5992 33.8352 28.2561C33.8971 28.2429 33.9586 28.2187 34.0205 28.2181C34.3487 28.2148 34.6772 28.2178 35.0054 28.2175C35.3721 28.2172 35.5464 28.0869 35.6573 27.7351C35.6621 27.7198 35.68 27.7085 35.692 27.6953C35.955 27.9598 36.2183 28.2244 36.4814 28.4886C36.4643 28.5415 36.4599 28.6037 36.4285 28.6455C36.094 29.0867 35.6415 29.3076 35.0933 29.3154C34.3625 29.3255 33.6316 29.3198 32.9008 29.3186C32.8721 29.3186 32.8434 29.2968 32.8148 29.2849L32.8145 29.2852Z" fill="black"/>
<path d="M12.3142 27.7758C12.0574 28.0317 11.8007 28.2875 11.5436 28.5434C11.5134 28.5156 11.4659 28.4929 11.4554 28.4591C11.3804 28.2152 11.2611 27.971 11.2531 27.7235C11.2271 26.9455 11.2429 26.1659 11.2447 25.387C11.2447 25.3478 11.2653 25.3087 11.2761 25.2695C11.6195 25.6157 11.963 25.9618 12.3067 26.3079C12.3189 26.3492 12.3414 26.3904 12.3417 26.432C12.3449 26.8426 12.3449 27.2533 12.3435 27.6643C12.3435 27.7017 12.3243 27.7388 12.3139 27.7758H12.3142Z" fill="black"/>
<path d="M36.4812 28.4865C36.2182 28.222 35.9549 27.9574 35.6918 27.6932C35.6814 27.6606 35.662 27.6284 35.6617 27.5958C35.6596 27.2287 35.6596 26.8617 35.6623 26.4946C35.6623 26.4582 35.6868 26.4217 35.6999 26.3852C36.0395 26.0445 36.379 25.704 36.7186 25.3633C36.732 25.4066 36.7568 25.45 36.7568 25.4933C36.7595 26.2382 36.7721 26.9833 36.7512 27.7276C36.7449 27.9527 36.6456 28.1762 36.5808 28.398C36.5703 28.4342 36.5153 28.4572 36.4809 28.4865H36.4812Z" fill="black"/>
<path d="M36.8569 7.7154C36.6512 7.50468 37.389 7.34354 37.1834 7.13281C37.398 7.1896 37.6132 7.24341 37.8266 7.30378C38.1079 7.38299 38.3879 7.46728 38.6961 7.55755C38.4157 7.64364 38.1629 7.72344 37.9076 7.79637C37.1421 8.00112 36.8931 7.72706 36.8569 7.7154Z" fill="black"/>
<path d="M32.9967 9.91891C32.4121 8.90713 31.6406 8.13507 30.6387 7.56267C31.6397 6.99087 32.4121 6.21552 32.9964 5.20703C33.579 6.20387 34.3498 6.98729 35.3586 7.56237C34.3525 8.13925 33.5787 8.9155 32.997 9.91921L32.9967 9.91891Z" fill="white"/>
<path d="M33.1423 10.2846L30.2852 7.42746L33.1423 4.57031L36.2852 7.42746L33.1423 10.2846Z" fill="black"/>
<path d="M25.1426 18.8566L27.714 16.2852L30.2854 18.8566L32.2854 16.8566" stroke="white" stroke-width="1.71429"/>
</g>
</g>
<defs>
<clipPath id="clip0_115_177">
<rect width="32" height="32" fill="white" transform="translate(8)"/>
</clipPath>
<clipPath id="clip1_115_177">
<rect width="38.8571" height="38.8571" fill="white" transform="translate(4.57227 -3.42969)"/>
</clipPath>
</defs>
</svg>
