<svg width="48" height="47" viewBox="0 0 48 47" fill="none" xmlns="http://www.w3.org/2000/svg">
<path fill-rule="evenodd" clip-rule="evenodd" d="M20.4645 1.53478C22.4171 -0.417843 25.5829 -0.417843 27.5355 1.53478L37.068 11.0673L35.113 13.0223L27.5355 5.44493C25.5829 3.49231 22.4171 3.49232 20.4645 5.44494L5.99139 19.918C4.03877 21.8706 4.03877 25.0365 5.99139 26.9891L20.4645 41.4622C22.4171 43.4148 25.5829 43.4148 27.5355 41.4622L42.0086 26.9891C43.9613 25.0365 43.9613 21.8706 42.0086 19.918L41.4769 19.3863L43.432 17.4312L45.9203 19.9196C47.8729 21.8722 47.8729 25.038 45.9203 26.9906L27.5355 45.3754C25.5829 47.328 22.4171 47.328 20.4645 45.3754L2.0797 26.9906C0.12708 25.038 0.127078 21.8722 2.0797 19.9196L20.4645 1.53478Z" fill="white"/>
</svg>
