<svg width="35" height="32" viewBox="0 0 35 32" fill="none" xmlns="http://www.w3.org/2000/svg">
<path d="M25.6882 0L18.2303 32H0L7.45785 0H25.6882Z" fill="#FF9900" fill-opacity="0.5"/>
<g clip-path="url(#clip0_115_213)">
<path fill-rule="evenodd" clip-rule="evenodd" d="M11.8878 18.4609L7.13867 27.0547L11.2114 26.7832L12.8405 30.3129L17.8765 21.3854L17.0431 20.7417C16.7909 20.5469 16.4658 20.4727 16.154 20.5388L15.1217 20.7576C14.6383 20.86 14.1467 20.6233 13.9255 20.1815L13.4528 19.238C13.3101 18.953 13.0495 18.7451 12.7399 18.6694L11.8878 18.4609Z" fill="black"/>
<path fill-rule="evenodd" clip-rule="evenodd" d="M26.1649 18.4609L30.9141 27.0547L26.8413 26.7832L25.2122 30.3129L20.1762 21.3854L21.0097 20.7417C21.2619 20.5469 21.5869 20.4727 21.8987 20.5388L22.931 20.7576C23.4144 20.86 23.906 20.6233 24.1273 20.1815L24.5999 19.238C24.7426 18.953 25.0033 18.7451 25.3128 18.6694L26.1649 18.4609Z" fill="black"/>
<path fill-rule="evenodd" clip-rule="evenodd" d="M19.7482 1.60542C19.3572 1.3034 18.8116 1.3034 18.4205 1.60542L17.5853 2.25047C17.3331 2.44527 17.0081 2.51946 16.6963 2.45339L15.6639 2.23459C15.1806 2.13215 14.689 2.36889 14.4677 2.81067L13.9951 3.75421C13.8524 4.03915 13.5917 4.24703 13.2822 4.32277L12.2571 4.57357C11.7772 4.69099 11.437 5.11758 11.4293 5.61162L11.4129 6.66678C11.4079 6.98543 11.2633 7.28582 11.0172 7.48837L10.2025 8.15908C9.82103 8.47312 9.69962 9.00506 9.90705 9.45351L10.3501 10.4113C10.4839 10.7005 10.4839 11.0339 10.3501 11.3232L9.90705 12.281C9.69962 12.7294 9.82103 13.2614 10.2025 13.5754L11.0172 14.2461C11.2633 14.4487 11.4079 14.7491 11.4129 15.0677L11.4293 16.1229C11.437 16.6169 11.7772 17.0435 12.2571 17.1609L13.2822 17.4117C13.5917 17.4875 13.8524 17.6953 13.9951 17.9803L14.4677 18.9238C14.689 19.3656 15.1806 19.6023 15.6639 19.4999L16.6963 19.2811C17.0081 19.215 17.3331 19.2892 17.5853 19.484L18.4205 20.1291C18.8116 20.4311 19.3572 20.4311 19.7482 20.1291L20.5834 19.484C20.8356 19.2892 21.1607 19.215 21.4725 19.2811L22.5048 19.4999C22.9882 19.6023 23.4798 19.3656 23.701 18.9238L24.1737 17.9803C24.3164 17.6953 24.577 17.4875 24.8866 17.4117L25.9117 17.1609C26.3916 17.0435 26.7318 16.6169 26.7395 16.1229L26.7559 15.0677C26.7608 14.7491 26.9055 14.4487 27.1515 14.2461L27.9663 13.5754C28.3477 13.2614 28.4691 12.7294 28.2617 12.281L27.8187 11.3232C27.6849 11.0339 27.6849 10.7005 27.8187 10.4113L28.2617 9.45351C28.4691 9.00506 28.3477 8.47312 27.9663 8.15908L27.1515 7.48837C26.9055 7.28582 26.7608 6.98543 26.7559 6.66678L26.7395 5.61162C26.7318 5.11758 26.3916 4.69099 25.9117 4.57357L24.8866 4.32277C24.577 4.24703 24.3164 4.03915 24.1737 3.75421L23.701 2.81067C23.4798 2.36889 22.9882 2.13215 22.5048 2.23459L21.4725 2.45339C21.1607 2.51946 20.8356 2.44527 20.5834 2.25047L19.7482 1.60542ZM25.6023 10.8669C25.6023 14.4658 22.6849 17.3832 19.086 17.3832C15.4871 17.3832 12.5696 14.4658 12.5696 10.8669C12.5696 7.26799 15.4871 4.35051 19.086 4.35051C22.6849 4.35051 25.6023 7.26799 25.6023 10.8669ZM22.5823 7.57532L23.7343 8.72726L18.847 13.6145L18.271 14.1905L17.6951 13.6145L15.2514 11.1709L16.4034 10.019L18.271 11.8866L22.5823 7.57532Z" fill="black"/>
</g>
<defs>
<clipPath id="clip0_115_213">
<rect width="30.4097" height="30.4097" fill="white" transform="translate(3.87891)"/>
</clipPath>
</defs>
</svg>
