<svg width="39" height="32" viewBox="0 0 39 32" fill="none" xmlns="http://www.w3.org/2000/svg">
<path d="M25.6882 0L18.2303 32H0L7.45785 0H25.6882Z" fill="#FF9900" fill-opacity="0.5"/>
<path fill-rule="evenodd" clip-rule="evenodd" d="M30.7118 3.21875H31.5023C32.107 3.38712 32.7062 3.55629 33.2018 3.98078C33.8832 4.56337 34.4271 5.25267 34.7267 6.09217C34.9701 6.77515 35.2966 7.11269 35.2966 8.92057C35.2966 9.56768 35.237 9.93795 35.2151 10.0741L35.2136 10.0833C35.001 11.3845 34.5409 12.571 33.6097 13.5362C33.3031 13.8534 32.9565 14.1125 32.5362 14.3195L32.3948 13.2485C32.4359 13.2013 32.4831 13.1541 32.5362 13.1054C32.9552 12.7212 33.3552 12.2722 33.6223 11.775C34.3354 10.4478 34.4358 9.01381 34.1362 7.55141C33.9172 6.48267 33.4903 5.51749 32.6232 4.80605C31.6596 4.01477 30.4968 4.04639 29.5766 4.88905C28.7134 5.67954 28.2383 6.69215 28.1166 7.83124C28.0059 8.86283 28.0265 9.90785 27.9885 10.9473C27.9751 11.3094 27.7806 11.5299 27.4858 11.5189C27.1894 11.5078 27.0115 11.288 27.0091 10.922C27.0068 10.4833 27.0091 10.0454 27.0091 9.58296C25.9356 9.91497 25.7538 11.0438 26.1103 11.7434C26.4305 12.3702 26.9712 12.6153 27.681 12.5615C28.3775 12.5086 29.0304 11.8777 29.0478 11.1821C29.0731 10.1948 29.1 9.20669 29.1371 8.22016C29.1458 7.99408 29.2004 7.77038 29.2367 7.5277C29.3727 7.55932 29.4407 7.56248 29.4968 7.59014C30.4912 8.06839 31.0991 8.81698 31.1015 9.96082C31.1062 12.0026 31.0873 14.0445 31.1023 16.0863C31.1094 16.9803 30.8106 17.7274 30.1869 18.3558C27.4494 21.113 24.7064 23.8655 21.98 26.6338C21.3216 27.3025 20.6805 27.9721 19.7232 28.1981H18.6165C17.8687 28.0242 17.3067 27.5673 16.7778 27.0377C15.0925 25.3516 13.3969 23.6758 11.7005 22.0007C11.0887 21.3968 10.514 20.7723 10.3164 19.8972V18.9487C10.5124 18.2799 10.7488 17.6546 11.2808 17.1416C12.7669 15.7069 14.2096 14.2287 15.6767 12.7742C17.162 11.3015 18.656 9.83671 20.1461 8.36798C20.8046 7.71899 21.5745 7.37355 22.5207 7.41624C23.2425 7.44865 23.9681 7.41466 24.6914 7.41307C25.5048 7.41149 26.3182 7.41307 27.1269 7.41307C27.1664 7.28739 27.1981 7.20122 27.2218 7.11269C27.734 5.23133 28.6889 3.7468 30.7118 3.21875ZM22.1405 14.2547C22.4646 14.3528 22.7697 14.5132 23.0915 14.6484L23.0907 14.6468C23.5579 14.269 23.7808 14.2294 24.0314 14.4879C24.2725 14.7369 24.2314 14.9844 23.8622 15.465C24.259 16.0903 24.493 16.7669 24.3041 17.5179C24.2424 17.7653 24.1159 18.008 23.9713 18.2206C23.8029 18.4688 23.5397 18.5344 23.278 18.3645C23.0274 18.2024 22.9136 17.9463 23.0962 17.6847C23.7887 16.6926 22.5421 15.1994 21.4789 15.2334C20.9437 15.2508 20.6014 15.5946 20.7572 16.1029C20.8931 16.5472 21.1666 16.9471 21.3635 17.3748C21.6251 17.9447 21.9492 18.5004 22.1057 19.0996C22.3484 20.0292 21.5176 21.0221 20.5508 21.0751C19.9003 21.1106 19.2916 20.9952 18.7493 20.581C18.4339 20.8245 18.124 21.1525 17.7241 20.7589C17.4917 20.5304 17.5533 20.2648 17.8229 19.9304C17.6774 19.2554 17.4845 18.668 17.449 18.0712C17.4292 17.74 17.6371 17.3732 17.8094 17.0594C17.9573 16.7906 18.2387 16.7076 18.524 16.8942C18.8031 17.076 18.8426 17.3305 18.6837 17.6151C18.3833 18.1518 18.4758 18.6657 18.8118 19.1344C19.1952 19.6696 19.6924 20.053 20.3959 20.015C20.8931 19.9889 21.1943 19.5803 21.037 19.1036C20.9153 18.7336 20.7074 18.3914 20.5248 18.0435C20.2931 17.6017 20.0007 17.1859 19.822 16.7242C19.5533 16.0302 19.5264 15.3274 20.1058 14.7385C20.6805 14.1543 21.3769 14.0247 22.1405 14.2547Z" fill="black"/>
</svg>
