<svg width="24" height="24" viewBox="0 0 24 24" fill="none" xmlns="http://www.w3.org/2000/svg">
<path d="M9.98562 9.87904L14.5746 5.29304C14.765 5.12088 15.0143 5.02853 15.271 5.03512C15.5276 5.04171 15.7718 5.14673 15.9531 5.32844C16.1345 5.51014 16.239 5.75462 16.245 6.01124C16.2511 6.26787 16.1582 6.517 15.9856 6.70704L11.3996 11.293C11.2121 11.4806 11.1068 11.7349 11.1068 12C11.1068 12.2652 11.2121 12.5195 11.3996 12.707L15.9856 17.293C16.1731 17.4807 16.2784 17.7351 16.2783 18.0004C16.2782 18.2657 16.1728 18.52 15.9851 18.7075C15.7975 18.895 15.543 19.0003 15.2778 19.0002C15.0125 19.0001 14.7581 18.8947 14.5706 18.707L9.98562 14.121C9.42321 13.5585 9.10726 12.7955 9.10726 12C9.10726 11.2045 9.42321 10.4416 9.98562 9.87904Z" fill="#0F2442" stroke="#0F2442"/>
</svg>
