<svg width="9" height="16" viewBox="0 0 9 16" fill="none" xmlns="http://www.w3.org/2000/svg">
<path d="M1.98562 5.87904L6.57462 1.29304C6.76503 1.12088 7.01435 1.02853 7.27096 1.03512C7.52757 1.04171 7.77183 1.14673 7.95315 1.32844C8.13447 1.51014 8.23897 1.75462 8.24501 2.01124C8.25106 2.26787 8.15818 2.517 7.98562 2.70704L3.39962 7.29304C3.21215 7.48057 3.10683 7.73487 3.10683 8.00004C3.10683 8.2652 3.21215 8.51951 3.39962 8.70704L7.98562 13.293C8.17313 13.4807 8.27841 13.7351 8.27832 14.0004C8.27823 14.2657 8.17276 14.52 7.98512 14.7075C7.79748 14.895 7.54303 15.0003 7.27776 15.0002C7.01249 15.0001 6.75813 14.8947 6.57062 14.707L1.98562 10.121C1.42321 9.55845 1.10726 8.79553 1.10726 8.00004C1.10726 7.20454 1.42321 6.44162 1.98562 5.87904V5.87904Z" fill="#0F2442" stroke="#0F2442"/>
</svg>
