<svg width="40" height="40" viewBox="0 0 40 40" fill="none" xmlns="http://www.w3.org/2000/svg">
<path fill-rule="evenodd" clip-rule="evenodd" d="M37.5003 20C37.5003 19.6685 37.3686 19.3505 37.1342 19.1161C36.8997 18.8817 36.5818 18.75 36.2503 18.75H6.76778L14.6353 10.885C14.7515 10.7688 14.8437 10.6308 14.9066 10.479C14.9695 10.3271 15.0019 10.1644 15.0019 9.99999C15.0019 9.83563 14.9695 9.67288 14.9066 9.52103C14.8437 9.36918 14.7515 9.23121 14.6353 9.11499C14.5191 8.99877 14.3811 8.90658 14.2292 8.84368C14.0774 8.78079 13.9146 8.74841 13.7503 8.74841C13.5859 8.74841 13.4232 8.78079 13.2713 8.84368C13.1195 8.90658 12.9815 8.99877 12.8653 9.11499L2.86528 19.115C2.74887 19.2311 2.65652 19.369 2.5935 19.5209C2.53048 19.6728 2.49805 19.8356 2.49805 20C2.49805 20.1644 2.53048 20.3272 2.5935 20.4791C2.65652 20.6309 2.74887 20.7689 2.86528 20.885L12.8653 30.885C12.9815 31.0012 13.1195 31.0934 13.2713 31.1563C13.4232 31.2192 13.5859 31.2516 13.7503 31.2516C13.9146 31.2516 14.0774 31.2192 14.2292 31.1563C14.3811 31.0934 14.5191 31.0012 14.6353 30.885C14.7515 30.7688 14.8437 30.6308 14.9066 30.4789C14.9695 30.3271 15.0019 30.1643 15.0019 30C15.0019 29.8356 14.9695 29.6729 14.9066 29.521C14.8437 29.3692 14.7515 29.2312 14.6353 29.115L6.76778 21.25H36.2503C36.5818 21.25 36.8997 21.1183 37.1342 20.8839C37.3686 20.6495 37.5003 20.3315 37.5003 20Z" fill="white"/>
</svg>
