<svg width="24" height="24" viewBox="0 0 24 24" fill="none" xmlns="http://www.w3.org/2000/svg">
<path d="M14.0144 9.87904L9.42538 5.29304C9.23497 5.12088 8.98565 5.02853 8.72904 5.03512C8.47243 5.04171 8.22817 5.14673 8.04685 5.32844C7.86553 5.51014 7.76103 5.75462 7.75499 6.01124C7.74894 6.26787 7.84182 6.517 8.01438 6.70704L12.6004 11.293C12.7879 11.4806 12.8932 11.7349 12.8932 12C12.8932 12.2652 12.7879 12.5195 12.6004 12.707L8.01438 17.293C7.82687 17.4807 7.72159 17.7351 7.72168 18.0004C7.72177 18.2657 7.82724 18.52 8.01488 18.7075C8.20252 18.895 8.45697 19.0003 8.72224 19.0002C8.98751 19.0001 9.24187 18.8947 9.42938 18.707L14.0144 14.121C14.5768 13.5585 14.8927 12.7955 14.8927 12C14.8927 11.2045 14.5768 10.4416 14.0144 9.87904V9.87904Z" fill="#0F2442" stroke="#0F2442"/>
</svg>
