<svg width="50" height="50" viewBox="0 0 50 50" fill="none" xmlns="http://www.w3.org/2000/svg">
<path d="M30.7618 47.0615H29.1487C28.4681 43.7226 25.5094 41.2021 21.9727 41.2021H10.254C6.71729 41.2021 3.75861 43.7226 3.07804 47.0615H1.46496C0.655296 47.0615 0.00012207 47.7167 0.00012207 48.5263C0.00012207 49.336 0.655296 49.9912 1.46496 49.9912C11.2496 49.9912 20.9865 49.9912 30.7618 49.9912C31.5714 49.9912 32.2266 49.336 32.2266 48.5263C32.2266 47.7167 31.5714 47.0615 30.7618 47.0615Z" fill="#0F2442"/>
<path d="M38.147 13.2964L25.7175 0.866966C24.5732 -0.27727 22.7183 -0.27727 21.5742 0.866966C20.4302 2.01101 20.4302 3.86599 21.5742 5.01012L34.0039 17.4397C35.1479 18.5837 37.0029 18.5837 38.147 17.4397C39.2911 16.2955 39.2911 14.4407 38.147 13.2964Z" fill="#0F2442"/>
<path d="M17.431 34.0125L5.00134 21.5829C3.85729 20.4388 2.00232 20.4388 0.858177 21.5829C-0.286059 22.7269 -0.286059 24.5819 0.858177 25.7261L13.2877 38.1557C14.432 39.2997 16.2868 39.2997 17.431 38.1557C18.575 37.0117 18.575 35.1567 17.431 34.0125Z" fill="#0F2442"/>
<path d="M19.5017 7.08201L7.07239 19.5114L19.5017 31.9407L31.931 19.5114L19.5017 7.08201Z" fill="#0F2442"/>
<path d="M48.7131 42.4893L46.6288 40.2273L40.4139 46.4421L42.4982 48.7041C44.2144 50.4203 46.9969 50.4203 48.7131 48.7041C50.4292 46.9879 50.4292 44.2055 48.7131 42.4893Z" fill="#0F2442"/>
<path d="M34.7221 28.5159C34.9691 27.547 34.7622 26.4845 34.0038 25.7261C32.8596 24.5819 31.0046 24.5819 29.8606 25.7261L25.7174 29.8693C24.5732 31.0133 24.5732 32.8683 25.7174 34.0125C26.4758 34.7709 27.5384 34.9777 28.5073 34.7308L38.3422 44.3704L44.557 38.1556L34.7221 28.5159Z" fill="#0F2442"/>
</svg>
