<svg width="35" height="33" viewBox="0 0 35 33" fill="none" xmlns="http://www.w3.org/2000/svg">
<path fill-rule="evenodd" clip-rule="evenodd" d="M0 4.125C0 3.03098 0.438987 1.98177 1.22039 1.20818C2.00179 0.434597 3.0616 0 4.16667 0L20.8333 0C21.9384 0 22.9982 0.434597 23.7796 1.20818C24.561 1.98177 25 3.03098 25 4.125V28.875C25 29.969 24.561 31.0182 23.7796 31.7918C22.9982 32.5654 21.9384 33 20.8333 33H4.16667C3.0616 33 2.00179 32.5654 1.22039 31.7918C0.438987 31.0182 0 29.969 0 28.875V4.125ZM4.16667 5.15625C4.16667 4.88275 4.27641 4.62044 4.47176 4.42705C4.66711 4.23365 4.93207 4.125 5.20833 4.125H19.7917C20.0679 4.125 20.3329 4.23365 20.5282 4.42705C20.7236 4.62044 20.8333 4.88275 20.8333 5.15625V9.28125C20.8333 9.55475 20.7236 9.81706 20.5282 10.0105C20.3329 10.2039 20.0679 10.3125 19.7917 10.3125H5.20833C4.93207 10.3125 4.66711 10.2039 4.47176 10.0105C4.27641 9.81706 4.16667 9.55475 4.16667 9.28125V5.15625ZM4.16667 13.4062C4.16667 13.1327 4.27641 12.8704 4.47176 12.677C4.66711 12.4836 4.93207 12.375 5.20833 12.375H7.29167C7.56793 12.375 7.83289 12.4836 8.02824 12.677C8.22359 12.8704 8.33333 13.1327 8.33333 13.4062V15.4688C8.33333 15.7423 8.22359 16.0046 8.02824 16.198C7.83289 16.3913 7.56793 16.5 7.29167 16.5H5.20833C4.93207 16.5 4.66711 16.3913 4.47176 16.198C4.27641 16.0046 4.16667 15.7423 4.16667 15.4688V13.4062ZM5.20833 18.5625C4.93207 18.5625 4.66711 18.6711 4.47176 18.8645C4.27641 19.0579 4.16667 19.3202 4.16667 19.5938V21.6562C4.16667 21.9298 4.27641 22.1921 4.47176 22.3855C4.66711 22.5789 4.93207 22.6875 5.20833 22.6875H7.29167C7.56793 22.6875 7.83289 22.5789 8.02824 22.3855C8.22359 22.1921 8.33333 21.9298 8.33333 21.6562V19.5938C8.33333 19.3202 8.22359 19.0579 8.02824 18.8645C7.83289 18.6711 7.56793 18.5625 7.29167 18.5625H5.20833ZM4.16667 25.7812C4.16667 25.5077 4.27641 25.2454 4.47176 25.052C4.66711 24.8586 4.93207 24.75 5.20833 24.75H7.29167C7.56793 24.75 7.83289 24.8586 8.02824 25.052C8.22359 25.2454 8.33333 25.5077 8.33333 25.7812V27.8438C8.33333 28.1173 8.22359 28.3796 8.02824 28.573C7.83289 28.7664 7.56793 28.875 7.29167 28.875H5.20833C4.93207 28.875 4.66711 28.7664 4.47176 28.573C4.27641 28.3796 4.16667 28.1173 4.16667 27.8438V25.7812ZM11.4583 12.375C11.1821 12.375 10.9171 12.4836 10.7218 12.677C10.5264 12.8704 10.4167 13.1327 10.4167 13.4062V15.4688C10.4167 15.7423 10.5264 16.0046 10.7218 16.198C10.9171 16.3913 11.1821 16.5 11.4583 16.5H13.5417C13.8179 16.5 14.0829 16.3913 14.2782 16.198C14.4736 16.0046 14.5833 15.7423 14.5833 15.4688V13.4062C14.5833 13.1327 14.4736 12.8704 14.2782 12.677C14.0829 12.4836 13.8179 12.375 13.5417 12.375H11.4583ZM10.4167 19.5938C10.4167 19.3202 10.5264 19.0579 10.7218 18.8645C10.9171 18.6711 11.1821 18.5625 11.4583 18.5625H13.5417C13.8179 18.5625 14.0829 18.6711 14.2782 18.8645C14.4736 19.0579 14.5833 19.3202 14.5833 19.5938V21.6562C14.5833 21.9298 14.4736 22.1921 14.2782 22.3855C14.0829 22.5789 13.8179 22.6875 13.5417 22.6875H11.4583C11.1821 22.6875 10.9171 22.5789 10.7218 22.3855C10.5264 22.1921 10.4167 21.9298 10.4167 21.6562V19.5938ZM11.4583 24.75C11.1821 24.75 10.9171 24.8586 10.7218 25.052C10.5264 25.2454 10.4167 25.5077 10.4167 25.7812V27.8438C10.4167 28.1173 10.5264 28.3796 10.7218 28.573C10.9171 28.7664 11.1821 28.875 11.4583 28.875H13.5417C13.8179 28.875 14.0829 28.7664 14.2782 28.573C14.4736 28.3796 14.5833 28.1173 14.5833 27.8438V25.7812C14.5833 25.5077 14.4736 25.2454 14.2782 25.052C14.0829 24.8586 13.8179 24.75 13.5417 24.75H11.4583ZM16.6667 13.4062C16.6667 13.1327 16.7764 12.8704 16.9718 12.677C17.1671 12.4836 17.4321 12.375 17.7083 12.375H19.7917C20.0679 12.375 20.3329 12.4836 20.5282 12.677C20.7236 12.8704 20.8333 13.1327 20.8333 13.4062V15.4688C20.8333 15.7423 20.7236 16.0046 20.5282 16.198C20.3329 16.3913 20.0679 16.5 19.7917 16.5H17.7083C17.4321 16.5 17.1671 16.3913 16.9718 16.198C16.7764 16.0046 16.6667 15.7423 16.6667 15.4688V13.4062ZM17.7083 18.5625C17.4321 18.5625 17.1671 18.6711 16.9718 18.8645C16.7764 19.0579 16.6667 19.3202 16.6667 19.5938V27.8438C16.6667 28.1173 16.7764 28.3796 16.9718 28.573C17.1671 28.7664 17.4321 28.875 17.7083 28.875H19.7917C20.0679 28.875 20.3329 28.7664 20.5282 28.573C20.7236 28.3796 20.8333 28.1173 20.8333 27.8438V19.5938C20.8333 19.3202 20.7236 19.0579 20.5282 18.8645C20.3329 18.6711 20.0679 18.5625 19.7917 18.5625H17.7083Z" fill="white"/>
</svg>
