<svg width="31" height="29" viewBox="0 0 31 29" fill="none" xmlns="http://www.w3.org/2000/svg">
<path d="M26.8906 0.764648H24.1501V3.50513C24.1501 4.05323 23.6934 4.41863 23.2366 4.41863C22.7799 4.41863 22.3231 4.05323 22.3231 3.50513V0.764648H7.70721V3.50513C7.70721 4.05323 7.25046 4.41863 6.79372 4.41863C6.33697 4.41863 5.88022 4.05323 5.88022 3.50513V0.764648H3.13974C1.76949 0.764648 0.764648 1.95219 0.764648 3.50513V6.79371H29.9965V3.50513C29.9965 1.95219 28.3522 0.764648 26.8906 0.764648ZM0.764648 8.71205V25.429C0.764648 27.0733 1.76949 28.1695 3.23109 28.1695H26.982C28.4436 28.1695 30.0878 26.9819 30.0878 25.429V8.71205H0.764648ZM8.89476 24.0588H6.70237C6.33697 24.0588 5.97157 23.7847 5.97157 23.328V21.0442C5.97157 20.6788 6.24562 20.3134 6.70237 20.3134H8.98611C9.3515 20.3134 9.7169 20.5875 9.7169 21.0442V23.328C9.62555 23.7847 9.3515 24.0588 8.89476 24.0588ZM8.89476 15.8373H6.70237C6.33697 15.8373 5.97157 15.5633 5.97157 15.1065V12.8228C5.97157 12.4574 6.24562 12.092 6.70237 12.092H8.98611C9.3515 12.092 9.7169 12.366 9.7169 12.8228V15.1065C9.62555 15.5633 9.3515 15.8373 8.89476 15.8373ZM16.2027 24.0588H13.919C13.5536 24.0588 13.1882 23.7847 13.1882 23.328V21.0442C13.1882 20.6788 13.4622 20.3134 13.919 20.3134H16.2027C16.5681 20.3134 16.9335 20.5875 16.9335 21.0442V23.328C16.9335 23.7847 16.6595 24.0588 16.2027 24.0588ZM16.2027 15.8373H13.919C13.5536 15.8373 13.1882 15.5633 13.1882 15.1065V12.8228C13.1882 12.4574 13.4622 12.092 13.919 12.092H16.2027C16.5681 12.092 16.9335 12.366 16.9335 12.8228V15.1065C16.9335 15.5633 16.6595 15.8373 16.2027 15.8373ZM23.5107 24.0588H21.2269C20.8615 24.0588 20.4961 23.7847 20.4961 23.328V21.0442C20.4961 20.6788 20.7702 20.3134 21.2269 20.3134H23.5107C23.8761 20.3134 24.2415 20.5875 24.2415 21.0442V23.328C24.2415 23.7847 23.9674 24.0588 23.5107 24.0588ZM23.5107 15.8373H21.2269C20.8615 15.8373 20.4961 15.5633 20.4961 15.1065V12.8228C20.4961 12.4574 20.7702 12.092 21.2269 12.092H23.5107C23.8761 12.092 24.2415 12.366 24.2415 12.8228V15.1065C24.2415 15.5633 23.9674 15.8373 23.5107 15.8373Z" fill="#0F2442"/>
</svg>
