<svg width="50" height="18" viewBox="0 0 50 18" fill="none" xmlns="http://www.w3.org/2000/svg">
<path d="M41.2719 10.3502C43.3555 10.3502 45.0449 12.0391 45.0449 14.1231C45.0449 14.2838 45.0318 14.4419 45.0116 14.597C44.7777 16.4568 43.1948 17.8951 41.2725 17.8951C39.2981 17.8951 37.6793 16.3774 37.5151 14.4445C37.5066 14.3389 37.4995 14.2313 37.4995 14.1226C37.499 12.0391 39.1879 10.3502 41.2719 10.3502ZM43.1605 12.7015L42.3915 13.4709C42.4511 13.5735 42.4981 13.6841 42.5284 13.8023H43.6126C43.5571 13.3921 43.3999 13.0172 43.1605 12.7015ZM43.6177 14.4556H42.5249C42.4941 14.5718 42.4486 14.6819 42.388 14.783L43.1589 15.5534C43.3979 15.2402 43.5586 14.8653 43.6177 14.4556ZM41.5983 16.4669C42.007 16.4098 42.3784 16.2496 42.6926 16.0127L41.9257 15.2452C41.8247 15.3044 41.714 15.3478 41.5983 15.3781V16.4669ZM41.5983 12.8682C41.717 12.8995 41.8282 12.946 41.9318 13.0071L42.7002 12.2387C42.3844 11.9987 42.0096 11.8401 41.5983 11.783V12.8682ZM40.9451 11.782C40.5338 11.839 40.1584 11.9987 39.8432 12.2382L40.6111 13.0066C40.7142 12.9455 40.8263 12.899 40.9446 12.8677L40.9451 11.782ZM40.9451 16.4659V15.3786C40.8289 15.3478 40.7192 15.3049 40.6182 15.2452L39.8508 16.0127C40.165 16.2496 40.5369 16.4088 40.9451 16.4659ZM39.3829 15.557L40.1564 14.7825C40.0958 14.6809 40.0468 14.5723 40.016 14.4561H38.9318C38.9894 14.8643 39.1435 15.2422 39.3829 15.557ZM40.0145 13.8023C40.0453 13.6841 40.0918 13.5735 40.1514 13.4709L39.3814 12.7015C39.1435 13.0172 38.9863 13.3921 38.9298 13.8028H40.0145V13.8023Z" fill="#0F2442"/>
<path d="M9.94382 10.3502C12.0273 10.3502 13.7168 12.0391 13.7168 14.1231C13.7168 14.2838 13.7037 14.4419 13.6835 14.597C13.4495 16.4568 11.8667 17.8951 9.94483 17.8951C7.97044 17.8951 6.35171 16.3774 6.18701 14.4445C6.17842 14.3389 6.17135 14.2313 6.17135 14.1226C6.17034 12.0391 7.85979 10.3502 9.94382 10.3502ZM11.8323 12.7015L11.0639 13.4709C11.1235 13.5735 11.1705 13.6841 11.2008 13.8023H12.285C12.2289 13.3921 12.0718 13.0172 11.8323 12.7015ZM12.289 14.4556H11.1963C11.1654 14.5718 11.12 14.6819 11.0593 14.783L11.8298 15.5534C12.0698 15.2402 12.2309 14.8653 12.289 14.4556ZM10.2702 16.4669C10.6789 16.4098 11.0503 16.2496 11.3645 16.0127L10.5976 15.2452C10.4965 15.3044 10.3859 15.3478 10.2702 15.3781V16.4669ZM10.2702 12.8682C10.3889 12.8995 10.5001 12.946 10.6036 13.0071L11.3721 12.2387C11.0563 11.9987 10.6819 11.8401 10.2702 11.783V12.8682ZM9.61644 11.782C9.20519 11.839 8.82981 11.9987 8.51456 12.2382L9.28299 13.0066C9.38606 12.9455 9.49822 12.898 9.61644 12.8677V11.782ZM9.61644 16.4659V15.3786C9.50024 15.3478 9.3906 15.3049 9.28956 15.2452L8.52213 16.0127C8.83638 16.2496 9.20873 16.4088 9.61644 16.4659ZM8.0548 15.557L8.8283 14.7835C8.76767 14.6814 8.71816 14.5733 8.68785 14.4566H7.60364C7.66124 14.8643 7.81483 15.2422 8.0548 15.557ZM8.68633 13.8023C8.71715 13.6841 8.76312 13.5735 8.82325 13.4709L8.05379 12.7015C7.81533 13.0172 7.65872 13.3921 7.60163 13.8028H8.68633V13.8023Z" fill="#0F2442"/>
<path d="M0.884354 8.39701V5.60517C0.884354 5.15604 1.21073 4.77561 1.65431 4.70639C2.7188 4.53967 4.6058 4.22492 5.45356 3.96372C6.66911 3.58885 11.3656 1.60031 12.9919 1.22695C14.6187 0.853592 21.9535 -1.14 28.9786 1.29515C30.1673 1.70691 35.5151 4.26331 38.6596 5.59254C39.5856 5.61275 48.7518 7.52349 49.2399 8.83302C49.7279 10.143 49.881 10.7786 49.9709 11.111C50.0608 11.4435 49.9709 13.0344 49.2899 14.1424C48.5957 14.5349 47.2594 14.7986 45.7144 14.9755C45.7321 14.881 45.7513 14.788 45.7634 14.6925C45.7902 14.4884 45.8029 14.302 45.8029 14.1242C45.8029 11.6259 43.7709 9.59287 41.2721 9.59287C38.7732 9.59287 36.7412 11.6254 36.7412 14.1242C36.7412 14.2525 36.7498 14.3798 36.7594 14.5051C36.7832 14.7855 36.8337 15.0578 36.907 15.32C36.9034 15.32 36.8948 15.32 36.8948 15.32L14.4045 14.8674C14.4146 14.8092 14.4278 14.7517 14.4353 14.6925C14.4621 14.4894 14.4747 14.3025 14.4747 14.1242C14.4747 11.6259 12.4428 9.59337 9.94394 9.59337C7.44513 9.59337 5.41263 11.6254 5.41263 14.1242C5.41263 14.1338 5.41364 14.1419 5.41415 14.151L5.31815 14.1429L1.47293 13.4189C1.47293 13.4189 0.000221185 12.6348 0.000221185 10.4775C-0.000284034 9.03864 0.884354 8.39701 0.884354 8.39701ZM23.1943 5.75017L31.5936 6.00733C31.439 4.74883 32.1842 4.46641 32.1842 4.46641C28.8452 1.4356 22.1157 1.33304 22.1157 1.33304L23.1943 5.75017ZM13.7679 5.3657L21.422 5.62286L20.7283 1.33355C16.7725 1.28202 14.5126 2.15504 14.5126 2.15504L13.3825 3.97887L13.7679 5.3657ZM9.45287 5.33943H11.5854L13.7174 2.41169C12.1179 3.04826 10.8377 3.67574 10.0753 4.07234C9.61251 4.31282 9.35991 4.82663 9.45287 5.33943Z" fill="#0F2442"/>
</svg>
