<svg width="107" height="38" viewBox="0 0 107 38" fill="none" xmlns="http://www.w3.org/2000/svg">
<path d="M20.1126 28.7731H20.0963C19.6344 28.7731 19.2686 29.1481 19.2686 29.6119C19.2686 30.0755 19.6513 30.4507 20.1126 30.4507C20.5746 30.4507 20.9486 30.0755 20.9486 29.6119C20.9486 29.1481 20.5746 28.7731 20.1126 28.7731Z" fill="black"/>
<path d="M10.8675 31.2894C7.01266 31.2878 1.67206 30.4129 1.67206 28.773V22.9012H4.17963C4.6418 22.9012 5.01556 22.526 5.01556 22.0622C5.01556 21.5987 4.6418 21.2236 4.17963 21.2236H0.835926C0.373961 21.2236 0 21.5987 0 22.0622V28.773C0 32.7655 9.05263 32.9671 10.8672 32.9671C11.3286 32.9671 11.7032 32.5918 11.7034 32.1283C11.7034 31.6662 11.3294 31.2894 10.8675 31.2894Z" fill="black"/>
<path d="M104.987 17.9275C104.708 17.7213 97.9123 12.8765 76.3935 11.1817C75.0645 10.1224 67.8252 4.65276 56.6346 1.74888C45.4506 -1.15605 28.1115 -1.86545 8.9381 11.1586H2.5078C2.04584 11.1586 1.67188 11.5339 1.67188 11.9974C1.67188 12.461 2.04584 12.8362 2.5078 12.8362H9.19542C9.36348 12.8362 9.52757 12.7855 9.66637 12.6905C45.4745 -11.8084 75.2392 12.3941 75.5348 12.6422C75.6686 12.7536 75.8335 12.8209 76.0049 12.8339C97.1336 14.4648 103.934 19.2334 103.999 19.2817C104.149 19.3899 104.321 19.4423 104.492 19.4423C104.749 19.4423 105.001 19.3236 105.165 19.0998C105.439 18.7262 105.359 18.2012 104.987 17.9275Z" fill="black"/>
<path d="M104.492 17.7644C104.03 17.7644 103.656 18.1397 103.656 18.6032V27.0955C103.656 27.5592 104.03 27.9345 104.492 27.9345C104.954 27.9345 105.328 27.5592 105.328 27.0955V18.6032C105.328 18.1397 104.954 17.7644 104.492 17.7644Z" fill="black"/>
<path d="M20.0626 21.2236C15.4534 21.2236 11.7031 24.9867 11.7031 29.6118C11.7031 34.2367 15.4534 38 20.0626 38C24.6716 38 28.4219 34.2367 28.4219 29.6118C28.4219 24.9867 24.6716 21.2236 20.0626 21.2236ZM20.0626 36.3224C16.3752 36.3224 13.3752 33.313 13.3752 29.6118C13.3752 25.9123 16.375 22.9012 20.0626 22.9012C23.7502 22.9012 26.75 25.9123 26.75 29.6118C26.75 33.3128 23.7499 36.3224 20.0626 36.3224Z" fill="black"/>
<path d="M106.164 31.2896H94.4609C93.9988 31.2896 93.625 31.6646 93.625 32.1284C93.625 32.592 93.9988 32.9672 94.4609 32.9672H106.164C106.626 32.9672 107 32.592 107 32.1284C107 31.6646 106.626 31.2896 106.164 31.2896Z" fill="black"/>
<path d="M76.0703 31.2896H29.2578C28.7958 31.2896 28.4219 31.6646 28.4219 32.1284C28.4219 32.592 28.7958 32.9672 29.2578 32.9672H76.0705C76.5327 32.9672 76.9064 32.592 76.9062 32.1284C76.9062 31.6646 76.5325 31.2896 76.0703 31.2896Z" fill="black"/>
<path d="M2.5078 11.1586C2.04584 11.1586 1.67188 11.5339 1.67188 11.9974V20.3856C1.67188 20.8485 2.04584 21.2238 2.5078 21.2238C2.96997 21.2238 3.34373 20.8483 3.34373 20.3856V11.9974C3.34373 11.5339 2.96997 11.1586 2.5078 11.1586Z" fill="black"/>
<path d="M7.52422 12.8127C7.06309 12.8127 6.68913 13.1643 6.68913 13.6279C6.64836 13.9343 6.07122 14.5135 4.17968 14.5135C3.71771 14.5135 3.34375 14.8887 3.34375 15.3523C3.34375 15.816 3.71771 16.1911 4.17968 16.1911C8.31206 16.1911 8.35931 13.7772 8.35931 13.6744C8.35931 13.2109 7.98618 12.8127 7.52422 12.8127Z" fill="black"/>
<path d="M20.0625 24.5789C19.6005 24.5789 19.2266 24.954 19.2266 25.4175V27.0952C19.2266 27.5589 19.6005 27.9342 20.0625 27.9342C20.5247 27.9342 20.8984 27.5589 20.8984 27.0952V25.4175C20.8984 24.954 20.5245 24.5789 20.0625 24.5789Z" fill="black"/>
<path d="M20.0625 31.2896C19.6005 31.2896 19.2266 31.6646 19.2266 32.1284V33.806C19.2266 34.2696 19.6005 34.6449 20.0625 34.6449C20.5247 34.6449 20.8984 34.2696 20.8984 33.806V32.1284C20.8984 31.6646 20.5245 31.2896 20.0625 31.2896Z" fill="black"/>
<path d="M18.8803 27.2395L17.6985 26.0535C17.3719 25.7259 16.8429 25.7259 16.5164 26.0535C16.1899 26.3811 16.1899 26.9118 16.5164 27.2395L17.6985 28.4257C17.8617 28.5895 18.0755 28.6715 18.2894 28.6715C18.5032 28.6715 18.7171 28.5897 18.8803 28.4257C19.2068 28.0982 19.2068 27.5671 18.8803 27.2395Z" fill="black"/>
<path d="M23.6086 31.9846L22.4265 30.7984C22.1 30.4708 21.5709 30.4708 21.2444 30.7984C20.9179 31.126 20.9179 31.6569 21.2444 31.9846L22.4265 33.1708C22.5899 33.3346 22.8038 33.4164 23.0176 33.4164C23.2315 33.4164 23.4455 33.3346 23.6086 33.1708C23.9351 32.8431 23.9351 32.3122 23.6086 31.9846Z" fill="black"/>
<path d="M17.5547 28.7731H15.8828C15.4206 28.7731 15.0469 29.1481 15.0469 29.6119C15.0469 30.0755 15.4206 30.4507 15.8828 30.4507H17.5547C18.0166 30.4507 18.3906 30.0755 18.3906 29.6119C18.3906 29.1481 18.0166 28.7731 17.5547 28.7731Z" fill="black"/>
<path d="M24.2422 28.7731H22.5703C22.1083 28.7731 21.7344 29.1481 21.7344 29.6119C21.7344 30.0755 22.1083 30.4507 22.5703 30.4507H24.2422C24.7043 30.4507 25.0781 30.0755 25.0781 29.6119C25.0781 29.1481 24.7041 28.7731 24.2422 28.7731Z" fill="black"/>
<path d="M18.8803 30.7984C18.554 30.4708 18.025 30.4708 17.6985 30.7984L16.5164 31.9846C16.1899 32.312 16.1899 32.8431 16.5164 33.1708C16.6796 33.3346 16.8935 33.4164 17.1073 33.4164C17.3214 33.4164 17.5352 33.3346 17.6985 33.1708L18.8803 31.9846C19.2068 31.6569 19.2068 31.126 18.8803 30.7984Z" fill="black"/>
<path d="M23.6091 26.0535C23.2825 25.7259 22.7535 25.7259 22.427 26.0535L21.2449 27.2395C20.9184 27.5671 20.9184 28.098 21.2449 28.4257C21.4083 28.5895 21.6222 28.6715 21.836 28.6715C22.0499 28.6715 22.2637 28.5897 22.427 28.4257L23.6091 27.2395C23.9356 26.912 23.9356 26.3811 23.6091 26.0535Z" fill="black"/>
<path d="M85.2657 21.2236C80.6565 21.2236 76.9062 24.9867 76.9062 29.6118C76.9062 34.2367 80.6565 38 85.2657 38C89.8747 38 93.625 34.2367 93.625 29.6118C93.625 24.9867 89.8747 21.2236 85.2657 21.2236ZM85.2657 36.3224C81.579 36.3224 78.5781 33.313 78.5781 29.6118C78.5781 25.9123 81.579 22.9012 85.2657 22.9012C88.9522 22.9012 91.9531 25.9123 91.9531 29.6118C91.9531 33.3128 88.9522 36.3224 85.2657 36.3224Z" fill="black"/>
<path d="M85.3146 28.7731H85.2983C84.838 28.7731 84.4722 29.1481 84.4722 29.6119C84.4722 30.0755 84.8543 30.4507 85.3146 30.4507C85.7784 30.4507 86.1505 30.0755 86.1505 29.6119C86.1505 29.1481 85.7784 28.7731 85.3146 28.7731Z" fill="black"/>
<path d="M85.2658 24.5789C84.8036 24.5789 84.4297 24.954 84.4297 25.4175V27.0952C84.4297 27.5589 84.8036 27.9342 85.2658 27.9342C85.7278 27.9342 86.1015 27.5589 86.1015 27.0952V25.4175C86.1015 24.954 85.7278 24.5789 85.2658 24.5789Z" fill="black"/>
<path d="M85.2658 31.2896C84.8036 31.2896 84.4297 31.6646 84.4297 32.1284V33.806C84.4297 34.2696 84.8036 34.6449 85.2658 34.6449C85.7278 34.6449 86.1015 34.2696 86.1015 33.806V32.1284C86.1015 31.6646 85.7278 31.2896 85.2658 31.2896Z" fill="black"/>
<path d="M84.0835 27.2395L82.9014 26.0535C82.5749 25.7259 82.046 25.7259 81.7195 26.0535C81.393 26.3811 81.393 26.9118 81.7195 27.2395L82.9014 28.4257C83.0646 28.5895 83.2787 28.6715 83.4925 28.6715C83.7064 28.6715 83.9202 28.5897 84.0835 28.4257C84.41 28.0982 84.41 27.5671 84.0835 27.2395Z" fill="black"/>
<path d="M88.812 31.9846L87.6301 30.7984C87.3036 30.4708 86.7745 30.4708 86.448 30.7984C86.1215 31.126 86.1215 31.6569 86.448 31.9846L87.6301 33.1708C87.7931 33.3346 88.0072 33.4164 88.221 33.4164C88.4349 33.4164 88.6487 33.3346 88.812 33.1708C89.1385 32.8431 89.1385 32.3122 88.812 31.9846Z" fill="black"/>
<path d="M82.7578 28.7731H81.0859C80.624 28.7731 80.25 29.1481 80.25 29.6119C80.25 30.0755 80.624 30.4507 81.0859 30.4507H82.7578C83.2199 30.4507 83.5937 30.0755 83.5937 29.6119C83.5937 29.1481 83.2199 28.7731 82.7578 28.7731Z" fill="black"/>
<path d="M89.4451 28.7731H87.7732C87.3112 28.7731 86.9375 29.1481 86.9375 29.6119C86.9375 30.0755 87.3112 30.4507 87.7732 30.4507H89.4451C89.9072 30.4507 90.2812 30.0755 90.2812 29.6119C90.2812 29.1481 89.9072 28.7731 89.4451 28.7731Z" fill="black"/>
<path d="M84.0835 30.7984C83.757 30.4708 83.2279 30.4708 82.9014 30.7984L81.7195 31.9846C81.393 32.312 81.393 32.8431 81.7195 33.1708C81.8825 33.3346 82.0966 33.4164 82.3104 33.4164C82.5243 33.4164 82.7381 33.3346 82.9014 33.1708L84.0835 31.9846C84.41 31.6569 84.41 31.126 84.0835 30.7984Z" fill="black"/>
<path d="M88.812 26.0535C88.4857 25.7259 87.9566 25.7259 87.6301 26.0535L86.448 27.2395C86.1215 27.5671 86.1215 28.098 86.448 28.4257C86.6113 28.5895 86.8253 28.6715 87.0389 28.6715C87.253 28.6715 87.4668 28.5897 87.6301 28.4257L88.812 27.2395C89.1385 26.912 89.1385 26.3811 88.812 26.0535Z" fill="black"/>
<path d="M71.0545 11.1586H14.2109C13.7488 11.1586 13.375 11.5339 13.375 11.9974C13.375 12.461 13.7488 12.8362 14.2109 12.8362H71.0545C71.5165 12.8362 71.8905 12.461 71.8905 11.9974C71.8905 11.5339 71.5165 11.1586 71.0545 11.1586Z" fill="black"/>
<path d="M47.6484 2.77029C47.1865 2.77029 46.8125 3.14534 46.8125 3.60912V8.64203C46.8125 9.1056 47.1865 9.48085 47.6484 9.48085C48.1104 9.48085 48.4844 9.1056 48.4844 8.64203V3.60912C48.4844 3.14534 48.1104 2.77029 47.6484 2.77029Z" fill="black"/>
<path d="M25.9141 6.12561C25.4521 6.12561 25.0781 6.50087 25.0781 6.96443V8.64207C25.0781 9.10564 25.4521 9.48089 25.9141 9.48089C26.3762 9.48089 26.75 9.10564 26.75 8.64207V6.96443C26.75 6.50087 26.376 6.12561 25.9141 6.12561Z" fill="black"/>
<path d="M30.9296 16.1916H27.5859C27.124 16.1916 26.75 16.5668 26.75 17.0304C26.75 17.4942 27.124 17.8692 27.5859 17.8692H30.9296C31.3918 17.8692 31.7658 17.4942 31.7658 17.0304C31.7658 16.5668 31.3918 16.1916 30.9296 16.1916Z" fill="black"/>
<path d="M54.336 16.1916H50.9932C50.5312 16.1916 50.1572 16.5668 50.1572 17.0304C50.1572 17.4942 50.5312 17.8692 50.9932 17.8692H54.336C54.7982 17.8692 55.1719 17.4942 55.1719 17.0304C55.1719 16.5668 54.7982 16.1916 54.336 16.1916Z" fill="black"/>
<path d="M103.085 19.591L98.0695 17.9133C97.6287 17.7674 97.1586 18.0042 97.0116 18.4432C96.8661 18.8833 97.103 19.3586 97.5405 19.5041L102.556 21.182C102.644 21.2116 102.732 21.2246 102.821 21.2246C103.17 21.2246 103.497 21.0033 103.614 20.6519C103.76 20.2119 103.523 19.7368 103.085 19.591Z" fill="black"/>
<path d="M97.8047 16.1916C97.3427 16.1916 96.9688 16.5668 96.9688 17.0304V18.7081C96.9688 19.1718 97.3427 19.5469 97.8047 19.5469C98.2666 19.5469 98.6406 19.1718 98.6406 18.7081V17.0304C98.6406 16.5668 98.2666 16.1916 97.8047 16.1916Z" fill="black"/>
<path d="M106.164 27.8379C105.702 27.8379 105.328 28.2116 105.328 28.6738V32.0175C105.328 32.4795 105.702 32.8535 106.164 32.8535C106.626 32.8535 107 32.4795 107 32.0175V28.6738C107 28.2116 106.626 27.8379 106.164 27.8379Z" fill="black"/>
</svg>
