<svg width="68" height="90" viewBox="0 0 68 90" fill="none" xmlns="http://www.w3.org/2000/svg">
<rect x="14.1211" y="22.6797" width="2.8478" height="10.9109" transform="rotate(-135 14.1211 22.6797)" fill="#F8C800"/>
<rect x="21.8359" y="14.9648" width="2.8478" height="10.9109" transform="rotate(135 21.8359 14.9648)" fill="#F8C800"/>
<rect x="25.5977" y="22.6797" width="2.8478" height="10.9109" transform="rotate(-135 25.5977 22.6797)" fill="#F8C800"/>
<rect x="33.3125" y="14.9648" width="2.8478" height="10.9109" transform="rotate(135 33.3125 14.9648)" fill="#F8C800"/>
<rect x="37.0742" y="22.6797" width="2.8478" height="10.9109" transform="rotate(-135 37.0742 22.6797)" fill="#F8C800"/>
<rect x="44.7891" y="14.9648" width="2.8478" height="10.9109" transform="rotate(135 44.7891 14.9648)" fill="#F8C800"/>
<rect x="48.5508" y="22.6797" width="2.8478" height="10.9109" transform="rotate(-135 48.5508 22.6797)" fill="#F8C800"/>
<rect x="56.2656" y="14.9648" width="2.8478" height="10.9109" transform="rotate(135 56.2656 14.9648)" fill="#F8C800"/>
<rect x="59.4238" y="22.6797" width="2.8478" height="10.9109" transform="rotate(-135 59.4238 22.6797)" fill="#F8C800"/>
<rect x="67.1387" y="14.9648" width="2.8478" height="10.9109" transform="rotate(135 67.1387 14.9648)" fill="#F8C800"/>
<circle cx="15" cy="45" r="44.75" stroke="white" stroke-opacity="0.2" stroke-width="0.5"/>
<circle cx="15.2693" cy="44.7322" r="38.0135" stroke="white" stroke-opacity="0.2" stroke-width="0.5"/>
<circle cx="15.2691" cy="44.73" r="31.5464" stroke="white" stroke-opacity="0.2" stroke-width="0.5"/>
<circle cx="15.2687" cy="44.7315" r="25.6183" stroke="white" stroke-opacity="0.2" stroke-width="0.5"/>
<circle cx="14.9989" cy="45.0028" r="18.8817" stroke="white" stroke-opacity="0.2" stroke-width="0.5"/>
<circle cx="15.2699" cy="44.7309" r="13.2231" stroke="white" stroke-opacity="0.2" stroke-width="0.5"/>
<circle cx="14.9999" cy="45.0019" r="7.56437" stroke="white" stroke-opacity="0.2" stroke-width="0.5"/>
</svg>
