<svg width="161" height="161" viewBox="0 0 161 161" fill="none" xmlns="http://www.w3.org/2000/svg">
<circle cx="80.0311" cy="80.969" r="56.7629" transform="rotate(36.213 80.0311 80.969)" stroke="white" stroke-opacity="0.15"/>
<circle cx="80.5112" cy="80.8944" r="48.1906" transform="rotate(36.213 80.5112 80.8944)" stroke="white" stroke-opacity="0.15"/>
<circle cx="80.5107" cy="80.8968" r="39.9612" transform="rotate(36.213 80.5107 80.8968)" stroke="white" stroke-opacity="0.15"/>
<circle cx="80.5099" cy="80.8928" r="32.4176" transform="rotate(36.213 80.5099 80.8928)" stroke="white" stroke-opacity="0.15"/>
<circle cx="80.031" cy="80.9687" r="23.8453" transform="rotate(36.213 80.031 80.9687)" stroke="white" stroke-opacity="0.15"/>
<circle cx="80.5105" cy="80.8951" r="16.6446" transform="rotate(36.213 80.5105 80.8951)" stroke="white" stroke-opacity="0.15"/>
<circle cx="80.0311" cy="80.9719" r="9.44385" transform="rotate(36.213 80.0311 80.9719)" stroke="white" stroke-opacity="0.15"/>
<path d="M44.9529 24.0979L60.4694 12.1381L63.0686 31.5557L44.9529 24.0979Z" stroke="#F8C800" stroke-width="6"/>
<path d="M85.3659 47.1917L92.6924 33.4552L100.925 46.6684L85.3659 47.1917Z" fill="white"/>
</svg>
