<svg width="85" height="119" viewBox="0 0 85 119" fill="none" xmlns="http://www.w3.org/2000/svg">
<rect x="44.9277" y="17.9141" width="1.05216" height="32.0908" transform="rotate(49.0947 44.9277 17.9141)" fill="white" fill-opacity="0.15"/>
<rect x="54.7891" y="15.6348" width="1.05216" height="49.4513" transform="rotate(49.0947 54.7891 15.6348)" fill="white" fill-opacity="0.15"/>
<rect x="62.2617" y="15.4199" width="1.05216" height="61.0251" transform="rotate(49.0947 62.2617 15.4199)" fill="white" fill-opacity="0.15"/>
<rect x="68.543" y="16.2461" width="1.05216" height="69.4423" transform="rotate(49.0947 68.543 16.2461)" fill="white" fill-opacity="0.15"/>
<rect x="74.0293" y="17.7598" width="1.05216" height="76.2813" transform="rotate(49.0947 74.0293 17.7598)" fill="white" fill-opacity="0.15"/>
<rect x="78.7207" y="19.9551" width="1.05216" height="80.4899" transform="rotate(49.0947 78.7207 19.9551)" fill="white" fill-opacity="0.15"/>
<rect x="98.5156" y="40.3984" width="1.05216" height="83.6464" transform="rotate(49.0947 98.5156 40.3984)" fill="white" fill-opacity="0.15"/>
<rect x="100.422" y="45.0059" width="1.05216" height="80.4899" transform="rotate(49.0947 100.422 45.0059)" fill="white" fill-opacity="0.15"/>
<rect x="101.932" y="49.9668" width="1.05216" height="76.2813" transform="rotate(49.0947 101.932 49.9668)" fill="white" fill-opacity="0.15"/>
<rect x="102.992" y="56.0098" width="1.05216" height="69.4423" transform="rotate(49.0947 102.992 56.0098)" fill="white" fill-opacity="0.15"/>
<rect x="102.912" y="62.3418" width="1.05216" height="61.0251" transform="rotate(49.0947 102.912 62.3418)" fill="white" fill-opacity="0.15"/>
<rect x="101.639" y="69.707" width="1.05216" height="49.4513" transform="rotate(49.0947 101.639 69.707)" fill="white" fill-opacity="0.15"/>
<rect x="97.9785" y="79.1484" width="1.05216" height="32.0908" transform="rotate(49.0947 97.9785 79.1484)" fill="white" fill-opacity="0.15"/>
<rect x="83.0117" y="22.5039" width="1.05216" height="83.6464" transform="rotate(49.0947 83.0117 22.5039)" fill="white" fill-opacity="0.15"/>
<rect x="96.2109" y="36.1289" width="1.05216" height="85.7507" transform="rotate(49.0947 96.2109 36.1289)" fill="white" fill-opacity="0.15"/>
<rect x="86.9082" y="25.3926" width="1.05216" height="85.7507" transform="rotate(49.0947 86.9082 25.3926)" fill="white" fill-opacity="0.15"/>
<rect x="93.5078" y="32.209" width="1.05216" height="86.8029" transform="rotate(49.0947 93.5078 32.209)" fill="white" fill-opacity="0.15"/>
<rect x="90.4062" y="28.625" width="1.05216" height="86.8029" transform="rotate(49.0947 90.4062 28.625)" fill="white" fill-opacity="0.15"/>
<path d="M89.3962 27.6092C86.752 27.6092 86.752 23.8398 84.1078 23.8398C81.4636 23.8398 81.4636 27.6092 78.8194 27.6092C76.1752 27.6092 76.1752 23.8398 73.531 23.8398C70.8868 23.8398 70.8868 27.6092 68.2427 27.6092C65.5985 27.6092 65.5985 23.8398 62.9543 23.8398C60.3101 23.8398 60.3101 27.6092 57.6659 27.6092C55.0217 27.6092 55.0217 23.8398 52.3775 23.8398C49.7333 23.8398 49.7333 27.6092 47.0892 27.6092C44.445 27.6092 44.445 23.8398 41.8008 23.8398" stroke="#F8C800" stroke-width="2" stroke-miterlimit="10"/>
<path d="M38.7852 99.4577L18.78 88.5L38.7852 77.5423L38.7852 99.4577Z" stroke="white" stroke-width="6"/>
<path d="M50.5352 88L64.7852 79.3397L64.7852 96.6603L50.5352 88Z" fill="#F8C800"/>
</svg>
