<svg width="20" height="20" viewBox="0 0 20 20" fill="none" xmlns="http://www.w3.org/2000/svg">
<g clip-path="url(#clip0)">
<path d="M10.2947 19.8777L16.5447 13.6277C16.7075 13.465 16.7075 13.2013 16.5447 13.0386C16.382 12.8758 16.1183 12.8758 15.9555 13.0386L10.4168 18.5773L10.4168 0.416496C10.4168 0.186184 10.2304 -0.000183387 10.0001 -0.000183397C9.76981 -0.000183407 9.58344 0.186184 9.58344 0.416496L9.58344 18.5773L4.04473 13.0386C3.88196 12.8758 3.61828 12.8758 3.45555 13.0386C3.37418 13.1199 3.33348 13.2266 3.33348 13.3332C3.33348 13.4398 3.37418 13.5464 3.45555 13.6278L9.70555 19.8778C9.86828 20.0405 10.132 20.0405 10.2947 19.8777Z" fill="#1F181A"/>
</g>
<defs>
<clipPath id="clip0">
<rect width="20" height="20" fill="white" transform="translate(20) rotate(90)"/>
</clipPath>
</defs>
</svg>
