<svg width="30" height="30" viewBox="0 0 30 30" fill="none" xmlns="http://www.w3.org/2000/svg">
<path d="M14.9998 0.294128C12.0913 0.294128 9.24805 1.15661 6.82968 2.77252C4.41131 4.38842 2.52642 6.68516 1.41337 9.37231C0.300317 12.0595 0.00909168 15.0163 0.576521 17.869C1.14395 20.7216 2.54455 23.342 4.6012 25.3986C6.65786 27.4553 9.2782 28.8559 12.1309 29.4233C14.9835 29.9907 17.9404 29.6995 20.6275 28.5865C23.3147 27.4734 25.6114 25.5885 27.2273 23.1702C28.8432 20.7518 29.7057 17.9086 29.7057 15C29.7011 11.1012 28.1503 7.36335 25.3934 4.60646C22.6365 1.84957 18.8987 0.298728 14.9998 0.294128ZM19.9557 19.9559C19.705 20.2065 19.365 20.3473 19.0105 20.3473C18.656 20.3473 18.316 20.2065 18.0653 19.9559L14.0546 15.9452C13.8039 15.6945 13.663 15.3545 13.6629 15V6.97862C13.6629 6.62405 13.8038 6.28401 14.0545 6.03329C14.3052 5.78257 14.6453 5.64172 14.9998 5.64172C15.3544 5.64172 15.6944 5.78257 15.9452 6.03329C16.1959 6.28401 16.3367 6.62405 16.3367 6.97862V14.4465L19.9557 18.0655C20.2063 18.3162 20.3471 18.6562 20.3471 19.0107C20.3471 19.3652 20.2063 19.7052 19.9557 19.9559Z" fill="#0F2442"/>
</svg>
