<svg width="36" height="29" viewBox="0 0 36 29" fill="none" xmlns="http://www.w3.org/2000/svg">
<path d="M2.10487 20.8938L8.04519 26.8576C10.3463 29.1352 14.056 29.1352 16.3571 26.8576L28.2379 14.9768C28.684 14.5072 28.684 13.7559 28.2379 13.3098L15.6761 0.646404C15.4414 0.411528 15.1362 0.294128 14.8309 0.294128C14.5257 0.294128 14.2205 0.411528 14.0092 0.646404L7.71662 6.99371L16.2396 9.83469C16.8501 10.0226 17.1789 10.7034 16.9675 11.3139C16.7798 11.9244 16.1223 12.2532 15.4885 12.0418L5.88512 8.84862L2.10487 12.6053C-1.04143 15.7281 0.743034 19.5553 2.10487 20.8938Z" fill="#0F2442"/>
<path d="M2.1516 5.13875C1.54129 4.92751 0.860213 5.25615 0.672531 5.86662C0.461134 6.4771 0.78993 7.15809 1.40041 7.34585L5.88498 8.84864L7.71648 6.99373L2.1516 5.13875Z" fill="#0F2442"/>
<path d="M31.1258 26.2002C31.1258 27.4968 32.177 28.5482 33.4738 28.5482C34.7706 28.5482 35.8218 27.4968 35.8218 26.2002C35.8218 25.8515 35.8218 17.6377 35.8218 17.9822C35.8218 12.3176 31.3316 7.71724 25.7285 7.46405C25.7285 7.46405 29.9467 11.6957 30.0251 11.7742C30.7296 12.481 31.1258 13.4372 31.1258 14.4352V26.2002Z" fill="#0F2442"/>
</svg>
