<svg width="109" height="35" viewBox="0 0 109 35" fill="none" xmlns="http://www.w3.org/2000/svg">
<path d="M108.746 24.7525L107.271 23.259V18.3749C107.271 18.1426 107.181 17.9203 107.021 17.7562C106.805 17.5339 101.494 12.2943 79.5017 8.7909C77.9303 7.6794 66.5481 0 51.933 0C32.5271 0 20.8575 6.16094 19.3169 7.02476L4.16288 8.75502C3.73135 8.80447 3.40541 9.17883 3.40541 9.62496V11.0126L0.24952 14.2563C0.0417383 14.4698 -0.0438438 14.7783 0.0225781 15.0733C0.032584 15.1168 1.02849 19.5405 1.71442 23.7686C2.48168 28.4988 7.05457 29.7496 9.36507 29.7496C9.83556 29.7496 10.2164 29.3587 10.2164 28.8749C10.2164 28.3911 9.83556 27.9997 9.36507 27.9997C9.15154 27.9997 4.11817 27.9485 3.39391 23.4815C2.83103 20.0124 2.06292 16.4184 1.78595 15.152L4.85924 11.9937C5.0187 11.8296 5.10854 11.6075 5.10854 11.3751V10.4087L19.6756 8.74495C19.7912 8.73117 19.9025 8.69376 20.0032 8.63468C20.1212 8.56641 31.9964 1.75017 51.9334 1.75017C66.7915 1.75017 78.5641 10.2514 78.6823 10.3378C78.7902 10.4164 78.9166 10.4693 79.0463 10.4899C97.9625 13.4806 104.311 17.7844 105.568 18.7824V23.625C105.568 23.8594 105.661 24.0832 105.823 24.2469L106.935 25.375L105.823 26.5027C105.488 26.8412 105.485 27.3949 105.814 27.7398C106.144 28.085 106.682 28.0883 107.018 27.7465L108.746 25.9966C108.907 25.8329 109 25.6091 109 25.3748C109 25.1404 108.907 24.9166 108.746 24.7525Z" fill="black"/>
<path d="M9.83736 14.1471L4.72926 10.6469C4.33499 10.3778 3.80894 10.4872 3.54857 10.8896C3.28757 11.2922 3.39295 11.8346 3.78467 12.103L8.89276 15.6029C9.03817 15.7021 9.20209 15.75 9.3641 15.75C9.63916 15.75 9.90953 15.6132 10.0735 15.3603C10.3345 14.9579 10.2289 14.4153 9.83736 14.1471Z" fill="black"/>
<path d="M9.36506 14.0001H0.85135C0.380861 14.0001 0 14.3916 0 14.8751C0 15.3586 0.380861 15.7501 0.85135 15.7501H9.36506C9.83555 15.7501 10.2164 15.3586 10.2164 14.8751C10.2164 14.3916 9.83555 14.0001 9.36506 14.0001Z" fill="black"/>
<path d="M44.1891 6.57174L42.4864 2.85653C42.2861 2.41915 41.7773 2.22836 41.3541 2.43775C40.9285 2.64386 40.7463 3.16504 40.9466 3.60154L42.6495 7.31675C42.7941 7.63379 43.1 7.81933 43.4202 7.81933C43.5415 7.81933 43.6646 7.79286 43.7817 7.73553C44.2075 7.52964 44.3895 7.00846 44.1891 6.57174Z" fill="black"/>
<path d="M48.5273 14.0001H45.1219C44.6514 14.0001 44.2705 14.3916 44.2705 14.8751C44.2705 15.3586 44.6514 15.7501 45.1219 15.7501H48.5273C48.998 15.7501 49.3786 15.3586 49.3786 14.8751C49.3786 14.3916 48.9977 14.0001 48.5273 14.0001Z" fill="black"/>
<path d="M19.6321 24.4995H19.6155C19.145 24.4995 18.7725 24.8909 18.7725 25.3746C18.7725 25.8584 19.1623 26.2494 19.6321 26.2494C20.1026 26.2494 20.4835 25.8584 20.4835 25.3746C20.4835 24.8909 20.1026 24.4995 19.6321 24.4995Z" fill="black"/>
<path d="M19.5814 15.7505C14.4175 15.7505 10.2163 20.0676 10.2163 25.3755C10.2163 30.6833 14.4175 35 19.5814 35C24.745 35 28.9462 30.6835 28.9462 25.3755C28.9462 20.0674 24.7452 15.7505 19.5814 15.7505ZM19.5814 33.25C15.3563 33.25 11.9192 29.7177 11.9192 25.3755C11.9192 21.0327 15.3561 17.5004 19.5814 17.5004C23.8064 17.5004 27.2435 21.033 27.2435 25.3755C27.2435 29.7175 23.8064 33.25 19.5814 33.25Z" fill="black"/>
<path d="M19.5818 19.2503C19.1113 19.2503 18.7305 19.6417 18.7305 20.1255V21.8755C18.7305 22.3588 19.1113 22.7502 19.5818 22.7502C20.0523 22.7502 20.4332 22.3588 20.4332 21.8755V20.1255C20.4332 19.6417 20.0523 19.2503 19.5818 19.2503Z" fill="black"/>
<path d="M19.5818 28.0002C19.1113 28.0002 18.7305 28.3917 18.7305 28.8754V30.6254C18.7305 31.1092 19.1113 31.5001 19.5818 31.5001C20.0523 31.5001 20.4332 31.1092 20.4332 30.6254V28.8754C20.4332 28.3917 20.0523 28.0002 19.5818 28.0002Z" fill="black"/>
<path d="M16.1761 24.4995H14.4734C14.0027 24.4995 13.6221 24.8909 13.6221 25.3746C13.6221 25.8584 14.0027 26.2494 14.4734 26.2494H16.1761C16.6466 26.2494 17.0275 25.8584 17.0275 25.3746C17.0275 24.8909 16.6466 24.4995 16.1761 24.4995Z" fill="black"/>
<path d="M24.6898 24.4995H22.9871C22.5166 24.4995 22.1357 24.8909 22.1357 25.3746C22.1357 25.8584 22.5166 26.2494 22.9871 26.2494H24.6898C25.1603 26.2494 25.5411 25.8584 25.5411 25.3746C25.5411 24.8909 25.1603 24.4995 24.6898 24.4995Z" fill="black"/>
<path d="M17.7756 22.2818L16.5717 21.0442C16.2394 20.7025 15.7006 20.7025 15.3681 21.0442C15.0355 21.386 15.0355 21.94 15.3681 22.2818L16.5717 23.5188C16.738 23.6897 16.956 23.7753 17.1738 23.7753C17.3916 23.7753 17.6094 23.6897 17.7756 23.5188C18.1082 23.1771 18.1082 22.6233 17.7756 22.2818Z" fill="black"/>
<path d="M23.7949 28.4679L22.591 27.2308C22.2585 26.889 21.7196 26.889 21.3871 27.2308C21.0546 27.5726 21.0546 28.1261 21.3871 28.4679L22.591 29.705C22.7573 29.8759 22.9753 29.9614 23.193 29.9614C23.4108 29.9614 23.6286 29.8759 23.7949 29.705C24.1274 29.3637 24.1274 28.8097 23.7949 28.4679Z" fill="black"/>
<path d="M17.7756 27.2308C17.4431 26.889 16.9043 26.889 16.5717 27.2308L15.3681 28.4679C15.0355 28.8097 15.0355 29.3634 15.3681 29.705C15.5343 29.8759 15.7521 29.9614 15.9699 29.9614C16.1877 29.9614 16.4055 29.8759 16.5717 29.705L17.7756 28.4679C18.1082 28.1261 18.1082 27.5726 17.7756 27.2308Z" fill="black"/>
<path d="M23.7949 21.0442C23.4624 20.7025 22.9235 20.7025 22.591 21.0442L21.3871 22.2818C21.0546 22.6231 21.0546 23.1771 21.3871 23.5188C21.5534 23.6897 21.7712 23.7753 21.9889 23.7753C22.2069 23.7753 22.4247 23.6897 22.591 23.5188L23.7949 22.2818C24.1274 21.94 24.1274 21.386 23.7949 21.0442Z" fill="black"/>
<path d="M86.0384 24.4995H86.0218C85.5513 24.4995 85.1787 24.8909 85.1787 25.3746C85.1787 25.8584 85.5679 26.2494 86.0384 26.2494C86.5091 26.2494 86.8897 25.8584 86.8897 25.3746C86.8897 24.8909 86.5091 24.4995 86.0384 24.4995Z" fill="black"/>
<path d="M85.9864 15.7505C80.8234 15.7505 76.6216 20.0676 76.6216 25.3755C76.6216 30.6833 80.8234 35 85.9864 35C91.1511 35 95.3515 30.6835 95.3515 25.3755C95.3515 20.0674 91.1511 15.7505 85.9864 15.7505ZM85.9864 33.25C81.7629 33.25 78.3243 29.7177 78.3243 25.3755C78.3243 21.0327 81.7629 17.5004 85.9864 17.5004C90.2136 17.5004 93.649 21.033 93.6488 25.3755C93.6488 29.7175 90.2134 33.25 85.9864 33.25Z" fill="black"/>
<path d="M85.9866 19.2503C85.5178 19.2503 85.1353 19.6417 85.1353 20.1255V21.8755C85.1353 22.3588 85.5178 22.7502 85.9866 22.7502C86.459 22.7502 86.8382 22.3588 86.8382 21.8755V20.1255C86.8382 19.6417 86.459 19.2503 85.9866 19.2503Z" fill="black"/>
<path d="M85.9866 28.0002C85.5178 28.0002 85.1353 28.3917 85.1353 28.8754V30.6254C85.1353 31.1092 85.5178 31.5001 85.9866 31.5001C86.459 31.5001 86.8382 31.1092 86.8382 30.6254V28.8754C86.8382 28.3917 86.459 28.0002 85.9866 28.0002Z" fill="black"/>
<path d="M82.5814 24.4995H80.8787C80.4099 24.4995 80.0273 24.8909 80.0273 25.3746C80.0273 25.8584 80.4099 26.2494 80.8787 26.2494H82.5814C83.0538 26.2494 83.4327 25.8584 83.4327 25.3746C83.4327 24.8909 83.0538 24.4995 82.5814 24.4995Z" fill="black"/>
<path d="M91.0949 24.4995H89.3922C88.9234 24.4995 88.541 24.8909 88.541 25.3746C88.541 25.8584 88.9234 26.2494 89.3922 26.2494H91.0949C91.567 26.2494 91.9464 25.8584 91.9464 25.3746C91.9464 24.8909 91.5673 24.4995 91.0949 24.4995Z" fill="black"/>
<path d="M84.1809 22.2818L82.9772 21.0442C82.6447 20.7025 82.1059 20.7025 81.7733 21.0442C81.4408 21.386 81.4408 21.94 81.7733 22.2818L82.9772 23.5188C83.1435 23.6897 83.3628 23.7753 83.5791 23.7753C83.7986 23.7753 84.0146 23.6897 84.1809 23.5188C84.5134 23.1771 84.5134 22.6233 84.1809 22.2818Z" fill="black"/>
<path d="M90.2002 28.4679L88.9963 27.2308C88.6637 26.889 88.1249 26.889 87.7924 27.2308C87.4598 27.5726 87.4598 28.1261 87.7924 28.4679L88.9963 29.705C89.1625 29.8759 89.3818 29.9614 89.5981 29.9614C89.8176 29.9614 90.0339 29.8759 90.2002 29.705C90.5327 29.3637 90.5327 28.8097 90.2002 28.4679Z" fill="black"/>
<path d="M84.1809 27.2308C83.8486 26.889 83.3098 26.889 82.9772 27.2308L81.7733 28.4679C81.4408 28.8097 81.4408 29.3634 81.7733 29.705C81.9396 29.8759 82.1591 29.9614 82.3752 29.9614C82.5947 29.9614 82.8107 29.8759 82.9772 29.705L84.1809 28.4679C84.5134 28.1261 84.5134 27.5726 84.1809 27.2308Z" fill="black"/>
<path d="M90.2002 21.0442C89.8676 20.7025 89.3288 20.7025 88.9963 21.0442L87.7924 22.2818C87.4598 22.6231 87.4598 23.1771 87.7924 23.5188C87.9586 23.6897 88.1781 23.7753 88.3944 23.7753C88.6139 23.7753 88.83 23.6897 88.9963 23.5188L90.2002 22.2818C90.5327 21.94 90.5327 21.386 90.2002 21.0442Z" fill="black"/>
<path d="M75.7703 8.75055C34.2406 8.75055 28.9488 5.66242 28.6403 5.45391C28.3069 5.16509 27.8073 5.18391 27.4931 5.50686C27.1605 5.84862 27.1605 6.4024 27.4931 6.74416C27.8673 7.12859 32.4 10.5005 75.7705 10.5005C76.2429 10.5005 76.6218 10.1091 76.6216 9.62552C76.6216 9.14176 76.2427 8.75055 75.7703 8.75055Z" fill="black"/>
<path d="M75.7703 28.0002H29.7976C29.3271 28.0002 28.9463 28.3917 28.9463 28.8754C28.9463 29.3592 29.3271 29.7502 29.7976 29.7502H75.7703C76.2427 29.7502 76.6217 29.3592 76.6217 28.8754C76.6217 28.3917 76.2427 28.0002 75.7703 28.0002Z" fill="black"/>
<path d="M108.148 28.0002H96.2029C95.7339 28.0002 95.3516 28.3917 95.3516 28.8754C95.3516 29.3592 95.7339 29.7502 96.2029 29.7502H108.148C108.617 29.7502 109 29.3592 109 28.8754C109 28.3917 108.617 28.0002 108.148 28.0002Z" fill="black"/>
<path d="M106.689 19.2948L101.581 17.5458C101.132 17.3937 100.653 17.6407 100.505 18.0987C100.357 18.5577 100.596 19.0531 101.042 19.2051L106.15 20.956C106.24 20.9868 106.331 21.0004 106.419 21.0004C106.777 21.0004 107.108 20.768 107.227 20.4024C107.377 19.9445 107.134 19.4487 106.689 19.2948Z" fill="black"/>
<path d="M101.311 14.532C100.843 14.532 100.46 14.9235 100.46 15.407V18.3757C100.46 18.859 100.843 19.2504 101.311 19.2504C101.784 19.2504 102.163 18.859 102.163 18.3757V15.407C102.163 14.9235 101.784 14.532 101.311 14.532Z" fill="black"/>
</svg>
