<svg width="62" height="49" viewBox="0 0 62 49" fill="none" xmlns="http://www.w3.org/2000/svg">
<path d="M61.8015 33.7866L60.6385 38.2289C60.3284 39.3012 59.7857 40.2203 58.9329 40.9862C58.7003 41.216 58.3901 41.4457 58.08 41.6755L56.6845 46.6539C56.6069 47.0369 56.3744 47.4199 56.1418 47.7262C55.3665 48.7219 54.126 49.1049 52.8855 48.7985L49.8618 48.0326C48.2337 47.573 47.2258 45.888 47.691 44.2796L48.4663 41.2926L24.5094 34.9355L23.7341 37.9225C23.2689 39.531 21.5633 40.5266 19.9352 40.0671L16.9115 39.3012C15.671 38.9948 14.8182 37.9225 14.6631 36.7737C14.5856 36.3907 14.6631 35.9312 14.7406 35.5482L16.0586 30.5698C15.9036 30.2634 15.7485 29.8805 15.671 29.5741C15.3609 28.5018 15.3609 27.353 15.5935 26.2807L16.7564 21.8384C17.2216 20.0002 18.5396 18.545 20.3228 17.7791C20.8655 17.5493 21.4858 17.3961 22.106 17.3195L23.8892 15.0218L26.9904 10.8858C27.3005 10.4263 27.6882 10.0433 28.0758 9.66039C28.8511 8.89447 29.704 8.28174 30.6343 7.8222C31.0995 7.59242 31.5647 7.36265 32.1074 7.20947C33.1153 6.9031 34.1232 6.67333 35.2086 6.67333C36.294 6.59674 37.3794 6.74992 38.4649 7.05628L50.327 10.1965C51.4124 10.5029 52.4203 10.8858 53.3507 11.422C56.1418 13.107 57.925 16.0175 58.3126 19.2343L58.9329 24.3659L59.243 27.2764C60.2509 27.9657 61.0262 28.9614 61.4138 30.1102C62.1116 31.2591 62.1116 32.5612 61.8015 33.7866ZM24.8196 22.3745C23.269 21.8384 21.6408 22.6809 21.0981 24.2127C21.0981 24.2893 21.0206 24.4425 21.0206 24.5191C20.4779 26.0509 21.3307 27.6593 22.8813 28.1955C22.9588 28.1955 23.1139 28.2721 23.1914 28.2721C24.9746 28.7316 27.6106 29.7273 28.0758 27.9657C28.541 26.2041 26.6027 22.8341 24.8196 22.3745ZM52.963 25.0552L52.3428 19.9236C52.2653 19.4641 52.1102 19.0045 51.9551 18.6216C51.4124 17.3195 50.2495 16.4004 48.9315 16.094L36.9918 12.9538C35.1311 12.4943 33.1928 13.107 32.0299 14.6388L28.9287 18.7747L45.5977 23.217L52.963 25.0552ZM54.7462 30.2634C52.963 29.8039 49.5517 31.7187 49.0865 33.4803C48.6213 35.2419 51.4124 35.7014 53.1956 36.161C54.8237 36.7737 56.6069 35.9312 57.1497 34.3228C57.6924 32.7143 56.9171 30.9527 55.2889 30.4166C55.1339 30.34 54.9013 30.34 54.7462 30.2634Z" fill="#0F2442"/>
<path d="M13.8878 21.0724L12.6474 25.5147C12.3372 26.587 12.2597 27.7358 12.4148 28.8081L9.00343 31.5654C8.61578 31.8717 8.07307 31.7951 7.76295 31.4122C7.60789 31.1824 7.53036 30.9526 7.60789 30.7229L9.08096 23.3701C9.15849 22.9106 8.84837 22.451 8.38319 22.3744H8.30566L0.78523 21.6851C0.320049 21.6085 -0.067602 21.2256 0.00992818 20.766C0.00992818 20.5362 0.164989 20.3065 0.397579 20.1533L6.67753 16.0174C7.06518 15.711 7.22024 15.1749 6.91012 14.7919C6.91012 14.7919 6.91012 14.7153 6.83259 14.7153L2.02571 8.97098C1.71559 8.58802 1.79312 8.05188 2.18077 7.74552C2.41336 7.59234 2.64595 7.51574 2.87855 7.59234L10.3214 9.04757C10.7866 9.12416 11.2518 8.81779 11.3293 8.35825V8.28166L12.0271 0.77572C12.1046 0.316173 12.4923 -0.0667833 12.9575 0.00980793C13.1901 0.00980793 13.4227 0.16299 13.5777 0.392764L17.7643 6.59665C17.9969 6.97961 18.5396 7.13279 19.0048 6.82642C19.0048 6.82642 19.0824 6.82642 19.0824 6.74983L24.8971 2.00118C25.2848 1.69481 25.8275 1.7714 26.1376 2.15436C26.2927 2.38413 26.3702 2.61391 26.2927 2.84368L25.2072 8.20506C24.9747 8.51143 24.6645 8.81779 24.4319 9.12416L21.3307 13.2601L20.3228 14.6387C17.2992 15.4046 14.7407 17.9321 13.8878 21.0724Z" fill="#E02C22"/>
</svg>
