<svg width="30" height="40" viewBox="0 0 30 40" fill="none" xmlns="http://www.w3.org/2000/svg">
<path d="M3.68761 39.1176H26.312C28.1834 39.1176 29.7057 37.6102 29.7057 35.7571V12.0841H21.7872C19.9158 12.0841 18.3935 10.5766 18.3935 8.72358V0.882355H3.68761C1.81627 0.882355 0.293945 2.38981 0.293945 4.24288V35.7571C0.293945 37.6102 1.81627 39.1176 3.68761 39.1176ZM8.2125 16.6395H21.7872C22.4124 16.6395 22.9184 17.1405 22.9184 17.7597C22.9184 18.3788 22.4124 18.8798 21.7872 18.8798H8.2125C7.58723 18.8798 7.08128 18.3788 7.08128 17.7597C7.08128 17.1405 7.58723 16.6395 8.2125 16.6395ZM8.2125 21.1202H21.7872C22.4124 21.1202 22.9184 21.6212 22.9184 22.2403C22.9184 22.8595 22.4124 23.3605 21.7872 23.3605H8.2125C7.58723 23.3605 7.08128 22.8595 7.08128 22.2403C7.08128 21.6212 7.58723 21.1202 8.2125 21.1202ZM8.2125 25.6009H21.7872C22.4124 25.6009 22.9184 26.1019 22.9184 26.721C22.9184 27.3402 22.4124 27.8412 21.7872 27.8412H8.2125C7.58723 27.8412 7.08128 27.3402 7.08128 26.721C7.08128 26.1019 7.58723 25.6009 8.2125 25.6009ZM8.2125 30.0816H17.2623C17.8875 30.0816 18.3935 30.5826 18.3935 31.2017C18.3935 31.8209 17.8875 32.3219 17.2623 32.3219H8.2125C7.58723 32.3219 7.08128 31.8209 7.08128 31.2017C7.08128 30.5826 7.58723 30.0816 8.2125 30.0816Z" fill="#0F2442"/>
</svg>
