<svg width="24" height="28" viewBox="0 0 24 28" fill="none" xmlns="http://www.w3.org/2000/svg">
<path d="M18.7941 8.52935H22.6764C23.2103 8.52935 23.647 8.09259 23.647 7.55877V1.73524C23.647 1.20141 23.2103 0.764648 22.6764 0.764648L18.7941 0.764648C18.2603 0.764648 17.8235 1.20141 17.8235 1.73524V3.67641L14.737 3.67641C14.3294 2.55053 13.2617 1.73524 12 1.73524C10.7382 1.73524 9.67055 2.55053 9.26291 3.67641H6.17643V1.73524C6.17643 1.20141 5.73967 0.764648 5.20585 0.764648L1.32349 0.764648C0.78967 0.764648 0.352905 1.20141 0.352905 1.73524L0.352905 7.55877C0.352905 8.09259 0.78967 8.52935 1.32349 8.52935H5.20585C5.73967 8.52935 6.17643 8.09259 6.17643 7.55877V5.61759H9.26291C9.55408 6.44259 10.2044 7.08318 11.0294 7.38406L11.0294 21.3314C10.2044 21.6226 9.56379 22.2729 9.26291 23.0979H6.17643V21.1567C6.17643 20.6229 5.73967 20.1861 5.20585 20.1861H1.32349C0.78967 20.1861 0.352905 20.6229 0.352905 21.1567L0.352905 26.9802C0.352905 27.5141 0.78967 27.9508 1.32349 27.9508H5.20585C5.73967 27.9508 6.17643 27.5141 6.17643 26.9802L6.17643 25.0391H9.26291C9.66085 26.1649 10.7285 26.9802 12 26.9802C13.2714 26.9802 14.3294 26.1649 14.737 25.0391L17.8235 25.0391V26.9802C17.8235 27.5141 18.2603 27.9508 18.7941 27.9508H22.6764C23.2103 27.9508 23.647 27.5141 23.647 26.9802V21.1567C23.647 20.6229 23.2103 20.1861 22.6764 20.1861H18.7941C18.2603 20.1861 17.8235 20.6229 17.8235 21.1567V23.0979L14.737 23.0979C14.4458 22.2729 13.7956 21.6323 12.9706 21.3314L12.9706 7.38406C13.7956 7.09288 14.4361 6.44259 14.737 5.61759H17.8235V7.55877C17.8235 8.09259 18.2603 8.52935 18.7941 8.52935ZM12 25.0294C11.4661 25.0294 11.0294 24.5926 11.0294 24.0588C11.0294 23.5249 11.4661 23.0882 12 23.0882C12.5338 23.0882 12.9706 23.5249 12.9706 24.0588C12.9706 24.5926 12.5338 25.0294 12 25.0294ZM12 5.61759C11.4661 5.61759 11.0294 5.18082 11.0294 4.647C11.0294 4.11318 11.4661 3.67641 12 3.67641C12.5338 3.67641 12.9706 4.11318 12.9706 4.647C12.9706 5.18082 12.5338 5.61759 12 5.61759Z" fill="#0F2442"/>
</svg>
