<svg width="19" height="21" viewBox="0 0 19 21" fill="none" xmlns="http://www.w3.org/2000/svg">
<path d="M18.9072 9.90255L18.2739 9.20255C18.2145 9.13692 18.134 9.1 18.05 9.1H17.1C16.9251 9.1 16.7833 9.25671 16.7833 9.45V11.2H16.15V8.75C16.15 8.55671 16.0082 8.4 15.8333 8.4H13.7861L12.6144 6.45575C12.5555 6.3581 12.4562 6.29965 12.35 6.3H10.45V5.6H12.6667C12.8415 5.6 12.9833 5.44329 12.9833 5.25V3.85C12.9833 3.65671 12.8415 3.5 12.6667 3.5H6.33333C6.15845 3.5 6.01667 3.65671 6.01667 3.85V5.25C6.01667 5.44329 6.15845 5.6 6.33333 5.6H8.55V6.3H6.65C6.54415 6.3 6.44527 6.35841 6.38653 6.45575L5.21392 8.4H3.48333C3.30845 8.4 3.16667 8.55671 3.16667 8.75V10.85H2.53333V8.75C2.53333 8.55671 2.39155 8.4 2.21667 8.4H0.95C0.844154 8.4 0.745275 8.45841 0.686533 8.55575L0.0532 9.60575C0.0186042 9.66332 0.00011875 9.73087 0 9.8V10.85C0.00011875 10.9191 0.0186042 10.9867 0.0532 11.0442L0.633333 12.005V15.05C0.633333 15.2433 0.775121 15.4 0.95 15.4H2.21667C2.39155 15.4 2.53333 15.2433 2.53333 15.05V12.95H3.16667V15.05C3.16667 15.2433 3.30845 15.4 3.48333 15.4H5.21392L6.38558 17.3442C6.44452 17.4419 6.5438 17.5003 6.65 17.5H15.8333C16.0082 17.5 16.15 17.3433 16.15 17.15V14H16.7833V16.45C16.7833 16.6433 16.9251 16.8 17.1 16.8H18.05C18.134 16.8 18.2145 16.7631 18.2739 16.6974L18.9072 15.9974C18.9666 15.9318 19 15.8428 19 15.75V10.15C19 10.0572 18.9666 9.96817 18.9072 9.90255ZM1.9 11.2V14.7H1.26667V11.9C1.26655 11.8309 1.24806 11.7633 1.21347 11.7057L0.633333 10.745V9.905L1.11942 9.1H1.9V11.2ZM3.16667 12.25H2.53333V11.55H3.16667V12.25ZM6.65 4.9V4.2H12.35V4.9H6.65ZM9.81667 5.6V6.3H9.18333V5.6H9.81667ZM14.25 16.8H6.81942L5.64775 14.8557C5.58881 14.7581 5.48954 14.6996 5.38333 14.7H3.8V9.1H5.38333C5.48918 9.1 5.58806 9.04159 5.6468 8.94425L6.81942 7H12.1806L13.3523 8.94425C13.4112 9.0419 13.5105 9.10035 13.6167 9.1H14.25V16.8V16.8ZM15.5167 11.55V16.8H14.8833V9.1H15.5167V11.55ZM16.7833 13.3H16.15V11.9H16.7833V13.3ZM18.3667 15.6051L17.9189 16.1H17.4167V9.8H17.9189L18.3667 10.2949V15.6051Z" fill="black" fill-opacity="0.7"/>
<path d="M12.2667 11.3135C12.2067 11.2412 12.122 11.2 12.0333 11.2H10.5282L11.0757 8.47599C11.1136 8.2873 11.006 8.10035 10.8352 8.0584C10.7343 8.03359 10.6288 8.06483 10.5525 8.14209L6.75253 11.9921C6.62365 12.1227 6.61498 12.3441 6.73318 12.4866C6.79319 12.5589 6.87785 12.6 6.9666 12.6H8.47172L7.9242 15.3241C7.88628 15.5128 7.99391 15.6997 8.16463 15.7417C8.26557 15.7665 8.3711 15.7353 8.44733 15.658L12.2473 11.808C12.3762 11.6774 12.3849 11.4559 12.2667 11.3135ZM8.76052 14.391L9.17567 12.326C9.21363 12.1373 9.106 11.9503 8.93528 11.9084C8.91271 11.9028 8.88972 11.9 8.8666 11.9H7.78075L10.2393 9.40909L9.8242 11.4741C9.78624 11.6628 9.89387 11.8498 10.0646 11.8917C10.0872 11.8972 10.1101 11.9 10.1333 11.9H11.2191L8.76052 14.391Z" fill="black" fill-opacity="0.7"/>
<path d="M5.06693 11.2H4.43359V13.9999H5.06693V11.2Z" fill="black" fill-opacity="0.7"/>
<path d="M5.06693 9.80005H4.43359V10.5H5.06693V9.80005Z" fill="black" fill-opacity="0.7"/>
</svg>
