<svg width="35" height="26" viewBox="0 0 35 26" fill="none" xmlns="http://www.w3.org/2000/svg">
<path d="M31.1838 6.12501H29.9706C29.3008 6.12501 28.7573 6.66854 28.7573 7.33825V10.978H25.1176V8.55149C25.1176 7.21086 24.0318 6.12501 22.6911 6.12501H17.8382V3.69854H22.6911C23.3608 3.69854 23.9044 3.15501 23.9044 2.48531V1.27207C23.9044 0.602367 23.3608 0.0588379 22.6911 0.0588379H9.34555C8.67585 0.0588379 8.13232 0.602367 8.13232 1.27207V2.48531C8.13232 3.15501 8.67585 3.69854 9.34555 3.69854H14.1985V6.12501H9.34555C8.00493 6.12501 6.91908 7.21086 6.91908 8.55149V13.4044H4.49261V9.76472C4.49261 9.09501 3.94908 8.55149 3.27938 8.55149H2.06614C1.39643 8.55149 0.852905 9.09501 0.852905 9.76472V20.6838C0.852905 21.3535 1.39643 21.8971 2.06614 21.8971H3.27938C3.94908 21.8971 4.49261 21.3535 4.49261 20.6838V17.0441H6.91908V20.1888C6.91908 20.8889 7.22118 21.5537 7.74772 22.0148L11.0865 24.9362C11.5282 25.3232 12.096 25.5368 12.6832 25.5368H22.6911C24.0318 25.5368 25.1176 24.4509 25.1176 23.1103V19.4706H28.7573V23.1103C28.7573 23.78 29.3008 24.3235 29.9706 24.3235H31.1838C33.1941 24.3235 34.8235 22.6942 34.8235 20.6838V9.76472C34.8235 7.75439 33.1941 6.12501 31.1838 6.12501ZM20.0608 16.5042L17.6344 20.1439C17.2619 20.702 16.625 20.6838 16.625 20.6838V17.0441H14.1985C13.7508 17.0441 13.3395 16.7978 13.1284 16.4035C12.9173 16.0092 12.9404 15.53 13.1891 15.1588L15.6156 11.5191C15.9868 10.9598 16.625 10.978 16.625 10.978V14.6177H19.0514C19.4991 14.6177 19.9104 14.8639 20.1215 15.2583C20.3326 15.6526 20.3096 16.1318 20.0608 16.5042Z" fill="#0F2442"/>
</svg>
