<svg width="24" height="18" viewBox="0 0 24 18" fill="none" xmlns="http://www.w3.org/2000/svg">
<path d="M0.75 3.75512H7.43036C7.76593 5.04909 8.93427 6.01171 10.333 6.01171C11.7318 6.01171 12.9001 5.04909 13.2357 3.75512H23.25C23.6641 3.75512 24 3.41951 24 3.00585C24 2.5922 23.6641 2.25659 23.25 2.25659H13.2357C12.9001 0.962622 11.7318 0 10.333 0C8.93427 0 7.76593 0.962622 7.43036 2.25659H0.75C0.335938 2.25659 0 2.5922 0 3.00585C0 3.41951 0.335938 3.75512 0.75 3.75512ZM10.333 1.49854C11.165 1.49854 11.8418 2.17463 11.8418 3.00585C11.8418 3.83707 11.165 4.51317 10.333 4.51317C9.50098 4.51317 8.82422 3.83707 8.82422 3.00585C8.82422 2.17463 9.50098 1.49854 10.333 1.49854Z" fill="white"/>
<path d="M23.25 8.25073H21.6439C21.3083 6.95676 20.14 5.99414 18.7412 5.99414C17.3425 5.99414 16.1741 6.95676 15.8386 8.25073H0.75C0.335938 8.25073 0 8.58634 0 8.99999C0 9.41365 0.335938 9.74926 0.75 9.74926H15.8386C16.1741 11.0432 17.3425 12.0058 18.7412 12.0058C20.14 12.0058 21.3083 11.0432 21.6439 9.74926H23.25C23.6641 9.74926 24 9.41365 24 8.99999C24 8.58634 23.6641 8.25073 23.25 8.25073ZM18.7412 10.5073C17.9092 10.5073 17.2324 9.83121 17.2324 8.99999C17.2324 8.16877 17.9092 7.49268 18.7412 7.49268C19.5732 7.49268 20.25 8.16877 20.25 8.99999C20.25 9.83121 19.5732 10.5073 18.7412 10.5073Z" fill="white"/>
<path d="M23.25 14.2449H8.71814C8.38263 12.9509 7.21436 11.9883 5.81641 11.9883C4.41766 11.9883 3.24933 12.9509 2.91376 14.2449H0.75C0.335938 14.2449 0 14.5805 0 14.9941C0 15.4078 0.335938 15.7434 0.75 15.7434H2.91376C3.24933 17.0374 4.41766 18 5.81641 18C7.21436 18 8.38263 17.0374 8.71814 15.7434H23.25C23.6641 15.7434 24 15.4078 24 14.9941C24 14.5805 23.6641 14.2449 23.25 14.2449ZM5.81641 16.5015C4.98438 16.5015 4.30762 15.8254 4.30762 14.9941C4.30762 14.1629 4.98438 13.4868 5.81641 13.4868C6.64746 13.4868 7.32422 14.1629 7.32422 14.9941C7.32422 15.8254 6.64746 16.5015 5.81641 16.5015Z" fill="white"/>
</svg>
