<svg width="25" height="32" viewBox="0 0 25 32" fill="none" xmlns="http://www.w3.org/2000/svg">
<path d="M19.5676 14.6259H19.5942C22.545 14.612 24.9411 12.2069 24.9411 9.25245C24.9411 7.63039 24.0637 6.29754 23.0018 4.84847L19.5676 0.470581L16.1334 4.84847C15.0716 6.29742 14.1941 7.6302 14.1941 9.25239C14.1941 12.2153 16.6047 14.6259 19.5676 14.6259Z" fill="#0F2442"/>
<path d="M19.5686 16.4457L19.5364 16.4456C15.5843 16.4287 12.3744 13.2084 12.3744 9.25236C12.3744 8.27213 12.596 7.39579 12.9499 6.57727L10.9541 4.03284L3.9231 12.996L3.90526 13.0196C2.11287 15.4642 0.504028 17.9201 0.504028 21.0792C0.504028 26.8277 5.16956 31.507 10.913 31.5292L10.9556 31.5294C16.7171 31.5294 21.4045 26.8415 21.4045 21.0793C21.4045 19.3532 20.9237 17.8372 20.1955 16.4181C19.9888 16.436 19.7798 16.4457 19.5686 16.4457Z" fill="#0F2442"/>
</svg>
