<svg width="24" height="24" viewBox="0 0 24 24" fill="none" xmlns="http://www.w3.org/2000/svg">
<path d="M23.012 1.98868L23.0116 6.99512C23.0116 7.54806 22.5635 7.99599 22.0108 7.99599C21.4578 7.99599 21.0101 7.54806 21.0101 6.99493V4.40743L15.194 10.2286C14.9983 10.4245 14.7418 10.5218 14.4854 10.5218C14.2295 10.5218 13.9736 10.4243 13.778 10.2287C13.3871 9.83818 13.3867 9.20443 13.7774 8.81349L19.5954 2.98993H17.0084C16.4555 2.98993 16.0074 2.54162 16.0074 1.98849C16.0074 1.43574 16.4557 0.987427 17.0084 0.987427H22.0108C22.2764 0.987427 22.5309 1.09299 22.7188 1.28105C22.9066 1.46874 23.012 1.72374 23.012 1.98868ZM22.0109 16.0036C21.4578 16.0036 21.0101 16.4524 21.0101 17.005V19.5925L15.2915 13.9227C14.9002 13.5317 14.2396 13.5314 13.8487 13.9223C13.4576 14.3127 13.4441 14.9468 13.8346 15.3376L19.4954 21.0102H16.9057H16.9036C16.3507 21.0102 15.902 21.4581 15.9018 22.0113C15.9016 22.5636 16.349 23.0121 16.9021 23.0121L21.9037 23.0127C22.1696 23.0127 22.4778 22.9071 22.6651 22.7194C22.8528 22.5318 23.0122 22.2771 23.0122 22.0118V17.0048C23.012 16.4522 22.5637 16.0036 22.0109 16.0036V16.0036ZM8.70762 13.8786L2.98962 19.5929V17.0048C2.98962 16.4519 2.55031 16.0047 1.99756 16.0047H2.00168C1.44874 16.0047 1.00268 16.4524 1.00268 17.0048L1.00305 22.0111C1.00305 22.2768 1.10899 22.5314 1.29668 22.7191C1.48474 22.9069 1.73974 23.0123 2.00524 23.0123H7.00775C7.56069 23.0123 8.00881 22.564 8.00881 22.0113C8.00881 21.4579 7.5605 21.0098 7.00775 21.0098H4.42156L10.1324 15.2937C10.5238 14.9029 10.5187 14.2682 10.1277 13.8779C9.73681 13.4875 9.09875 13.4879 8.70762 13.8786V13.8786ZM4.40393 3.08012H6.9905C7.54343 3.08012 7.99137 2.63237 7.99137 2.07961C7.99137 1.52649 7.54325 1.07818 6.9905 1.07818L1.98856 1.0778H1.98837C1.72268 1.0778 1.46843 1.1828 1.28037 1.37049C1.09287 1.55818 0.987305 1.81261 0.987305 2.07868L0.987867 7.08531C0.987867 7.63749 1.43599 8.08637 1.98874 8.08637C2.54168 8.08637 2.98962 7.63749 2.98962 7.08531V4.49743L8.76012 10.2726C8.95569 10.4684 9.21219 10.5662 9.4685 10.5662C9.72425 10.5662 9.98056 10.4687 10.1759 10.2732C10.5671 9.88262 10.5676 9.24831 10.1765 8.85699L4.40393 3.08012Z" fill="#0F2442"/>
</svg>
