<svg width="107" height="42" viewBox="0 0 107 42" fill="none" xmlns="http://www.w3.org/2000/svg">
<path d="M106.859 22.214L103.516 17.1741C103.391 16.988 103.2 16.8592 102.982 16.8157L78.3641 11.9529C76.5746 10.6634 61.3089 0 45.9765 0C31.4604 0 22.5769 2.74472 20.8935 3.31311L16.1472 1.72346C15.7055 1.57747 15.2354 1.81462 15.0902 2.25425C14.9438 2.69473 15.1807 3.17049 15.6182 3.31647L20.6337 4.99666C20.8126 5.05652 21.0068 5.05316 21.1833 4.99015C21.2746 4.95654 30.4512 1.68019 45.9763 1.68019C61.3935 1.68019 77.3693 13.3016 77.5278 13.419C77.6275 13.4919 77.7418 13.5421 77.861 13.5658L102.317 18.3974L105.328 22.9347V31.9202C105.328 31.9267 105.316 32.5764 104.327 32.7766C103.05 33.0326 97.2819 33.4298 94.41 33.6021C93.9495 33.63 93.5985 34.027 93.6263 34.4895C93.6524 34.9359 94.0211 35.2806 94.4605 35.2806C94.4768 35.2806 94.4931 35.2806 94.5115 35.2785C94.8541 35.2573 102.948 34.7683 104.657 34.4236C106.51 34.0497 107 32.6222 107 31.92V22.6801C107 22.5144 106.951 22.3518 106.859 22.214Z" fill="black"/>
<path d="M16.6591 5.56817C16.4877 5.13589 15.998 4.92668 15.5726 5.09976C7.1504 8.48513 2.12671 13.4751 1.91684 13.686C1.76006 13.8435 1.67185 14.0569 1.67185 14.28V19.1214L0.0882121 22.3041C0.0303098 22.4207 0 22.5494 0 22.6799V31.0797C0 31.3062 0.102845 32.4925 2.13486 33.5113C3.88342 34.3872 10.0639 35.1847 10.7635 35.2734C10.7987 35.2765 10.8338 35.2799 10.8681 35.2799C11.2836 35.2799 11.6436 34.9682 11.6967 34.5449C11.7537 34.0839 11.4289 33.6638 10.9709 33.6066C9.15044 33.3771 4.14785 32.6434 2.8809 32.0086C1.82862 31.4805 1.67603 31.0274 1.67185 31.0734V22.8786L3.25569 19.6957C3.31339 19.5791 3.3437 19.4503 3.3437 19.3199V14.64C4.43443 13.6221 9.10152 9.51059 16.193 6.66001C16.6215 6.48777 16.8305 5.99878 16.6591 5.56817Z" fill="black"/>
<path d="M74.3984 33.6001H30.9297C30.4677 33.6001 30.0938 33.9757 30.0938 34.4399C30.0938 34.9043 30.4677 35.2801 30.9297 35.2801H74.3984C74.8605 35.2801 75.2343 34.9043 75.2343 34.4399C75.2343 33.9757 74.8605 33.6001 74.3984 33.6001Z" fill="black"/>
<path d="M54.3359 16.8H50.9922C50.5302 16.8 50.1562 17.1756 50.1562 17.64C50.1562 18.1043 50.5302 18.48 50.9922 18.48H54.3359C54.798 18.48 55.1718 18.1043 55.1718 17.64C55.1718 17.1756 54.798 16.8 54.3359 16.8Z" fill="black"/>
<path d="M35.9452 16.8H32.6016C32.1396 16.8 31.7656 17.1756 31.7656 17.64C31.7656 18.1043 32.1396 18.48 32.6016 18.48H35.9452C36.4072 18.48 36.7812 18.1043 36.7812 17.64C36.7812 17.1756 36.4072 16.8 35.9452 16.8Z" fill="black"/>
<path d="M74.3984 11.7598H34.2736C26.5567 11.7598 23.4455 5.75747 23.3173 5.50247C23.1083 5.08909 22.6096 4.92084 22.1948 5.13005C21.7832 5.33842 21.6169 5.84128 21.8225 6.25549C21.9687 6.54914 25.4986 13.4398 34.2734 13.4398H74.3984C74.8606 13.4398 75.2343 13.064 75.2343 12.6C75.2343 12.1356 74.8606 11.7598 74.3984 11.7598Z" fill="black"/>
<path d="M15.8828 1.67999C15.4206 1.67999 15.0469 2.05577 15.0469 2.51998V4.19996C15.0469 4.66438 15.4206 5.03995 15.8828 5.03995C16.3448 5.03995 16.7189 4.66417 16.7187 4.19996V2.51998C16.7187 2.05577 16.3448 1.67999 15.8828 1.67999Z" fill="black"/>
<path d="M5.85168 25.2001H0.835924C0.373961 25.2001 0 25.5758 0 26.0401C0 26.5045 0.373961 26.88 0.835924 26.88H5.85168C6.31364 26.88 6.6876 26.5045 6.6876 26.0401C6.6876 25.5758 6.31364 25.2001 5.85168 25.2001Z" fill="black"/>
<path d="M11.6437 15.6479C11.4723 15.2165 10.9826 15.0066 10.5572 15.1797L2.19793 18.5397C1.76941 18.7119 1.56037 19.2009 1.73178 19.6315C1.86243 19.9604 2.17681 20.1598 2.50813 20.1598C2.61181 20.1598 2.71716 20.1409 2.81834 20.0997L11.1776 16.7397C11.6061 16.5675 11.8151 16.0785 11.6437 15.6479Z" fill="black"/>
<path d="M11.0315 15.1372L2.67203 13.4572C2.21571 13.3637 1.7782 13.6613 1.68832 14.1159C1.59759 14.5711 1.8915 15.0132 2.34384 15.1044L10.7033 16.7844C10.7589 16.7959 10.8145 16.8008 10.8682 16.8008C11.2583 16.8008 11.6078 16.525 11.687 16.1257C11.7775 15.6703 11.4838 15.2281 11.0315 15.1372Z" fill="black"/>
<path d="M46.7963 10.756L45.1244 2.3559C45.0337 1.90073 44.6012 1.60035 44.1407 1.69719C43.6884 1.78835 43.3945 2.2305 43.4852 2.68568L45.157 11.0858C45.2363 11.4853 45.5856 11.7609 45.9758 11.7609C46.0298 11.7609 46.0854 11.7561 46.1408 11.7445C46.5929 11.6533 46.887 11.2112 46.7963 10.756Z" fill="black"/>
<path d="M106.301 21.8523L96.2699 20.1723C95.819 20.0894 95.3848 20.4044 95.3081 20.863C95.2314 21.3209 95.5399 21.7532 95.9954 21.8294L106.026 23.5094C106.072 23.5176 106.12 23.5209 106.165 23.5209C106.565 23.5209 106.92 23.229 106.988 22.8187C107.065 22.3608 106.756 21.9286 106.301 21.8523Z" fill="black"/>
<path d="M96.5064 20.2488L93.1627 18.5688C92.7513 18.3636 92.2484 18.5301 92.0413 18.9444C91.8356 19.3594 92.002 19.864 92.415 20.0715L95.7587 21.7515C95.8795 21.8113 96.0068 21.8401 96.1327 21.8401C96.4379 21.8401 96.7334 21.6702 96.8804 21.3759C97.0861 20.9608 96.9197 20.4563 96.5064 20.2488Z" fill="black"/>
<path d="M100.593 18.48H92.789C92.3269 18.48 91.9531 18.8558 91.9531 19.32C91.9531 19.7842 92.3269 20.16 92.789 20.16H100.593C101.055 20.16 101.429 19.7842 101.429 19.32C101.429 18.8558 101.055 18.48 100.593 18.48Z" fill="black"/>
<path d="M84.4798 31.92H84.4618C84.0016 31.92 83.6357 32.2958 83.6357 32.76C83.6357 33.2244 84.0179 33.6002 84.4798 33.6002C84.9403 33.6002 85.3158 33.2244 85.3158 32.76C85.3158 32.2958 84.9403 31.92 84.4798 31.92Z" fill="black"/>
<path d="M84.4295 23.52C79.3601 23.52 75.2344 27.6641 75.2344 32.7599C75.2344 37.8557 79.3601 42 84.4295 42C89.499 42 93.6249 37.8557 93.6249 32.7599C93.6249 27.6641 89.499 23.52 84.4295 23.52ZM84.4295 40.3198C80.2811 40.3198 76.9062 36.9287 76.9062 32.7597C76.9062 28.591 80.2809 25.1998 84.4295 25.1998C88.5784 25.1998 91.9531 28.591 91.9531 32.7597C91.9531 36.9285 88.5784 40.3198 84.4295 40.3198Z" fill="black"/>
<path d="M84.4297 26.8801C83.9677 26.8801 83.5938 27.2558 83.5938 27.7201V29.4C83.5938 29.8645 83.9677 30.24 84.4297 30.24C84.8918 30.24 85.2658 29.8645 85.2658 29.4V27.7201C85.2658 27.2558 84.8918 26.8801 84.4297 26.8801Z" fill="black"/>
<path d="M84.4297 35.2801C83.9677 35.2801 83.5938 35.6557 83.5938 36.1199V37.7998C83.5938 38.2643 83.9677 38.64 84.4297 38.64C84.8918 38.64 85.2658 38.2643 85.2658 37.7998V36.1199C85.2658 35.6557 84.8918 35.2801 84.4297 35.2801Z" fill="black"/>
<path d="M81.0859 31.92H79.414C78.9521 31.92 78.5781 32.2958 78.5781 32.76C78.5781 33.2244 78.9521 33.6002 79.414 33.6002H81.0859C81.5481 33.6002 81.9218 33.2244 81.9218 32.76C81.9218 32.2958 81.5481 31.92 81.0859 31.92Z" fill="black"/>
<path d="M89.4451 31.92H87.7732C87.3112 31.92 86.9375 32.2958 86.9375 32.76C86.9375 33.2244 87.3112 33.6002 87.7732 33.6002H89.4451C89.9072 33.6002 90.2812 33.2244 90.2812 32.76C90.2812 32.2958 89.9072 31.92 89.4451 31.92Z" fill="black"/>
<path d="M82.6562 29.7908L81.4743 28.603C81.1478 28.2749 80.6188 28.2749 80.2922 28.603C79.9657 28.9311 79.9657 29.4627 80.2922 29.7908L81.4743 30.9785C81.6376 31.1425 81.8514 31.2246 82.0653 31.2246C82.2793 31.2246 82.4929 31.1425 82.6562 30.9785C82.9827 30.6506 82.9827 30.1189 82.6562 29.7908Z" fill="black"/>
<path d="M88.5671 35.7297L87.385 34.5419C87.0585 34.2138 86.5294 34.2138 86.2029 34.5419C85.8764 34.87 85.8764 35.4016 86.2029 35.7297L87.385 36.9176C87.5482 37.0816 87.7621 37.1635 87.9759 37.1635C88.1898 37.1635 88.4038 37.0818 88.5671 36.9176C88.8936 36.5895 88.8936 36.0578 88.5671 35.7297Z" fill="black"/>
<path d="M82.6562 34.5419C82.3299 34.2138 81.8008 34.2138 81.4743 34.5419L80.2922 35.7297C79.9657 36.0576 79.9657 36.5895 80.2922 36.9176C80.4555 37.0816 80.6695 37.1635 80.8832 37.1635C81.097 37.1635 81.3111 37.0818 81.4743 36.9176L82.6562 35.7297C82.9827 35.4016 82.9827 34.87 82.6562 34.5419Z" fill="black"/>
<path d="M88.5666 28.603C88.2401 28.2749 87.711 28.2749 87.3845 28.603L86.2024 29.7908C85.8759 30.1189 85.8759 30.6504 86.2024 30.9785C86.3657 31.1425 86.5797 31.2246 86.7936 31.2246C87.0074 31.2246 87.2212 31.1425 87.3845 30.9785L88.5666 29.7908C88.8931 29.4627 88.8931 28.9311 88.5666 28.603Z" fill="black"/>
<path d="M20.9486 31.92H20.9323C20.4703 31.92 20.1045 32.2958 20.1045 32.76C20.1045 33.2244 20.4872 33.6002 20.9486 33.6002C21.4105 33.6002 21.7845 33.2244 21.7845 32.76C21.7845 32.2958 21.4105 31.92 20.9486 31.92Z" fill="black"/>
<path d="M20.8988 23.52C15.8293 23.52 11.7051 27.6641 11.7051 32.7599C11.7051 37.8557 15.8293 42 20.8988 42C25.9689 42 30.094 37.8557 30.094 32.7599C30.094 27.6641 25.9691 23.52 20.8988 23.52ZM20.8988 40.3198C16.7511 40.3198 13.3771 36.9287 13.3771 32.7597C13.3771 28.591 16.7509 25.1998 20.8988 25.1998C25.0473 25.1998 28.4221 28.591 28.4221 32.7597C28.4221 36.9285 25.0475 40.3198 20.8988 40.3198Z" fill="black"/>
<path d="M20.8984 26.8801C20.4365 26.8801 20.0625 27.2558 20.0625 27.7201V29.4C20.0625 29.8645 20.4365 30.24 20.8984 30.24C21.3604 30.24 21.7344 29.8645 21.7344 29.4V27.7201C21.7344 27.2558 21.3604 26.8801 20.8984 26.8801Z" fill="black"/>
<path d="M20.8984 35.2801C20.4365 35.2801 20.0625 35.6557 20.0625 36.1199V37.7998C20.0625 38.2643 20.4365 38.64 20.8984 38.64C21.3604 38.64 21.7344 38.2643 21.7344 37.7998V36.1199C21.7344 35.6557 21.3604 35.2801 20.8984 35.2801Z" fill="black"/>
<path d="M17.5549 31.92H15.8848C15.4226 31.92 15.0488 32.2958 15.0488 32.76C15.0488 33.2244 15.4226 33.6002 15.8848 33.6002H17.5549C18.0167 33.6002 18.3909 33.2244 18.3909 32.76C18.3909 32.2958 18.0169 31.92 17.5549 31.92Z" fill="black"/>
<path d="M25.914 31.92H24.2422C23.7802 31.92 23.4062 32.2958 23.4062 32.76C23.4062 33.2244 23.7802 33.6002 24.2422 33.6002H25.914C26.376 33.6002 26.7499 33.2244 26.7499 32.76C26.7499 32.2958 26.376 31.92 25.914 31.92Z" fill="black"/>
<path d="M19.1252 29.7908L17.9431 28.603C17.6166 28.2749 17.0875 28.2749 16.761 28.603C16.4345 28.9311 16.4345 29.4627 16.761 29.7908L17.9431 30.9785C18.1063 31.1425 18.3204 31.2246 18.5342 31.2246C18.7481 31.2246 18.9619 31.1425 19.1252 30.9785C19.4517 30.6506 19.4517 30.1189 19.1252 29.7908Z" fill="black"/>
<path d="M25.0353 35.7297L23.8532 34.5419C23.5267 34.2138 22.9977 34.2138 22.6712 34.5419C22.3446 34.87 22.3446 35.4016 22.6712 35.7297L23.8532 36.9176C24.0165 37.0816 24.2305 37.1635 24.4444 37.1635C24.6582 37.1635 24.8721 37.0818 25.0353 36.9176C25.3618 36.5895 25.3618 36.0578 25.0353 35.7297Z" fill="black"/>
<path d="M19.1256 34.5419C18.7991 34.2138 18.2701 34.2138 17.9436 34.5419L16.7615 35.7297C16.435 36.0576 16.435 36.5895 16.7615 36.9176C16.9247 37.0816 17.1386 37.1635 17.3524 37.1635C17.5663 37.1635 17.7801 37.0818 17.9436 36.9176L19.1256 35.7297C19.4522 35.4016 19.4522 34.87 19.1256 34.5419Z" fill="black"/>
<path d="M25.0358 28.603C24.7093 28.2749 24.1802 28.2749 23.8537 28.603L22.6716 29.7908C22.3451 30.1189 22.3451 30.6504 22.6716 30.9785C22.8349 31.1425 23.0487 31.2246 23.2626 31.2246C23.4766 31.2246 23.6905 31.1425 23.8537 30.9785L25.0358 29.7908C25.3623 29.4627 25.3623 28.9311 25.0358 28.603Z" fill="black"/>
</svg>
