<svg width="40" height="40" viewBox="0 0 40 40" fill="none" xmlns="http://www.w3.org/2000/svg">
    <path d="M36.4844 16.5625H35.2344V15.3906C35.2344 11.3152 33.652 7.46398 30.7786 4.54648C27.8911 1.61461 24.0632 0 20 0C15.9368 0 12.1089 1.61461 9.22141 4.54648C6.34805 7.46398 4.76562 11.3152 4.76562 15.3906V16.5625H3.51562C1.57711 16.5625 0 18.1396 0 20.0781V27.1094C0 29.0479 1.57711 30.625 3.51562 30.625H4.96719C5.45094 31.9889 6.75352 32.9688 8.28125 32.9688C10.2198 32.9688 11.7969 31.3916 11.7969 29.4531V17.7344C11.7969 15.7959 10.2198 14.2188 8.28125 14.2188C7.88398 14.2188 7.50227 14.2859 7.14578 14.408C7.64383 7.67117 13.2187 2.34375 20 2.34375C26.7813 2.34375 32.3562 7.67117 32.8542 14.408C32.4977 14.2859 32.116 14.2188 31.7188 14.2188C29.7802 14.2188 28.2031 15.7959 28.2031 17.7344V29.4531C28.2031 30.9809 29.1829 32.2834 30.5469 32.7672V34.1406C30.5469 34.7868 30.0212 35.3125 29.375 35.3125H23.3141C22.8303 33.9486 21.5277 32.9688 20 32.9688C18.0615 32.9688 16.4844 34.5459 16.4844 36.4844C16.4844 38.4229 18.0615 40 20 40C21.5277 40 22.8303 39.0202 23.3141 37.6562H29.375C31.3135 37.6562 32.8906 36.0791 32.8906 34.1406V32.7672C33.8878 32.4135 34.6791 31.6222 35.0328 30.625H36.4844C38.4229 30.625 40 29.0479 40 27.1094V20.0781C40 18.1396 38.4229 16.5625 36.4844 16.5625ZM4.76562 28.2812H3.51562C2.86945 28.2812 2.34375 27.7555 2.34375 27.1094V20.0781C2.34375 19.432 2.86945 18.9062 3.51562 18.9062H4.76562V28.2812ZM8.28125 16.5625C8.92742 16.5625 9.45312 17.0882 9.45312 17.7344V29.4531C9.45312 30.0993 8.92742 30.625 8.28125 30.625C7.63508 30.625 7.10938 30.0993 7.10938 29.4531V17.7344C7.10938 17.0882 7.63508 16.5625 8.28125 16.5625ZM20 37.6562C19.3538 37.6562 18.8281 37.1305 18.8281 36.4844C18.8281 35.8382 19.3538 35.3125 20 35.3125C20.6462 35.3125 21.1719 35.8382 21.1719 36.4844C21.1719 37.1305 20.6462 37.6562 20 37.6562ZM32.8906 29.4531C32.8906 30.0993 32.3649 30.625 31.7188 30.625C31.0726 30.625 30.5469 30.0993 30.5469 29.4531V17.7344C30.5469 17.0882 31.0726 16.5625 31.7188 16.5625C32.3649 16.5625 32.8906 17.0882 32.8906 17.7344V29.4531ZM37.6562 27.1094C37.6562 27.7555 37.1305 28.2812 36.4844 28.2812H35.2344V18.9062H36.4844C37.1305 18.9062 37.6562 19.432 37.6562 20.0781V27.1094Z" fill="#E02C22"/>
</svg>
