<svg width="32" height="29" viewBox="0 0 32 29" fill="none" xmlns="http://www.w3.org/2000/svg">
<path d="M31.2047 7.75805C30.6874 5.72943 29.5848 3.98019 28.0162 2.69943C26.488 1.45183 24.616 0.764648 22.745 0.764648C21.3104 0.764648 19.9422 1.15089 18.678 1.91248C17.6797 2.51412 16.7817 3.33235 15.9973 4.35364C14.2132 2.02836 11.8579 0.764648 9.25272 0.764648C7.3824 0.764648 5.51112 1.45183 3.9832 2.69943C2.415 3.98019 1.31267 5.7292 0.795382 7.75781C0.416009 9.24568 0.243265 11.3338 0.991821 13.8451H5.6924L7.38974 10.4501C7.544 10.1419 7.85892 9.94708 8.20346 9.94708C8.54824 9.94708 8.86316 10.1419 9.01718 10.4501L12.1015 16.6185L15.1857 10.4501C15.3397 10.1419 15.6547 9.94708 15.9994 9.94708C16.344 9.94708 16.6589 10.1419 16.8132 10.4501L18.5105 13.8451H24.848C25.3506 13.8451 25.7577 14.2524 25.7577 14.7548C25.7577 15.2574 25.3506 15.6647 24.848 15.6647H17.9482C17.6037 15.6647 17.2887 15.4699 17.1345 15.1616L15.9994 12.8913L12.9152 19.0596C12.7609 19.3679 12.446 19.5624 12.1015 19.5624C11.7567 19.5624 11.4418 19.3679 11.2877 19.0596L8.2037 12.8913L7.06842 15.1619C6.91416 15.4699 6.59924 15.6647 6.2547 15.6647H1.67332C1.97734 16.3391 2.34889 17.0372 2.80006 17.7563C5.27677 21.7062 9.57048 25.3661 15.5613 28.634C15.6971 28.7081 15.8471 28.7451 15.9971 28.7451C16.1471 28.7451 16.2968 28.7081 16.4326 28.6342C22.4253 25.3658 26.7202 21.7062 29.1981 17.7566C31.8753 13.4889 31.767 9.96391 31.2047 7.75805Z" fill="#0F2442"/>
</svg>
