<svg width="23" height="22" viewBox="0 0 23 22" fill="none" xmlns="http://www.w3.org/2000/svg">
<path fill-rule="evenodd" clip-rule="evenodd" d="M22.1683 6.79158C22.2701 8.55289 22.2701 13.8273 22.1683 15.5886C22.0811 17.2976 21.6837 18.8114 20.4142 20.0586C19.1446 21.3105 17.6036 21.7009 15.864 21.7818C14.071 21.8818 8.69703 21.8818 6.90409 21.7818C5.16448 21.6961 3.62836 21.3058 2.35393 20.0586C1.0795 18.8114 0.682132 17.2976 0.599744 15.5886C0.498002 13.8273 0.498002 8.54815 0.599744 6.78684C0.686959 5.07787 1.0795 3.5641 2.35393 2.31689C3.62836 1.06968 5.16931 0.679321 6.90409 0.598433C8.69703 0.498439 14.071 0.498439 15.864 0.598433C17.6036 0.68411 19.1446 1.07446 20.4142 2.32163C21.6886 3.56884 22.086 5.08261 22.1683 6.79158ZM17.1854 6.77026C17.9025 6.77026 18.484 6.20381 18.484 5.4945C18.484 4.78999 17.9025 4.21875 17.1854 4.21875C16.4682 4.21875 15.8867 4.78999 15.8867 5.4945C15.8867 6.19902 16.4633 6.77026 17.1854 6.77026ZM11.3842 5.71875C14.4661 5.71875 16.952 8.16078 16.952 11.1884C16.952 14.2159 14.4661 16.6579 11.3842 16.6579C8.30228 16.6579 5.81641 14.2159 5.81641 11.1884C5.81641 8.16078 8.30228 5.71875 11.3842 5.71875ZM11.3893 14.7447C13.3809 14.7447 15.0091 13.15 15.0091 11.1888C15.0091 9.22752 13.3858 7.63281 11.3893 7.63281C9.39287 7.63281 7.76953 9.22752 7.76953 11.1888C7.76953 13.15 9.3977 14.7447 11.3893 14.7447ZM20.2927 11.9512C20.3102 13.6533 20.3373 16.279 19.851 17.4795C19.4731 18.4125 18.7414 19.1313 17.7867 19.5073C16.5607 19.985 13.8909 19.9585 12.1591 19.9412C11.8717 19.9384 11.6102 19.9358 11.3854 19.9358C11.1649 19.9358 10.909 19.9382 10.6279 19.9408C8.89574 19.9571 6.20995 19.9825 4.98416 19.5073C4.0344 19.136 3.30266 18.4172 2.91987 17.4795C2.43359 16.275 2.46064 13.6523 2.47819 11.9511C2.4811 11.6688 2.48375 11.4119 2.48375 11.1911C2.48375 10.9745 2.4813 10.723 2.4786 10.4469C2.46198 8.7453 2.43621 6.10689 2.91987 4.90271C3.29783 3.96971 4.02953 3.25088 4.98416 2.87484C6.21023 2.39714 8.88003 2.42371 10.6118 2.44095C10.8991 2.44381 11.1606 2.44641 11.3854 2.44641C11.606 2.44641 11.8619 2.444 12.1429 2.44135C13.8751 2.42502 16.5609 2.39971 17.7867 2.87484C18.7365 3.24614 19.4682 3.96492 19.851 4.90271C20.3373 6.10716 20.3102 8.72985 20.2927 10.4311C20.2898 10.7134 20.2871 10.9703 20.2871 11.1911C20.2871 11.4119 20.2898 11.6688 20.2927 11.9512Z" fill="white"/>
</svg>
