<svg width="40" height="40" viewBox="0 0 40 40" fill="none" xmlns="http://www.w3.org/2000/svg">
<path d="M27.0512 32.0732L24.7766 31.1179L25.0866 28.6704L24.0091 26.8041L21.7345 25.8488L22.0445 23.4013L20.2046 20.2146C22.2239 17.6191 22.5899 13.9565 20.8443 10.9332C20.6691 10.6296 20.4772 10.3416 20.2712 10.0688V6.97245C20.2712 3.61439 17.5392 0.882355 14.1812 0.882355C10.9856 0.882355 8.35893 3.35682 8.11197 6.49002C4.03192 7.02816 0.882812 10.5192 0.882812 14.7462C0.882812 18.2373 3.03108 21.2261 6.07751 22.4644V36.3587L8.86309 39.1176H12.345V36.1575L10.8528 34.1928L12.345 32.2282V30.0732L10.8528 28.1086L12.345 26.1439V22.4644C15.3915 21.2261 17.5397 18.2373 17.5397 14.7462C17.5397 10.537 14.4169 7.05765 10.3618 6.49727C10.5968 4.59805 12.2194 3.1227 14.1812 3.1227C16.3039 3.1227 18.0309 4.84964 18.0309 6.97245V8.02504C17.6394 7.78203 17.2299 7.57219 16.8066 7.39796C18.7252 9.37933 19.7802 11.9816 19.7802 14.7462C19.7802 16.8899 19.1412 18.9547 17.9325 20.7172C17.1302 21.887 16.1135 22.8721 14.9391 23.6293L21.724 35.3812L25.5292 36.4008L28.5446 34.6598L27.0512 32.0732ZM11.4474 12.8988C11.4474 14.1338 10.4463 15.1349 9.21131 15.1349C7.97636 15.1349 6.97522 14.1338 6.97522 12.8988C6.97522 11.6639 7.97636 10.6627 9.21131 10.6627C10.4463 10.6627 11.4474 11.6639 11.4474 12.8988Z" fill="#0F2442"/>
<path d="M36.5308 22.7401L34.0833 23.0501L33.128 20.7754L31.2618 19.698L28.8142 20.008L27.8589 17.7333L24.6723 15.8935C25.0576 13.1095 24.0065 10.2552 21.8057 8.39437C22.166 8.83587 22.4932 9.3094 22.784 9.81296C23.8558 11.6695 24.3349 13.777 24.1693 15.9078C24.0486 17.4623 23.5928 18.9537 22.8364 20.2933L23.9841 22.2811L24.3613 22.9344L24.3594 22.9499L33.5714 28.2684L37.3765 27.2488L39.1174 24.2335L36.5308 22.7401Z" fill="#0F2442"/>
</svg>
