<svg width="276" height="18" viewBox="0 0 276 18" fill="none" xmlns="http://www.w3.org/2000/svg">
<path d="M94.0666 6.56678L94.2057 5.8632C94.8415 2.69708 92.616 0.175903 87.708 0.175903H78.8061L75.3486 17.785H80.7733L81.8661 12.2541H84.4294L88.2843 17.785H94.762L89.7944 11.4137C92.1391 10.4365 93.6493 8.63844 94.0666 6.56678ZM83.3763 4.61239H86.8337C88.483 4.61239 88.9797 5.10099 88.8406 5.88274C88.5426 7.36809 87.8471 7.85669 86.1979 7.85669H82.7404L83.3763 4.61239Z" fill="white"/>
<path d="M64.1219 0.175903L53.1733 17.785H59.1345L60.426 15.6743H67.6787L67.9967 17.785H73.9578L70.4805 0.175903H64.1219ZM63.0688 11.3551L66.2481 6.13682L67.0429 11.3551H63.0688Z" fill="white"/>
<path d="M225.728 0.175903L222.251 17.785H237.154L238.028 13.3681H228.55L228.987 11.1205H236.577L237.452 6.68405H229.861L230.278 4.61239H239.399L240.273 0.175903H225.728Z" fill="white"/>
<path d="M250.705 0.175916C245.101 0.175916 242.24 2.67754 241.704 5.37461L241.564 6.00002C241.008 8.91207 243.432 10.3974 247.844 11.0228C249.294 11.2378 250.228 11.3746 250.129 11.9023L250.089 12.1173C249.95 12.7818 249.075 12.899 247.327 12.899C245.36 12.899 242.3 12.7622 240.452 12.5082L239.418 17.785H247.029C252.215 17.785 255.871 15.4593 256.388 12.7622L256.527 12.1368C257.123 9.00979 254.838 7.56354 250.268 6.93813C248.877 6.76224 247.903 6.54725 247.983 6.05865L248.022 5.84367C248.161 5.17917 248.777 4.96419 250.427 4.96419H263.223L260.66 17.785H266.085L268.628 4.94465H268.807H275.066L276 0.156372H250.705V0.175916Z" fill="white"/>
<path d="M44.9667 9.42024L45.1257 8.57985C45.5629 6.39093 47.6691 5.14011 50.1728 5.14011L54.5244 5.1792L55.4782 0.156398L51.1266 0.11731C45.4834 0.11731 40.7542 3.55705 39.7806 8.5994L39.6216 9.43979C38.648 14.4626 41.708 17.9219 47.5698 17.9219C48.9011 17.9219 50.9279 17.8828 52.0804 17.7851L53.0341 12.7818C51.7426 12.8795 49.7754 12.9186 48.5236 12.9186C45.9603 12.8991 44.5296 11.6092 44.9667 9.42024Z" fill="white"/>
<path d="M117.394 0.175903L113.917 17.785H119.361L120.454 12.1564H128.204L129.078 7.73942H121.329L121.945 4.61239H129.992L130.866 0.175903H117.394Z" fill="white"/>
<path d="M148.869 6.56678L149.008 5.8632C149.644 2.69708 147.419 0.175903 142.511 0.175903H133.609L130.151 17.785H135.596L136.689 12.2541H139.252L143.087 17.785H149.565L144.597 11.4137C146.942 10.4365 148.452 8.63844 148.869 6.56678ZM138.179 4.61239H141.636C143.286 4.61239 143.783 5.10099 143.643 5.88274C143.345 7.36809 142.65 7.85669 141.001 7.85669H137.543L138.179 4.61239Z" fill="white"/>
<path d="M189.504 0.175903L183.642 10.5538L182.073 0.175903H174.502L171.025 17.785H176.449L178.377 8.03258L180.304 17.785H184.537L190.061 8.28665L188.173 17.785H193.617L197.095 0.175903H189.504Z" fill="white"/>
<path d="M218.495 0.175903L214.859 10.3192L213.448 0.175903H209.235L204.069 10.1238L204.407 0.175903H199.161L198.545 17.785H205.341L209.871 8.69708L210.626 17.785H217.422L223.761 0.175903H218.495Z" fill="white"/>
<path d="M106.267 5.0619L112.069 5.45278L113.103 0.175903H106.565C100.942 0.175903 98.1004 2.67753 97.5639 5.3746L97.4248 6.00001C96.8684 8.91206 99.2926 10.3974 103.704 11.0228C105.154 11.2378 106.088 11.3746 105.989 11.9023L105.949 12.1173C105.81 12.7818 104.936 12.899 103.187 12.899C101.22 12.899 98.16 12.7622 96.3121 12.5082L95.2788 17.785H102.889C108.075 17.785 111.731 15.4593 112.248 12.7622L112.387 12.1368C112.983 9.00978 110.698 7.56353 106.128 6.93812C104.737 6.76222 103.744 6.54724 103.843 6.05864L103.883 5.84366C104.002 5.15962 104.618 5.0619 106.267 5.0619Z" fill="white"/>
<path d="M162.441 0H162.004C156.321 0 151.512 3.47883 150.538 8.57981L150.379 9.4202C149.386 14.5212 152.506 18 158.427 18H158.864C164.547 18 169.356 14.5212 170.329 9.4202L170.488 8.57981C171.482 3.47883 168.382 0 162.441 0ZM159.838 12.899H159.401C156.817 12.899 155.387 11.6287 155.824 9.4202L155.983 8.57981C156.42 6.37134 158.526 5.10098 161.07 5.10098H161.507C164.07 5.10098 165.521 6.37134 165.084 8.57981L164.925 9.4202C164.468 11.6482 162.361 12.899 159.838 12.899Z" fill="white"/>
<path d="M17.8833 9.00975H23.2483L25.0366 0.214966H19.6716L17.8833 9.00975Z" fill="#FF3300"/>
<path d="M7.15332 9.00975H12.5183L14.3067 0.214966H8.94166L7.15332 9.00975Z" fill="#FF9900"/>
<path d="M28.6133 9.00975H33.9783L35.7666 0.214966H30.4016L28.6133 9.00975Z" fill="#333399"/>
<path d="M10.73 17.8046H16.095L17.8833 9.00977H12.5183L10.73 17.8046Z" fill="#FF3300"/>
<path d="M0 17.8046H5.36501L7.15335 9.00977H1.78834L0 17.8046Z" fill="#FF9900"/>
<path d="M21.4602 17.8046H26.8252L28.6135 9.00977H23.2485L21.4602 17.8046Z" fill="#333399"/>
</svg>
