<svg width="38" height="23" viewBox="0 0 38 23" fill="none" xmlns="http://www.w3.org/2000/svg">
<path d="M14.8618 13.2265C13.0522 15.3104 13.1412 18.5439 15.0546 20.5388C16.1225 21.6586 17.5538 22.2148 18.9777 22.2148C20.372 22.2148 21.7588 21.6809 22.8193 20.6204C23.3013 20.1383 23.6796 19.5821 23.9391 18.9962L30.9474 5.40986C31.1328 5.02422 30.7323 4.62375 30.3467 4.80915L16.7603 11.8174C16.0558 12.1289 15.4106 12.6035 14.8618 13.2265ZM17.3388 15.1398C17.7911 14.6875 18.3844 14.4576 18.9777 14.4576C19.571 14.4576 20.1643 14.6875 20.6241 15.1398C21.5289 16.0446 21.5289 17.5204 20.6241 18.4252C20.1717 18.8776 19.5784 19.1075 18.9777 19.1075C18.3844 19.1075 17.7911 18.8776 17.3388 18.4252C16.4266 17.513 16.4266 16.0446 17.3388 15.1398ZM33.5282 18.4994C33.5282 15.9334 32.8533 13.4119 31.5703 11.2093C31.0735 10.349 31.3627 9.25142 32.223 8.75454C33.0832 8.25766 34.1808 8.54689 34.6777 9.40716C36.2722 12.1586 37.1176 15.303 37.1176 18.4994C37.1176 19.4931 36.3167 20.2941 35.3229 20.2941C34.3366 20.2941 33.5282 19.4931 33.5282 18.4994ZM0.882324 18.4994C0.882324 8.50981 9.01042 0.381714 19 0.381714C21.3212 0.381714 23.5832 0.81185 25.719 1.67212C26.6386 2.04293 27.0836 3.08119 26.7202 4.00079C26.3494 4.92039 25.3111 5.36536 24.3915 5.00197C22.6784 4.31969 20.8614 3.97113 19 3.97113C10.9905 3.97113 4.47174 10.4899 4.47174 18.4994C4.47174 19.4931 3.6708 20.2941 2.67703 20.2941C1.68327 20.2941 0.882324 19.4931 0.882324 18.4994Z" fill="#0F2442"/>
</svg>
