<svg width="40" height="40" viewBox="0 0 40 40" fill="none" xmlns="http://www.w3.org/2000/svg">
    <path d="M33.5016 25.6335L29.9107 29.2243L28.5296 27.8432C28.072 27.3856 27.33 27.3856 26.8724 27.8432C26.4147 28.3009 26.4147 29.0428 26.8724 29.5005L29.082 31.7102C29.3109 31.939 29.6108 32.0535 29.9106 32.0535C30.2105 32.0535 30.5105 31.939 30.7392 31.7102L35.1587 27.2908C35.6164 26.8332 35.6164 26.0912 35.1587 25.6335C34.7014 25.1759 33.9593 25.1759 33.5016 25.6335Z" fill="#E02C22"/>
    <path d="M17.0821 25.2663C16.9011 25.2023 16.7167 25.1359 16.5322 25.0672V21.7624C16.8712 21.8793 17.0467 22.0494 17.0699 22.073C17.425 22.4742 18.038 22.5145 18.4426 22.162C18.8493 21.8076 18.8917 21.1907 18.5373 20.7841C18.2037 20.4012 17.5119 19.9209 16.5322 19.7571V19.2188C16.5322 18.6794 16.095 18.2422 15.5556 18.2422C15.0162 18.2422 14.5791 18.6794 14.5791 19.2188V19.8653C14.5106 19.8831 14.4416 19.9023 14.3719 19.9234C13.1912 20.279 12.3095 21.2871 12.0707 22.5543C11.8517 23.7163 12.2285 24.8402 13.0538 25.4876C13.4489 25.7975 13.9312 26.0815 14.5791 26.3773V30.6674C14.1065 30.6046 13.753 30.4501 13.1993 30.0879C12.7479 29.7926 12.1427 29.9191 11.8475 30.3705C11.5523 30.8219 11.6787 31.4271 12.1301 31.7223C13.0877 32.3487 13.7609 32.5646 14.5791 32.6322V33.2812C14.5791 33.8206 15.0162 34.2578 15.5556 34.2578C16.095 34.2578 16.5322 33.8206 16.5322 33.2812V32.5409C17.1739 32.3839 17.7575 32.073 18.2517 31.619C18.9126 31.0118 19.3586 30.1891 19.5076 29.3026C19.8141 27.4798 18.862 25.8954 17.0821 25.2663ZM14.2592 23.9508C14.0136 23.7581 13.9079 23.352 13.9901 22.916C14.0521 22.587 14.2379 22.2051 14.5791 21.9666V24.1723C14.4633 24.0999 14.3553 24.0262 14.2592 23.9508ZM17.5816 28.9788C17.4865 29.5443 17.1309 30.1409 16.5322 30.464V27.1461C17.6773 27.6051 17.6495 28.5748 17.5816 28.9788Z" fill="#E02C22"/>
    <path d="M38.8281 20.4688C37.3473 20.4688 36.016 19.6459 35.3537 18.3215L35.1888 17.9916C34.9903 17.5945 34.5845 17.3438 34.1406 17.3438H27.8906C27.4467 17.3438 27.0409 17.5945 26.8424 17.9916L26.6776 18.3214C26.6141 18.4484 26.5443 18.5707 26.469 18.6881C24.8692 16.5307 23.0931 14.6109 21.4845 12.9598V9.13055C23.0395 6.93508 23.8281 4.5225 23.8281 1.95312V1.17188C23.8281 0.524687 23.3034 0 22.6562 0H21.875C19.7047 0 16.8738 1.40563 15.625 2.08953C14.3762 1.40563 11.5453 0 9.375 0H8.59375C7.94656 0 7.42188 0.524687 7.42188 1.17188V1.95312C7.42188 4.52242 8.21047 6.93508 9.76562 9.13062V12.9602C4.88016 17.9824 0 24.0314 0 31.0156L7.8125e-05 31.0997C0.0110156 36.0073 4.06969 40 9.04773 40H22.2023C24.0556 40 25.86 39.433 27.3745 38.3892C28.3798 39.0674 29.4894 39.5938 30.6788 39.9505C30.7887 39.9835 30.9021 40 31.0156 40C31.1291 40 31.2425 39.9835 31.3524 39.9505C33.8707 39.1951 36.0315 37.6807 37.6009 35.5713C39.1705 33.4619 40 30.9571 40 28.3279V21.6406C40 20.9934 39.4753 20.4688 38.8281 20.4688ZM12.1094 9.92188H19.1406V12.2656H12.1094V9.92188ZM15.0238 4.44344C15.3937 4.66445 15.8555 4.66445 16.2257 4.44367C17.1338 3.90211 19.7137 2.55953 21.4762 2.36687C21.402 4.23187 20.8214 5.94539 19.7103 7.57812H11.5398C10.4286 5.94531 9.84813 4.2318 9.77383 2.36687C11.5363 2.55953 14.1162 3.90211 15.0238 4.44344ZM9.04773 37.6562C5.35922 37.6562 2.35188 34.7127 2.34383 31.0955L2.34375 31.0156C2.34375 24.8702 6.88008 19.2893 11.4309 14.6094H19.8194C21.393 16.225 23.1276 18.1012 24.6628 20.1873C24.2084 20.3705 23.7147 20.4688 23.2031 20.4688C22.5559 20.4688 22.0312 20.9934 22.0312 21.6406V28.3279C22.0312 30.9571 22.8608 33.4619 24.4303 35.5713C24.7562 36.0092 25.1078 36.4211 25.4826 36.8063C24.4848 37.3589 23.3566 37.6562 22.2023 37.6562H9.04773ZM37.6562 28.3279C37.6562 32.5666 35.0023 36.2486 31.0156 37.5982C27.029 36.2486 24.375 32.5666 24.375 28.3279V22.7033C26.1485 22.3685 27.6904 21.2814 28.6035 19.6874H33.4277C34.3409 21.2813 35.8827 22.3685 37.6562 22.7033V28.3279Z" fill="#E02C22"/>
</svg>
