<svg width="108" height="30" viewBox="0 0 108 30" fill="none" xmlns="http://www.w3.org/2000/svg">
<path d="M77.615 20.7033C77.5424 20.2492 77.1076 19.94 76.6493 20.01L44.5867 25.01C44.127 25.0817 43.8122 25.5097 43.8856 25.9637C43.9506 26.3741 44.3097 26.6668 44.7178 26.6668C44.7614 26.6668 44.806 26.6637 44.8505 26.657L76.913 21.6571C77.3728 21.5854 77.6876 21.1576 77.615 20.7033Z" fill="black"/>
<path d="M78.5249 14.2432C69.2752 13.6395 60.1717 13.3334 51.4688 13.3334C42.3846 13.3334 23.625 16.3883 23.625 25.8333C23.625 26.294 24.0025 26.6666 24.4687 26.6666C24.9352 26.6666 25.3125 26.294 25.3125 25.8333C25.3125 18.4425 40.9203 15 51.4688 15C60.1337 15 69.2009 15.3045 78.4128 15.9067C78.8793 15.9521 79.2798 15.5891 79.311 15.1303C79.3422 14.6712 78.9897 14.274 78.5249 14.2432Z" fill="black"/>
<path d="M104.592 17.2655C104.503 16.9727 104.262 16.7512 103.961 16.6862C103.778 16.6456 99.3876 15.7097 92.0509 15.0033C91.5996 14.9708 91.1745 15.2948 91.1317 15.752C91.0854 16.2109 91.4249 16.6178 91.8897 16.6635C96.6292 17.1194 100.172 17.6841 102.061 18.0209L101.497 18.5777C101.339 18.734 101.25 18.9455 101.25 19.1668V20.8335C101.25 21.2942 101.627 21.6668 102.094 21.6668C102.56 21.6668 102.937 21.2942 102.937 20.8333V19.5117L104.377 18.089C104.595 17.8742 104.677 17.5585 104.592 17.2655Z" fill="black"/>
<path d="M97.6278 21.9109L94.2528 18.5776C93.9232 18.2521 93.3892 18.2521 93.0597 18.5776C92.7301 18.9031 92.7301 19.4303 93.0597 19.7558L96.4348 23.0891C96.5994 23.2518 96.8155 23.3333 97.0313 23.3333C97.2471 23.3333 97.463 23.252 97.6278 23.0891C97.9573 22.7638 97.9573 22.2364 97.6278 21.9109Z" fill="black"/>
<path d="M75.4712 26.7548L68.721 23.4215C68.3043 23.2132 67.7965 23.384 67.5889 23.7943C67.3815 24.2059 67.5494 24.7058 67.9663 24.9123L71.5194 26.6669H17.7187C17.2525 26.6669 16.875 27.0397 16.875 27.5004C16.875 27.961 17.2525 28.3336 17.7187 28.3336H75.0939C75.4861 28.3336 75.8254 28.0685 75.9144 27.6924C76.005 27.3164 75.822 26.9274 75.4712 26.7548Z" fill="black"/>
<path d="M50.3732 10.2409C50.2135 10.0846 50.0027 10.0064 49.7702 9.99997L48.9389 10.0098L48.9372 5.83333C48.9372 5.37259 48.5591 5 48.0935 5H39.6561C26.0571 5 15.9849 11.5283 15.563 11.8067C15.175 12.0621 15.0703 12.5798 15.329 12.9622C15.4914 13.203 15.7592 13.3333 16.032 13.3333C16.1925 13.3333 16.355 13.2876 16.4989 13.1932C16.5979 13.1282 26.563 6.66666 39.6561 6.66666H47.2497L47.2514 10.8546C47.2514 11.0777 47.3419 11.2907 47.5027 11.447C47.6616 11.6033 47.8658 11.6716 48.1057 11.6879L48.937 11.6781V12.5C48.937 12.9605 49.3145 13.3333 49.7807 13.3333C50.247 13.3333 50.6245 12.9605 50.6245 12.5V10.8333C50.6245 10.6101 50.534 10.3969 50.3732 10.2409Z" fill="black"/>
<path d="M44.7198 8.33337H39.6565C27.2325 8.33337 17.836 14.3213 17.442 14.577C17.0515 14.8275 16.9428 15.3451 17.1981 15.7291C17.3604 15.9732 17.6298 16.1067 17.9052 16.1067C18.0632 16.1067 18.224 16.0628 18.3666 15.97C18.7432 15.726 27.7302 10 39.6565 10H44.7198C45.1861 10 45.5635 9.62723 45.5635 9.1667C45.5635 8.70597 45.1861 8.33337 44.7198 8.33337Z" fill="black"/>
<path d="M10.9689 15.0001C6.78161 15.0001 3.375 18.3645 3.375 22.5001C3.375 26.6357 6.7814 30 10.9689 30C15.1566 30 18.5627 26.6357 18.5627 22.5001C18.5627 18.3645 15.1563 15.0001 10.9689 15.0001ZM10.9689 28.3334C7.71249 28.3334 5.06248 25.7165 5.06248 22.5001C5.06248 19.2841 7.71249 16.6668 10.9689 16.6668C14.2253 16.6668 16.8753 19.2841 16.8753 22.5001C16.8753 25.7163 14.2253 28.3334 10.9689 28.3334Z" fill="black"/>
<path d="M10.9687 19.1667C9.10738 19.1667 7.59375 20.6625 7.59375 22.5001C7.59375 24.3376 9.10738 25.8334 10.9687 25.8334C12.8303 25.8334 14.3439 24.3376 14.3439 22.5001C14.3439 20.6625 12.83 19.1667 10.9687 19.1667ZM10.9687 24.1667C10.0385 24.1667 9.28123 23.4197 9.28123 22.5001C9.28123 21.5805 10.0385 20.8334 10.9687 20.8334C11.8992 20.8334 12.6564 21.5805 12.6564 22.5001C12.6564 23.4197 11.899 24.1667 10.9687 24.1667Z" fill="black"/>
<path d="M85.2187 15.0001C81.0312 15.0001 77.625 18.3645 77.625 22.5001C77.625 26.6357 81.0312 30 85.2187 30C89.4061 30 92.8125 26.6357 92.8125 22.5001C92.8125 18.3645 89.4063 15.0001 85.2187 15.0001ZM85.2187 28.3334C81.9625 28.3334 79.3125 25.7165 79.3125 22.5001C79.3125 19.2841 81.9623 16.6668 85.2187 16.6668C88.4748 16.6668 91.1251 19.2841 91.1251 22.5001C91.1251 25.7163 88.4748 28.3334 85.2187 28.3334Z" fill="black"/>
<path d="M85.2187 19.1667C83.3565 19.1667 81.8438 20.6625 81.8438 22.5001C81.8438 24.3376 83.3565 25.8334 85.2187 25.8334C87.0809 25.8334 88.5937 24.3376 88.5937 22.5001C88.5937 20.6625 87.0809 19.1667 85.2187 19.1667ZM85.2187 24.1667C84.2895 24.1667 83.5312 23.4197 83.5312 22.5001C83.5312 21.5805 84.2895 20.8334 85.2187 20.8334C86.1481 20.8334 86.9062 21.5805 86.9062 22.5001C86.9062 23.4197 86.1481 24.1667 85.2187 24.1667Z" fill="black"/>
<path d="M14.3438 5H0.84374C0.377457 5 0 5.37259 0 5.83333V19.1666C0 19.3879 0.0890369 19.5994 0.247278 19.7557L1.93476 21.4223C2.09954 21.5851 2.31538 21.6666 2.53122 21.6666C2.74706 21.6666 2.9629 21.5853 3.12789 21.4223C3.45746 21.0971 3.45746 20.5696 3.12789 20.2441L1.68748 18.8217V6.66666H13.5001V12.1549L12.0596 13.5775C11.7301 13.9028 11.7301 14.4302 12.0596 14.7557C12.3892 15.0812 12.9232 15.0812 13.2528 14.7557L14.9403 13.0891C15.0985 12.9328 15.1875 12.7213 15.1875 12.5V5.83333C15.1875 5.37259 14.8101 5 14.3438 5Z" fill="black"/>
<path d="M107.156 26.6668H93.6562C93.1897 26.6668 92.8125 27.0396 92.8125 27.5003C92.8125 27.9609 93.1897 28.3335 93.6562 28.3335H107.156C107.623 28.3335 108 27.9609 108 27.5003C108 27.0396 107.623 26.6668 107.156 26.6668Z" fill="black"/>
<path d="M107.156 21.6667C106.69 21.6667 106.312 22.0395 106.312 22.5001V27.5002C106.312 27.9608 106.69 28.3334 107.156 28.3334C107.623 28.3334 108 27.9608 108 27.5002V22.5001C108 22.0395 107.623 21.6667 107.156 21.6667Z" fill="black"/>
<path d="M107.156 21.6667H97.0312C96.5647 21.6667 96.1875 22.0395 96.1875 22.5001C96.1875 22.9608 96.5647 23.3334 97.0312 23.3334H107.156C107.623 23.3334 108 22.9608 108 22.5001C108 22.0395 107.623 21.6667 107.156 21.6667Z" fill="black"/>
<path d="M26.1562 18.3334H19.4062C18.94 18.3334 18.5625 18.7062 18.5625 19.1668C18.5625 19.6273 18.94 20.0001 19.4062 20.0001H26.1562C26.6227 20.0001 26.9999 19.6273 26.9999 19.1668C26.9999 18.7062 26.6224 18.3334 26.1562 18.3334Z" fill="black"/>
<path d="M58.2187 16.6667C57.7525 16.6667 57.375 17.0395 57.375 17.5001V20.8334C57.375 21.2941 57.7525 21.6667 58.2187 21.6667C58.6852 21.6667 59.0625 21.2941 59.0625 20.8334V17.5001C59.0625 17.0395 58.6852 16.6667 58.2187 16.6667Z" fill="black"/>
<path d="M63.2815 10.0001C62.815 10.0001 62.4375 10.3727 62.4375 10.8334V14.3474C62.4375 14.8079 62.815 15.1807 63.2815 15.1807C63.7477 15.1807 64.125 14.8079 64.125 14.3474V10.8334C64.125 10.3727 63.7477 10.0001 63.2815 10.0001Z" fill="black"/>
<path d="M64.9689 10.0001H61.594C61.1275 10.0001 60.75 10.3727 60.75 10.8334C60.75 11.2939 61.1275 11.6667 61.594 11.6667H64.9689C65.4352 11.6667 65.8127 11.2939 65.8127 10.8334C65.8127 10.3727 65.4352 10.0001 64.9689 10.0001Z" fill="black"/>
<path d="M71.7187 13.3334C71.2522 13.3334 70.875 13.7062 70.875 14.1667V14.6858C70.875 15.1465 71.2522 15.5191 71.7187 15.5191C72.185 15.5191 72.5625 15.1465 72.5625 14.6858V14.1667C72.5625 13.7062 72.185 13.3334 71.7187 13.3334Z" fill="black"/>
<path d="M7.59387 8.33337H0.84374C0.377457 8.33337 0 8.70596 0 9.1667C0 9.62723 0.377457 10 0.84374 10H7.59366C8.06015 10 8.4374 9.62723 8.43761 9.1667C8.43761 8.70596 8.06015 8.33337 7.59387 8.33337Z" fill="black"/>
<path d="M93.6563 6.66675H80.1562C79.69 6.66675 79.3125 7.03934 79.3125 7.50007C79.3125 7.9606 79.69 8.33341 80.1562 8.33341H93.6563C94.1226 8.33341 94.5 7.9606 94.5 7.50007C94.5 7.03934 94.1226 6.66675 93.6563 6.66675Z" fill="black"/>
<path d="M76.7812 6.66675H75.0937C74.6272 6.66675 74.25 7.03934 74.25 7.50007C74.25 7.9606 74.6272 8.33341 75.0937 8.33341H76.7812C77.2477 8.33341 77.625 7.9606 77.625 7.50007C77.625 7.03934 77.2477 6.66675 76.7812 6.66675Z" fill="black"/>
<path d="M73.4064 0H51.4687C51.0025 0 50.625 0.372589 50.625 0.833327C50.625 1.29386 51.0025 1.66666 51.4687 1.66666H73.4064C73.8727 1.66666 74.2501 1.29386 74.2501 0.833327C74.2501 0.372589 73.8729 0 73.4064 0Z" fill="black"/>
<path d="M80.1562 0H76.7812C76.3147 0 75.9375 0.372589 75.9375 0.833327C75.9375 1.29386 76.3147 1.66666 76.7812 1.66666H80.1562C80.6227 1.66666 80.9999 1.29386 80.9999 0.833327C80.9999 0.372589 80.6227 0 80.1562 0Z" fill="black"/>
</svg>
