<svg width="11" height="11" viewBox="0 0 11 11" fill="none" xmlns="http://www.w3.org/2000/svg">
<path d="M6.70176 9.99922C7.01484 10.1129 7.33477 10.1699 7.65762 10.1699C7.7918 10.1699 7.92656 10.1598 8.06133 10.14C8.49141 10.077 8.90879 9.91055 9.26855 9.6584C9.62988 9.40528 9.93047 9.06778 10.1377 8.68242C10.3586 8.27149 10.4707 7.82305 10.4707 7.34922C10.4707 7.20196 10.3678 7.07461 10.2236 7.04375L7.93477 6.55332C7.83105 6.53106 7.72324 6.56289 7.64824 6.63789L6.81016 7.47598C5.23828 6.68535 3.95527 5.40235 3.16465 3.83047L4.00273 2.99239C4.07773 2.91739 4.10957 2.80957 4.0873 2.70586L3.59687 0.416995C3.56602 0.272854 3.43867 0.169925 3.29141 0.169925C2.81758 0.169925 2.36914 0.282034 1.95801 0.502933C1.57266 0.710159 1.23516 1.01075 0.98203 1.37207C0.730077 1.73184 0.563476 2.14922 0.50039 2.5793C0.433007 3.03828 0.480468 3.49571 0.641405 3.93887C1.14238 5.31758 1.95801 6.59746 3.00059 7.64004C4.04316 8.68262 5.32285 9.49844 6.70176 9.99922Z" fill="#F2F2F2"/>
</svg>
