<svg width="20" height="16" viewBox="0 0 20 16" fill="none" xmlns="http://www.w3.org/2000/svg">
<path d="M5.5 7C6.32843 7 7 6.32843 7 5.5C7 4.67157 6.32843 4 5.5 4C4.67157 4 4 4.67157 4 5.5C4 6.32843 4.67157 7 5.5 7Z" fill="white" fill-opacity="0.7"/>
<path d="M8.5 10L7 8L4 12H16L11.5 6L8.5 10Z" fill="white" fill-opacity="0.7"/>
<path d="M18 0H2C0.897 0 0 0.897 0 2V14C0 15.103 0.897 16 2 16H18C19.103 16 20 15.103 20 14V2C20 0.897 19.103 0 18 0ZM2 14V2H18L18.002 14H2Z" fill="white" fill-opacity="0.7"/>
</svg>
