<svg width="114" height="41" viewBox="0 0 114 41" fill="none" xmlns="http://www.w3.org/2000/svg">
<path d="M113.109 23.1739H109.547C109.055 23.1739 108.656 23.5724 108.656 24.0652C108.656 24.558 109.055 24.9565 109.547 24.9565H112.219V32.0868H104.203C103.711 32.0868 103.312 32.4856 103.312 32.9781C103.312 33.4709 103.711 33.8696 104.203 33.8696H113.109C113.602 33.8696 114 33.4709 114 32.9781V24.0652C114 23.5724 113.602 23.1739 113.109 23.1739Z" fill="black"/>
<path d="M107.849 14.2654L86.9718 12.2956C85.387 10.2832 76.6303 0 63.2346 0H38.2969C37.8047 0 37.4063 0.398733 37.4063 0.891295V12.4783H2.67186C2.17968 12.4783 1.78125 12.8768 1.78125 13.3696V24.0652C1.78125 24.5579 2.17968 24.9564 2.67186 24.9564C3.16427 24.9564 3.56248 24.5579 3.56248 24.0652V14.2609H38.2969C38.7891 14.2609 39.1875 13.8622 39.1875 13.3696V1.78259H63.2343C76.851 1.78259 85.6966 13.5566 85.7852 13.6759C85.9349 13.8796 86.166 14.0102 86.4184 14.0336L107.682 16.0391C108.16 16.107 108.606 15.7257 108.653 15.2358C108.698 14.7457 108.34 14.3115 107.849 14.2654Z" fill="black"/>
<path d="M15.1407 32.087H0.890615C0.398427 32.087 0 32.4857 0 32.9783C0 33.4711 0.398427 33.8698 0.890615 33.8698H15.1407C15.6329 33.8698 16.0313 33.4711 16.0313 32.9783C16.0313 32.4857 15.6329 32.087 15.1407 32.087Z" fill="black"/>
<path d="M84.6095 32.1426H34.7344C34.2422 32.1426 33.8438 32.5414 33.8438 33.0339C33.8438 33.5267 34.2422 33.9252 34.7344 33.9252H84.6095C85.1019 33.9252 85.5001 33.5267 85.5001 33.0339C85.5001 32.5414 85.1019 32.1426 84.6095 32.1426Z" fill="black"/>
<path d="M45.4218 17.8261H41.8594C41.367 17.8261 40.9688 18.2248 40.9688 18.7174C40.9688 19.21 41.367 19.6087 41.8594 19.6087H45.4218C45.914 19.6087 46.3124 19.21 46.3124 18.7174C46.3124 18.2248 45.914 17.8261 45.4218 17.8261Z" fill="black"/>
<path d="M84.6093 12.4783H41.8594C41.367 12.4783 40.9688 12.8768 40.9688 13.3696C40.9688 13.8621 41.367 14.2609 41.8594 14.2609H84.6093C85.1017 14.2609 85.4999 13.8621 85.4999 13.3696C85.4999 12.8768 85.1017 12.4783 84.6093 12.4783Z" fill="black"/>
<path d="M57.8906 1.78259C57.3984 1.78259 57 2.18132 57 2.67388V11.587C57 12.0796 57.3984 12.4783 57.8906 12.4783C58.383 12.4783 58.7812 12.0796 58.7812 11.587V2.67388C58.7812 2.18132 58.383 1.78259 57.8906 1.78259Z" fill="black"/>
<path d="M4.56443 24.9565H0.890615C0.398427 24.9565 0 25.3553 0 25.8478C0 26.3406 0.398427 26.7391 0.890615 26.7391H4.56443C5.05684 26.7391 5.45504 26.3406 5.45504 25.8478C5.45504 25.3553 5.05684 24.9565 4.56443 24.9565Z" fill="black"/>
<path d="M0.890615 24.9565C0.398427 24.9565 0 25.3553 0 25.8478V32.9782C0 33.471 0.398427 33.8697 0.890615 33.8697C1.38302 33.8697 1.78123 33.471 1.78123 32.9782V25.8478C1.78123 25.3553 1.38302 24.9565 0.890615 24.9565Z" fill="black"/>
<path d="M6.23459 16.0435C5.74218 16.0435 5.34375 16.442 5.34375 16.9347V22.2825C5.34375 22.7753 5.7424 23.1738 6.23459 23.1738C6.727 23.1738 7.1252 22.7753 7.1252 22.2825V16.9347C7.1252 16.442 6.727 16.0435 6.23459 16.0435Z" fill="black"/>
<path d="M6.23455 21.3913H2.67186C2.17968 21.3913 1.78125 21.7898 1.78125 22.2826C1.78125 22.7754 2.17968 23.1739 2.67186 23.1739H6.23432C6.72673 23.1739 7.12516 22.7754 7.12516 22.2826C7.12516 21.7898 6.72673 21.3913 6.23455 21.3913Z" fill="black"/>
<path d="M6.23455 16.0435H2.67186C2.17968 16.0435 1.78125 16.442 1.78125 16.9347C1.78125 17.4273 2.17968 17.826 2.67186 17.826H6.23432C6.72673 17.826 7.12494 17.4273 7.12516 16.9347C7.12516 16.442 6.72673 16.0435 6.23455 16.0435Z" fill="black"/>
<path d="M94.4064 23.1739C89.4956 23.1739 85.5 27.1726 85.5 32.0868C85.5 37.0013 89.4956 41 94.4064 41C99.3169 41 103.313 37.0011 103.313 32.0868C103.313 27.1726 99.3169 23.1739 94.4064 23.1739ZM94.4064 39.2172C90.4769 39.2172 87.2812 36.0175 87.2812 32.0866C87.2812 28.1559 90.4767 24.9562 94.4064 24.9562C98.3356 24.9562 101.531 28.1561 101.531 32.0866C101.531 36.0175 98.3358 39.2172 94.4064 39.2172Z" fill="black"/>
<path d="M94.4601 31.1956H94.4409C93.9503 31.1956 93.5605 31.5943 93.5605 32.0869C93.5605 32.5797 93.9677 32.9782 94.4601 32.9782C94.9505 32.9782 95.3505 32.5797 95.3505 32.0869C95.3505 31.5943 94.9505 31.1956 94.4601 31.1956Z" fill="black"/>
<path d="M94.4065 26.7391C93.9141 26.7391 93.5156 27.1379 93.5156 27.6304V29.413C93.5156 29.9058 93.9141 30.3043 94.4065 30.3043C94.8986 30.3043 95.2969 29.9058 95.2969 29.413V27.6304C95.2969 27.1379 94.8986 26.7391 94.4065 26.7391Z" fill="black"/>
<path d="M94.4065 33.8696C93.9141 33.8696 93.5156 34.2681 93.5156 34.7606V36.5432C93.5156 37.036 93.9141 37.4347 94.4065 37.4347C94.8986 37.4347 95.2969 37.036 95.2969 36.5432V34.7606C95.2969 34.2681 94.8986 33.8696 94.4065 33.8696Z" fill="black"/>
<path d="M93.1472 29.567L91.8878 28.3069C91.5401 27.9587 90.9765 27.9587 90.6286 28.3069C90.2807 28.6548 90.2807 29.2189 90.6286 29.567L91.8878 30.8274C92.0617 31.0013 92.2898 31.0884 92.5176 31.0884C92.7452 31.0884 92.973 31.0013 93.1472 30.8274C93.4951 30.4793 93.4951 29.9152 93.1472 29.567Z" fill="black"/>
<path d="M98.185 34.608L96.9256 33.3478C96.5777 32.9997 96.0141 32.9997 95.6662 33.3478C95.3183 33.696 95.3183 34.2599 95.6662 34.608L96.9256 35.8684C97.0993 36.0425 97.3274 36.1296 97.5552 36.1296C97.783 36.1296 98.0111 36.0425 98.185 35.8684C98.5329 35.5205 98.5329 34.9561 98.185 34.608Z" fill="black"/>
<path d="M91.7344 31.1956H89.9531C89.4609 31.1956 89.0625 31.5943 89.0625 32.0869C89.0625 32.5797 89.4609 32.9782 89.9531 32.9782H91.7344C92.2268 32.9782 92.6252 32.5797 92.6252 32.0869C92.6252 31.5943 92.2268 31.1956 91.7344 31.1956Z" fill="black"/>
<path d="M98.8593 31.1956H97.0779C96.5857 31.1956 96.1875 31.5943 96.1875 32.0869C96.1875 32.5797 96.5857 32.9782 97.0779 32.9782H98.8593C99.3515 32.9782 99.75 32.5797 99.75 32.0869C99.75 31.5943 99.3515 31.1956 98.8593 31.1956Z" fill="black"/>
<path d="M93.1467 33.3478C92.7988 32.9997 92.2352 32.9997 91.8873 33.3478L90.6281 34.608C90.2802 34.9561 90.2802 35.5202 90.6281 35.8684C90.802 36.0425 91.0299 36.1296 91.2577 36.1296C91.4857 36.1296 91.7134 36.0425 91.8873 35.8684L93.1467 34.608C93.4946 34.2599 93.4946 33.696 93.1467 33.3478Z" fill="black"/>
<path d="M98.1845 28.3069C97.8367 27.9587 97.273 27.9587 96.9251 28.3069L95.6657 29.567C95.3178 29.9152 95.3178 30.4793 95.6657 30.8274C95.8396 31.0013 96.0677 31.0884 96.2955 31.0884C96.5233 31.0884 96.7512 31.0013 96.9251 30.8274L98.1845 29.567C98.5324 29.2189 98.5324 28.655 98.1845 28.3069Z" fill="black"/>
<path d="M24.9374 23.1739C20.0269 23.1739 16.0312 27.1726 16.0312 32.0868C16.0312 37.0013 20.0269 41 24.9374 41C29.8481 41 33.8438 37.0011 33.8438 32.0868C33.8438 27.1726 29.8481 23.1739 24.9374 23.1739ZM24.9374 39.2172C21.0079 39.2172 17.8125 36.0175 17.8125 32.0866C17.8125 28.1559 21.0077 24.9562 24.9374 24.9562C28.8671 24.9562 32.0623 28.1561 32.0623 32.0866C32.0623 36.0175 28.8669 39.2172 24.9374 39.2172Z" fill="black"/>
<path d="M24.9911 31.1956H24.9719C24.4815 31.1956 24.0918 31.5943 24.0918 32.0869C24.0918 32.5797 24.4989 32.9782 24.9911 32.9782C25.4817 32.9782 25.8817 32.5797 25.8817 32.0869C25.8817 31.5943 25.4817 31.1956 24.9911 31.1956Z" fill="black"/>
<path d="M24.9375 26.7391C24.4453 26.7391 24.0469 27.1379 24.0469 27.6304V29.413C24.0469 29.9058 24.4453 30.3043 24.9375 30.3043C25.4299 30.3043 25.8281 29.9058 25.8281 29.413V27.6304C25.8281 27.1379 25.4297 26.7391 24.9375 26.7391Z" fill="black"/>
<path d="M24.9375 33.8696C24.4453 33.8696 24.0469 34.2681 24.0469 34.7606V36.5432C24.0469 37.036 24.4453 37.4347 24.9375 37.4347C25.4299 37.4347 25.8281 37.036 25.8281 36.5432V34.7606C25.8281 34.2681 25.4297 33.8696 24.9375 33.8696Z" fill="black"/>
<path d="M23.6782 29.567L22.4188 28.3069C22.0709 27.9587 21.5072 27.9587 21.1593 28.3069C20.8115 28.6548 20.8115 29.2189 21.1593 29.567L22.4188 30.8274C22.5927 31.0013 22.8205 31.0884 23.0484 31.0884C23.2762 31.0884 23.504 31.0013 23.6782 30.8274C24.0261 30.4793 24.0261 29.9152 23.6782 29.567Z" fill="black"/>
<path d="M28.7156 34.608L27.4561 33.3478C27.1085 32.9997 26.5448 32.9997 26.1969 33.3478C25.8491 33.696 25.8491 34.2599 26.1969 34.608L27.4561 35.8684C27.6301 36.0425 27.8581 36.1296 28.086 36.1296C28.3138 36.1296 28.5416 36.0425 28.7156 35.8684C29.0634 35.5205 29.0634 34.9561 28.7156 34.608Z" fill="black"/>
<path d="M22.2656 31.1956H20.4844C19.9922 31.1956 19.5938 31.5943 19.5938 32.0869C19.5938 32.5797 19.9922 32.9782 20.4844 32.9782H22.2656C22.758 32.9782 23.1562 32.5797 23.1562 32.0869C23.1562 31.5943 22.7578 31.1956 22.2656 31.1956Z" fill="black"/>
<path d="M29.3906 31.1956H27.6094C27.1172 31.1956 26.7188 31.5943 26.7188 32.0869C26.7188 32.5797 27.1172 32.9782 27.6094 32.9782H29.3906C29.883 32.9782 30.2812 32.5797 30.2812 32.0869C30.2812 31.5943 29.883 31.1956 29.3906 31.1956Z" fill="black"/>
<path d="M23.6782 33.3478C23.3303 32.9997 22.7666 32.9997 22.4188 33.3478L21.1593 34.608C20.8115 34.9561 20.8115 35.5202 21.1593 35.8684C21.3335 36.0425 21.5613 36.1296 21.7892 36.1296C22.017 36.1296 22.2448 36.0425 22.4188 35.8684L23.6782 34.608C24.0261 34.2599 24.0261 33.696 23.6782 33.3478Z" fill="black"/>
<path d="M28.7156 28.3069C28.3677 27.9587 27.804 27.9587 27.4561 28.3069L26.1969 29.567C25.8491 29.9152 25.8491 30.4793 26.1969 30.8274C26.3709 31.0013 26.5987 31.0884 26.8265 31.0884C27.0544 31.0884 27.2822 31.0013 27.4561 30.8274L28.7156 29.567C29.0634 29.2189 29.0634 28.655 28.7156 28.3069Z" fill="black"/>
<path d="M112.193 22.0663L110.412 14.936C110.292 14.4572 109.798 14.1657 109.331 14.2876C108.853 14.4066 108.564 14.8907 108.683 15.3677L110.464 22.4983C110.565 22.9037 110.929 23.1736 111.329 23.1736C111.4 23.1736 111.473 23.1649 111.544 23.1457C112.022 23.0274 112.311 22.5435 112.193 22.0663Z" fill="black"/>
<path d="M110.437 17.8261H104.203C103.711 17.8261 103.312 18.2248 103.312 18.7174C103.312 19.21 103.711 19.6087 104.203 19.6087H110.437C110.93 19.6087 111.328 19.21 111.328 18.7174C111.328 18.2248 110.93 17.8261 110.437 17.8261Z" fill="black"/>
<path d="M104.203 13.7566C103.711 13.7566 103.312 14.1553 103.312 14.6479V18.7181C103.312 19.2107 103.711 19.6094 104.203 19.6094C104.695 19.6094 105.094 19.2107 105.094 18.7181V14.6479C105.094 14.1553 104.695 13.7566 104.203 13.7566Z" fill="black"/>
<path d="M63.2346 17.8261H59.6719C59.1797 17.8261 58.7812 18.2248 58.7812 18.7174C58.7812 19.21 59.1797 19.6087 59.6719 19.6087H63.2346C63.7267 19.6087 64.1249 19.21 64.1249 18.7174C64.1249 18.2248 63.7267 17.8261 63.2346 17.8261Z" fill="black"/>
</svg>
