<svg width="105" height="41" viewBox="0 0 105 41" fill="none" xmlns="http://www.w3.org/2000/svg">
<circle cx="77.0543" cy="0.97619" r="0.97619" fill="white" fill-opacity="0.4"/>
<circle cx="85.8395" cy="0.97619" r="0.97619" fill="white" fill-opacity="0.4"/>
<circle cx="94.6266" cy="0.97619" r="0.97619" fill="white" fill-opacity="0.4"/>
<circle cx="103.412" cy="0.97619" r="0.97619" fill="white" fill-opacity="0.4"/>
<circle cx="77.0543" cy="8.78478" r="0.97619" fill="white" fill-opacity="0.4"/>
<circle cx="85.8395" cy="8.78478" r="0.97619" fill="white" fill-opacity="0.4"/>
<circle cx="94.6266" cy="8.78478" r="0.97619" fill="white" fill-opacity="0.4"/>
<circle cx="103.412" cy="8.78478" r="0.97619" fill="white" fill-opacity="0.4"/>
<circle cx="77.0543" cy="16.5973" r="0.97619" fill="white" fill-opacity="0.4"/>
<circle cx="85.8395" cy="16.5973" r="0.97619" fill="white" fill-opacity="0.4"/>
<circle cx="94.6246" cy="16.5973" r="0.97619" fill="white" fill-opacity="0.4"/>
<circle cx="103.412" cy="16.5973" r="0.97619" fill="white" fill-opacity="0.4"/>
<circle cx="77.0543" cy="24.4059" r="0.97619" fill="white" fill-opacity="0.4"/>
<circle cx="85.8395" cy="24.4059" r="0.97619" fill="white" fill-opacity="0.4"/>
<circle cx="94.6246" cy="24.4059" r="0.97619" fill="white" fill-opacity="0.4"/>
<circle cx="103.412" cy="24.4059" r="0.97619" fill="white" fill-opacity="0.4"/>
<circle cx="77.0543" cy="32.2145" r="0.97619" fill="white" fill-opacity="0.4"/>
<circle cx="85.8395" cy="32.2145" r="0.97619" fill="white" fill-opacity="0.4"/>
<circle cx="94.6246" cy="32.2145" r="0.97619" fill="white" fill-opacity="0.4"/>
<circle cx="103.412" cy="32.2145" r="0.97619" fill="white" fill-opacity="0.4"/>
<circle cx="77.0543" cy="40.0231" r="0.97619" fill="white" fill-opacity="0.4"/>
<circle cx="85.8395" cy="40.0231" r="0.97619" fill="white" fill-opacity="0.4"/>
<circle cx="94.6246" cy="40.0231" r="0.97619" fill="white" fill-opacity="0.4"/>
<circle cx="103.412" cy="40.0231" r="0.97619" fill="white" fill-opacity="0.4"/>
<circle cx="41.2496" cy="0.97619" r="0.97619" fill="white" fill-opacity="0.4"/>
<circle cx="50.0348" cy="0.97619" r="0.97619" fill="white" fill-opacity="0.4"/>
<circle cx="58.8219" cy="0.97619" r="0.97619" fill="white" fill-opacity="0.4"/>
<circle cx="67.607" cy="0.97619" r="0.97619" fill="white" fill-opacity="0.4"/>
<circle cx="41.2496" cy="8.78478" r="0.97619" fill="white" fill-opacity="0.4"/>
<circle cx="50.0348" cy="8.78478" r="0.97619" fill="white" fill-opacity="0.4"/>
<circle cx="58.8219" cy="8.78478" r="0.97619" fill="white" fill-opacity="0.4"/>
<circle cx="67.607" cy="8.78478" r="0.97619" fill="white" fill-opacity="0.4"/>
<circle cx="41.2496" cy="16.5973" r="0.97619" fill="white" fill-opacity="0.4"/>
<circle cx="50.0348" cy="16.5973" r="0.97619" fill="white" fill-opacity="0.4"/>
<circle cx="58.8199" cy="16.5973" r="0.97619" fill="white" fill-opacity="0.4"/>
<circle cx="67.607" cy="16.5973" r="0.97619" fill="white" fill-opacity="0.4"/>
<circle cx="41.2496" cy="24.4059" r="0.97619" fill="white" fill-opacity="0.4"/>
<circle cx="50.0348" cy="24.4059" r="0.97619" fill="white" fill-opacity="0.4"/>
<circle cx="58.8199" cy="24.4059" r="0.97619" fill="white" fill-opacity="0.4"/>
<circle cx="67.607" cy="24.4059" r="0.97619" fill="white" fill-opacity="0.4"/>
<circle cx="41.2496" cy="32.2145" r="0.97619" fill="white" fill-opacity="0.4"/>
<circle cx="50.0348" cy="32.2145" r="0.97619" fill="white" fill-opacity="0.4"/>
<circle cx="58.8199" cy="32.2145" r="0.97619" fill="white" fill-opacity="0.4"/>
<circle cx="67.607" cy="32.2145" r="0.97619" fill="white" fill-opacity="0.4"/>
<circle cx="41.2496" cy="40.0231" r="0.97619" fill="white" fill-opacity="0.4"/>
<circle cx="50.0348" cy="40.0231" r="0.97619" fill="white" fill-opacity="0.4"/>
<circle cx="58.8199" cy="40.0231" r="0.97619" fill="white" fill-opacity="0.4"/>
<circle cx="67.607" cy="40.0231" r="0.97619" fill="white" fill-opacity="0.4"/>
<circle cx="5.97619" cy="0.97619" r="0.97619" fill="white" fill-opacity="0.4"/>
<circle cx="14.7613" cy="0.97619" r="0.97619" fill="white" fill-opacity="0.4"/>
<circle cx="23.5485" cy="0.97619" r="0.97619" fill="white" fill-opacity="0.4"/>
<circle cx="32.3336" cy="0.97619" r="0.97619" fill="white" fill-opacity="0.4"/>
<circle cx="5.97619" cy="8.78478" r="0.97619" fill="white" fill-opacity="0.4"/>
<circle cx="14.7613" cy="8.78478" r="0.97619" fill="white" fill-opacity="0.4"/>
<circle cx="23.5485" cy="8.78478" r="0.97619" fill="white" fill-opacity="0.4"/>
<circle cx="32.3336" cy="8.78478" r="0.97619" fill="white" fill-opacity="0.4"/>
<circle cx="5.97619" cy="16.5973" r="0.97619" fill="white" fill-opacity="0.4"/>
<circle cx="14.7613" cy="16.5973" r="0.97619" fill="white" fill-opacity="0.4"/>
<circle cx="23.5465" cy="16.5973" r="0.97619" fill="white" fill-opacity="0.4"/>
<circle cx="32.3336" cy="16.5973" r="0.97619" fill="white" fill-opacity="0.4"/>
<circle cx="5.97619" cy="24.4059" r="0.97619" fill="white" fill-opacity="0.4"/>
<circle cx="14.7613" cy="24.4059" r="0.97619" fill="white" fill-opacity="0.4"/>
<circle cx="23.5465" cy="24.4059" r="0.97619" fill="white" fill-opacity="0.4"/>
<circle cx="32.3336" cy="24.4059" r="0.97619" fill="white" fill-opacity="0.4"/>
<circle cx="5.97619" cy="32.2145" r="0.97619" fill="white" fill-opacity="0.4"/>
<circle cx="14.7613" cy="32.2145" r="0.97619" fill="white" fill-opacity="0.4"/>
<circle cx="23.5465" cy="32.2145" r="0.97619" fill="white" fill-opacity="0.4"/>
<circle cx="32.3336" cy="32.2145" r="0.97619" fill="white" fill-opacity="0.4"/>
<circle cx="5.97619" cy="40.0231" r="0.97619" fill="white" fill-opacity="0.4"/>
<circle cx="14.7613" cy="40.0231" r="0.97619" fill="white" fill-opacity="0.4"/>
<circle cx="23.5465" cy="40.0231" r="0.97619" fill="white" fill-opacity="0.4"/>
<circle cx="32.3336" cy="40.0231" r="0.97619" fill="white" fill-opacity="0.4"/>
<rect x="8.27344" y="16.5469" width="3.05367" height="11.6997" transform="rotate(-135 8.27344 16.5469)" fill="#F8C800"/>
<rect x="16.5469" y="8.27344" width="3.05367" height="11.6997" transform="rotate(135 16.5469 8.27344)" fill="#F8C800"/>
<rect x="20.5801" y="16.5469" width="3.05367" height="11.6997" transform="rotate(-135 20.5801 16.5469)" fill="#F8C800"/>
<rect x="28.8535" y="8.27344" width="3.05367" height="11.6997" transform="rotate(135 28.8535 8.27344)" fill="#F8C800"/>
<rect x="32.8848" y="16.5469" width="3.05367" height="11.6997" transform="rotate(-135 32.8848 16.5469)" fill="#F8C800"/>
<rect x="41.1582" y="8.27344" width="3.05367" height="11.6997" transform="rotate(135 41.1582 8.27344)" fill="#F8C800"/>
<rect x="45.1914" y="16.5469" width="3.05367" height="11.6997" transform="rotate(-135 45.1914 16.5469)" fill="#F8C800"/>
<rect x="53.4648" y="8.27344" width="3.05367" height="11.6997" transform="rotate(135 53.4648 8.27344)" fill="#F8C800"/>
<rect x="56.8496" y="16.5469" width="3.05367" height="11.6997" transform="rotate(-135 56.8496 16.5469)" fill="#F8C800"/>
<rect x="65.123" y="8.27344" width="3.05367" height="11.6997" transform="rotate(135 65.123 8.27344)" fill="#F8C800"/>
</svg>
