<svg width="96" height="41" viewBox="0 0 96 41" fill="none" xmlns="http://www.w3.org/2000/svg">
<circle cx="72.0543" cy="0.97619" r="0.97619" fill="white" fill-opacity="0.4"/>
<circle cx="80.8395" cy="0.97619" r="0.97619" fill="white" fill-opacity="0.4"/>
<circle cx="89.6266" cy="0.97619" r="0.97619" fill="white" fill-opacity="0.4"/>
<circle cx="72.0543" cy="8.78478" r="0.97619" fill="white" fill-opacity="0.4"/>
<circle cx="80.8395" cy="8.78478" r="0.97619" fill="white" fill-opacity="0.4"/>
<circle cx="89.6266" cy="8.78478" r="0.97619" fill="white" fill-opacity="0.4"/>
<circle cx="72.0543" cy="16.5973" r="0.97619" fill="white" fill-opacity="0.4"/>
<circle cx="80.8395" cy="16.5973" r="0.97619" fill="white" fill-opacity="0.4"/>
<circle cx="89.6246" cy="16.5973" r="0.97619" fill="white" fill-opacity="0.4"/>
<circle cx="72.0543" cy="24.4059" r="0.97619" fill="white" fill-opacity="0.4"/>
<circle cx="80.8395" cy="24.4059" r="0.97619" fill="white" fill-opacity="0.4"/>
<circle cx="89.6246" cy="24.4059" r="0.97619" fill="white" fill-opacity="0.4"/>
<circle cx="72.0543" cy="32.2145" r="0.97619" fill="white" fill-opacity="0.4"/>
<circle cx="80.8395" cy="32.2145" r="0.97619" fill="white" fill-opacity="0.4"/>
<circle cx="89.6246" cy="32.2145" r="0.97619" fill="white" fill-opacity="0.4"/>
<circle cx="72.0543" cy="40.0231" r="0.97619" fill="white" fill-opacity="0.4"/>
<circle cx="80.8395" cy="40.0231" r="0.97619" fill="white" fill-opacity="0.4"/>
<circle cx="89.6246" cy="40.0231" r="0.97619" fill="white" fill-opacity="0.4"/>
<circle cx="36.2496" cy="0.97619" r="0.97619" fill="white" fill-opacity="0.4"/>
<circle cx="45.0348" cy="0.97619" r="0.97619" fill="white" fill-opacity="0.4"/>
<circle cx="53.8219" cy="0.97619" r="0.97619" fill="white" fill-opacity="0.4"/>
<circle cx="62.607" cy="0.97619" r="0.97619" fill="white" fill-opacity="0.4"/>
<circle cx="36.2496" cy="8.78478" r="0.97619" fill="white" fill-opacity="0.4"/>
<circle cx="45.0348" cy="8.78478" r="0.97619" fill="white" fill-opacity="0.4"/>
<circle cx="53.8219" cy="8.78478" r="0.97619" fill="white" fill-opacity="0.4"/>
<circle cx="62.607" cy="8.78478" r="0.97619" fill="white" fill-opacity="0.4"/>
<circle cx="36.2496" cy="16.5973" r="0.97619" fill="white" fill-opacity="0.4"/>
<circle cx="45.0348" cy="16.5973" r="0.97619" fill="white" fill-opacity="0.4"/>
<circle cx="53.8199" cy="16.5973" r="0.97619" fill="white" fill-opacity="0.4"/>
<circle cx="62.607" cy="16.5973" r="0.97619" fill="white" fill-opacity="0.4"/>
<circle cx="36.2496" cy="24.4059" r="0.97619" fill="white" fill-opacity="0.4"/>
<circle cx="45.0348" cy="24.4059" r="0.97619" fill="white" fill-opacity="0.4"/>
<circle cx="53.8199" cy="24.4059" r="0.97619" fill="white" fill-opacity="0.4"/>
<circle cx="62.607" cy="24.4059" r="0.97619" fill="white" fill-opacity="0.4"/>
<circle cx="36.2496" cy="32.2145" r="0.97619" fill="white" fill-opacity="0.4"/>
<circle cx="45.0348" cy="32.2145" r="0.97619" fill="white" fill-opacity="0.4"/>
<circle cx="53.8199" cy="32.2145" r="0.97619" fill="white" fill-opacity="0.4"/>
<circle cx="62.607" cy="32.2145" r="0.97619" fill="white" fill-opacity="0.4"/>
<circle cx="36.2496" cy="40.0231" r="0.97619" fill="white" fill-opacity="0.4"/>
<circle cx="45.0348" cy="40.0231" r="0.97619" fill="white" fill-opacity="0.4"/>
<circle cx="53.8199" cy="40.0231" r="0.97619" fill="white" fill-opacity="0.4"/>
<circle cx="62.607" cy="40.0231" r="0.97619" fill="white" fill-opacity="0.4"/>
<circle cx="0.97619" cy="0.97619" r="0.97619" fill="white" fill-opacity="0.4"/>
<circle cx="9.76135" cy="0.97619" r="0.97619" fill="white" fill-opacity="0.4"/>
<circle cx="18.5485" cy="0.97619" r="0.97619" fill="white" fill-opacity="0.4"/>
<circle cx="27.3336" cy="0.97619" r="0.97619" fill="white" fill-opacity="0.4"/>
<circle cx="0.97619" cy="8.78478" r="0.97619" fill="white" fill-opacity="0.4"/>
<circle cx="9.76135" cy="8.78478" r="0.97619" fill="white" fill-opacity="0.4"/>
<circle cx="18.5485" cy="8.78478" r="0.97619" fill="white" fill-opacity="0.4"/>
<circle cx="27.3336" cy="8.78478" r="0.97619" fill="white" fill-opacity="0.4"/>
<circle cx="0.97619" cy="16.5973" r="0.97619" fill="white" fill-opacity="0.4"/>
<circle cx="9.76135" cy="16.5973" r="0.97619" fill="white" fill-opacity="0.4"/>
<circle cx="18.5465" cy="16.5973" r="0.97619" fill="white" fill-opacity="0.4"/>
<circle cx="27.3336" cy="16.5973" r="0.97619" fill="white" fill-opacity="0.4"/>
<circle cx="0.97619" cy="24.4059" r="0.97619" fill="white" fill-opacity="0.4"/>
<circle cx="9.76135" cy="24.4059" r="0.97619" fill="white" fill-opacity="0.4"/>
<circle cx="18.5465" cy="24.4059" r="0.97619" fill="white" fill-opacity="0.4"/>
<circle cx="27.3336" cy="24.4059" r="0.97619" fill="white" fill-opacity="0.4"/>
<circle cx="0.97619" cy="32.2145" r="0.97619" fill="white" fill-opacity="0.4"/>
<circle cx="9.76135" cy="32.2145" r="0.97619" fill="white" fill-opacity="0.4"/>
<circle cx="18.5465" cy="32.2145" r="0.97619" fill="white" fill-opacity="0.4"/>
<circle cx="27.3336" cy="32.2145" r="0.97619" fill="white" fill-opacity="0.4"/>
<circle cx="0.97619" cy="40.0231" r="0.97619" fill="white" fill-opacity="0.4"/>
<circle cx="9.76135" cy="40.0231" r="0.97619" fill="white" fill-opacity="0.4"/>
<circle cx="18.5465" cy="40.0231" r="0.97619" fill="white" fill-opacity="0.4"/>
<circle cx="27.3336" cy="40.0231" r="0.97619" fill="white" fill-opacity="0.4"/>
</svg>
