<svg width="20" height="14" viewBox="0 0 20 14" fill="none" xmlns="http://www.w3.org/2000/svg">
    <path d="M19.8777 6.70527L13.6277 0.455271C13.465 0.292498 13.2013 0.292498 13.0386 0.455271C12.8758 0.618044 12.8758 0.881716 13.0386 1.04445L18.5773 6.5832L0.416497 6.5832C0.186184 6.5832 -0.000183105 6.76957 -0.000183105 6.99988C-0.000183105 7.23019 0.186184 7.41656 0.416497 7.41656L18.5773 7.41656L13.0386 12.9553C12.8758 13.118 12.8758 13.3817 13.0386 13.5444C13.1199 13.6258 13.2266 13.6665 13.3332 13.6665C13.4398 13.6665 13.5464 13.6258 13.6278 13.5444L19.8778 7.29445C20.0405 7.13172 20.0405 6.86804 19.8777 6.70527Z" fill="white"/>
</svg>
