<svg width="30" height="35" viewBox="0 0 30 35" fill="none" xmlns="http://www.w3.org/2000/svg">
<path d="M22.9876 12.949C22.4737 14.9624 21.2745 15.4059 20.6346 15.4949C20.2405 16.3023 19.3741 17.9525 18.5074 18.7816C18.161 19.1129 17.7108 19.3925 17.1694 19.6127C16.4782 19.8937 15.7482 20.0362 14.9999 20.0362C14.2516 20.0362 13.5216 19.8937 12.8304 19.6127C12.2892 19.3926 11.8388 19.113 11.4924 18.7816C10.6256 17.9526 9.75919 16.3023 9.36504 15.4949C8.72533 15.4059 7.52611 14.9625 7.0122 12.949C6.73735 11.8724 6.80773 10.9947 7.22151 10.3403C7.40439 10.051 7.62608 9.85406 7.83252 9.72068C7.83313 9.50574 7.84189 9.23665 7.8662 8.93057C7.49455 8.40135 6.98925 7.25952 7.61506 5.41128C8.27651 3.45736 9.77202 3.15562 10.4939 3.12947C10.7379 2.66462 11.199 2.00465 12.0362 1.39791C12.9656 0.724013 14.1791 0.352943 15.4533 0.352943C17.0211 0.352943 18.5988 0.918368 20.0156 1.9881C22.3127 3.72244 22.1159 7.56962 22.0596 8.26812C22.143 8.85366 22.1661 9.36152 22.1671 9.72052C22.3736 9.85391 22.5953 10.0509 22.7781 10.3401C23.1919 10.9947 23.2623 11.8722 22.9876 12.949ZM29.7057 27.9418V33.4028C29.7057 33.83 29.3676 34.1765 28.9506 34.1765H1.04903C0.63207 34.1765 0.293945 33.83 0.293945 33.4028V27.9418C0.293945 25.7045 1.60386 23.722 3.6311 22.891L10.2328 20.1852C10.4228 20.1075 10.6354 20.1117 10.8222 20.1978C11.0088 20.2835 11.1537 20.4433 11.2231 20.6405L12.8828 25.342L13.2114 24.3739L12.6886 23.0643C12.5935 22.8257 12.6203 22.5542 12.7606 22.3401C12.9009 22.1261 13.1359 21.9977 13.3875 21.9977H16.6123C16.8639 21.9977 17.099 22.1261 17.2392 22.3401C17.3795 22.5542 17.4063 22.8257 17.3112 23.0643L16.7884 24.3739L17.117 25.342L18.7767 20.6405C18.8461 20.4433 18.991 20.2835 19.1776 20.1978C19.3644 20.1119 19.5772 20.1077 19.767 20.1852L26.3687 22.891C28.3959 23.722 29.7057 25.7045 29.7057 27.9418ZM25.6863 28.5355C25.6863 28.1083 25.3481 27.7618 24.9312 27.7618H19.8616C19.4446 27.7618 19.1065 28.1083 19.1065 28.5355V30.9479C19.1065 31.3752 19.4446 31.7217 19.8616 31.7217H24.9312C25.3481 31.7217 25.6863 31.3752 25.6863 30.9479V28.5355Z" fill="#0F2442"/>
</svg>
