<svg width="36" height="40" viewBox="0 0 36 40" fill="none" xmlns="http://www.w3.org/2000/svg">
    <path d="M34.9912 10.853L34.99 10.8219C34.9726 10.4377 34.961 10.0312 34.954 9.57891C34.9213 7.37341 33.1681 5.54907 30.9623 5.42578C26.3633 5.16913 22.8056 3.6695 19.7657 0.706556L19.7398 0.681837C18.7483 -0.227279 17.2526 -0.227279 16.2608 0.681837L16.2349 0.706556C13.195 3.6695 9.63729 5.16913 5.0383 5.42609C2.83281 5.54907 1.07927 7.37341 1.04662 9.57921C1.0399 10.0284 1.028 10.4349 1.01061 10.8219L1.00877 10.8942C0.919359 15.5838 0.808275 21.4203 2.76078 26.7178C3.83439 29.631 5.46036 32.1634 7.59323 34.245C10.0224 36.6156 13.2042 38.4976 17.05 39.8385C17.1751 39.8822 17.3051 39.9176 17.4376 39.9441C17.6243 39.9813 17.8123 40 18.0003 40C18.1883 40 18.3766 39.9813 18.563 39.9441C18.6955 39.9176 18.8264 39.8819 18.9521 39.8379C22.7934 38.4945 25.9718 36.6116 28.3988 34.2413C30.5308 32.1591 32.1568 29.6262 33.2313 26.7123C35.1911 21.3989 35.0803 15.5515 34.9912 10.853ZM31.0291 25.9003C28.9698 31.4838 24.766 35.3183 18.1776 37.6223C18.1541 37.6303 18.1291 37.6373 18.1031 37.6425C18.0351 37.6559 17.9658 37.6559 17.8968 37.6422C17.8712 37.637 17.8462 37.6303 17.823 37.6223C11.2276 35.3225 7.02103 31.4902 4.96323 25.9064C3.16361 21.0233 3.26554 15.6656 3.35557 10.9391L3.35618 10.9128C3.37449 10.5066 3.3867 10.0812 3.39341 9.6137C3.40806 8.63439 4.18809 7.82415 5.16922 7.76953C7.77176 7.62426 10.0581 7.12133 12.1589 6.23205C14.257 5.34399 16.1204 4.09217 17.855 2.40516C17.9432 2.3307 18.0577 2.33039 18.1456 2.40516C19.8805 4.09217 21.7439 5.34399 23.8417 6.23205C25.9425 7.12133 28.2289 7.62426 30.8317 7.76953C31.8128 7.82415 32.5929 8.63439 32.6072 9.614C32.6142 10.084 32.6264 10.5094 32.6447 10.9128C32.7345 15.6449 32.8339 21.0068 31.0291 25.9003Z" fill="#E02C22"/>
    <path d="M17.9997 10.0322C12.5029 10.0322 8.03117 14.5043 8.03117 20.0008C8.03117 25.4976 12.5029 29.9697 17.9997 29.9697C23.4963 29.9697 27.9683 25.4976 27.9683 20.0008C27.9683 14.5043 23.4963 10.0322 17.9997 10.0322ZM17.9997 27.6223C13.7972 27.6223 10.3783 24.2034 10.3783 20.0008C10.3783 15.7982 13.7972 12.3793 17.9997 12.3793C22.202 12.3793 25.6209 15.7982 25.6209 20.0008C25.6209 24.2034 22.202 27.6223 17.9997 27.6223Z" fill="#E02C22"/>
    <path d="M20.8647 16.906L16.2346 21.5361L14.9779 20.2794C14.5195 19.8211 13.7764 19.8211 13.318 20.2794C12.86 20.7378 12.86 21.4809 13.318 21.939L15.4048 24.0258C15.634 24.255 15.9343 24.3694 16.2346 24.3694C16.5349 24.3694 16.8352 24.255 17.0644 24.0258L22.5246 18.5656C22.9827 18.1072 22.9827 17.3641 22.5246 16.906C22.0662 16.4473 21.3231 16.4473 20.8647 16.906Z" fill="#E02C22"/>
</svg>
