<svg width="34" height="34" viewBox="0 0 34 34" fill="none" xmlns="http://www.w3.org/2000/svg">
<path d="M25.9681 33.0253L16.9997 27.1662L8.0313 33.0252C7.7055 33.2407 7.28523 33.2243 6.97149 32.9865C6.65864 32.7498 6.51514 32.3381 6.60954 31.9467L9.17535 21.2307L1.16218 14.1377C0.865946 13.8787 0.750246 13.4573 0.869674 13.0737C0.989102 12.6891 1.32047 12.4195 1.70554 12.3914L12.1643 11.6289L16.1204 1.38451C16.411 0.636535 17.5884 0.636535 17.8791 1.38451L21.8352 11.6289L32.2939 12.3914C32.679 12.4195 33.0103 12.6891 33.1297 13.0737C33.2492 13.4573 33.1335 13.8787 32.8372 14.1377L24.824 21.2308L27.3898 31.9468C27.4842 32.3382 27.3408 32.7499 27.0279 32.9867C26.7077 33.2294 26.2886 33.2349 25.9681 33.0253Z" fill="#0F2442"/>
</svg>
