<svg width="42" height="42" viewBox="0 0 42 42" fill="none" xmlns="http://www.w3.org/2000/svg">
<path d="M10.1432 10.1429H18.5875C19.0218 10.1429 19.4319 9.90157 19.6491 9.51562C19.8663 9.10554 19.8422 8.64705 19.6008 8.26094L17.6224 5.31755L19.6008 2.29357C19.8422 1.90762 19.8663 1.44921 19.6491 1.03906C19.4319 0.652946 19.0218 0.411758 18.5875 0.411758H8.93681C8.26118 0.411758 7.73047 0.942468 7.73047 1.6181V12.5556H10.1432V10.1429Z" fill="#0F2442"/>
<path d="M0.412109 28.238C0.412109 28.5585 0.539338 28.8648 0.765567 29.0909L5.67136 33.9163C5.89751 34.1425 6.20384 34.2698 6.52424 34.2698H10.1433V27.0317H0.412109V28.238Z" fill="#0F2442"/>
<path d="M22.2067 15.6679L19.432 12.9174C19.215 12.6762 18.9013 12.5556 18.5877 12.5556H7.73058V18.5873C7.73058 19.2628 7.19987 19.7937 6.52424 19.7937C5.84861 19.7937 5.3179 19.2628 5.3179 18.5873V12.5556H1.61845C0.942819 12.5556 0.412109 13.0863 0.412109 13.7619V24.619H22.2067V15.6679Z" fill="#0F2442"/>
<path d="M40.382 14.9683H37.9693C37.782 14.9683 37.597 15.0119 37.4298 15.0955L32.8589 17.381H24.6191V24.619H39.1757V23.9122L41.2349 21.853C41.4611 21.6267 41.5883 21.3204 41.5883 21V16.1746C41.5883 15.5078 41.0488 14.9683 40.382 14.9683Z" fill="#0F2442"/>
<path d="M12.5557 35.9756L17.7345 41.2349C17.9606 41.461 18.267 41.5882 18.5874 41.5882H21.0001C21.3205 41.5882 21.6268 41.461 21.8529 41.2348L24.2656 38.7417C24.7368 38.2705 24.7368 37.507 24.2656 37.0358L22.7059 35.4761L23.9122 34.2698H27.0318V27.0317H12.5557V35.9756Z" fill="#0F2442"/>
<path d="M36.7628 30.1512V28.7376L38.4687 27.0317H29.4443V34.2698H30.1512L34.7035 38.7417C35.1747 39.2129 35.9382 39.2129 36.4094 38.7417L38.822 36.329C39.0483 36.1028 39.1755 35.7965 39.1755 35.4761V33.0634C39.1755 32.743 39.0483 32.4367 38.822 32.2105L36.7628 30.1512Z" fill="#0F2442"/>
</svg>
