<svg width="11" height="11" viewBox="0 0 11 11" fill="none" xmlns="http://www.w3.org/2000/svg">
<path fill-rule="evenodd" clip-rule="evenodd" d="M0.704705 4.69625C3.45644 3.49736 5.29136 2.70698 6.20947 2.32511C8.83085 1.23478 9.37555 1.04538 9.73058 1.03913C9.80866 1.03775 9.98326 1.05711 10.0963 1.14887C10.1918 1.22636 10.2181 1.33103 10.2307 1.4045C10.2433 1.47797 10.2589 1.64532 10.2465 1.77609C10.1044 3.26866 9.48976 6.89073 9.17705 8.56244C9.04473 9.2698 8.7842 9.50697 8.53197 9.53018C7.98381 9.58063 7.56757 9.16792 7.03665 8.8199C6.20587 8.27532 5.73654 7.93631 4.93013 7.4049C3.99817 6.79076 4.60232 6.45321 5.13343 5.90157C5.27243 5.75721 7.68761 3.56041 7.73436 3.36113C7.74021 3.3362 7.74563 3.2433 7.69044 3.19424C7.63525 3.14518 7.55379 3.16196 7.495 3.1753C7.41168 3.19421 6.0845 4.07143 3.51347 5.80695C3.13676 6.06563 2.79554 6.19167 2.48982 6.18506C2.15279 6.17778 1.50448 5.9945 1.02253 5.83784C0.431394 5.64568 -0.0384275 5.54409 0.00248341 5.21775C0.0237923 5.04777 0.257866 4.87394 0.704705 4.69625Z" fill="#F2F2F2"/>
</svg>
