<svg width="23" height="19" viewBox="0 0 23 19" fill="none" xmlns="http://www.w3.org/2000/svg">
<path fill-rule="evenodd" clip-rule="evenodd" d="M1.53754 8.33478C7.54132 5.71903 11.5448 3.99456 13.5479 3.16139C19.2673 0.782498 20.4557 0.36926 21.2304 0.355614C21.4007 0.352613 21.7817 0.394835 22.0284 0.595056C22.2368 0.764118 22.2941 0.992497 22.3215 1.15279C22.3489 1.31308 22.3831 1.67822 22.3559 1.96353C22.046 5.22005 20.7049 13.1228 20.0227 16.7701C19.734 18.3134 19.1655 18.8309 18.6152 18.8815C17.4192 18.9916 16.5111 18.0912 15.3527 17.3318C13.5401 16.1437 12.5161 15.404 10.7566 14.2446C8.72329 12.9046 10.0414 12.1682 11.2002 10.9646C11.5035 10.6496 16.773 5.85659 16.875 5.42179C16.8877 5.36741 16.8996 5.16471 16.7791 5.05768C16.6587 4.95064 16.481 4.98725 16.3527 5.01636C16.1709 5.05762 13.2753 6.97154 7.66576 10.7581C6.84383 11.3225 6.09936 11.5975 5.43234 11.5831C4.697 11.5672 3.2825 11.1673 2.23097 10.8255C0.941224 10.4063 -0.0838419 10.1846 0.00541835 9.47261C0.0519106 9.10175 0.562617 8.72247 1.53754 8.33478Z" fill="white"/>
</svg>
