<svg width="26" height="26" viewBox="0 0 26 26" fill="none" xmlns="http://www.w3.org/2000/svg">
<path d="M25.9412 3.07844C25.9412 1.36343 24.5115 -0.0176887 22.7789 0.0621321C21.2448 0.132803 19.9942 1.36879 19.907 2.90201C19.8343 4.18076 20.5579 5.29891 21.6275 5.80705V9.98038C21.6275 10.9333 20.855 11.7059 19.902 11.7059H15.7287C15.4304 11.0781 14.922 10.5696 14.2942 10.2714V5.80705C15.3638 5.29886 16.0874 4.18076 16.0147 2.90201C15.9275 1.36879 14.6769 0.132803 13.1428 0.0621321C11.4102 -0.0176381 9.9805 1.36343 9.9805 3.07844C9.9805 4.28293 10.6859 5.32242 11.706 5.80705V10.2714C11.0782 10.5697 10.5697 11.0781 10.2715 11.7059H4.37257V5.80705C5.44214 5.29886 6.16578 4.18076 6.09304 2.90201C6.00584 1.36879 4.7553 0.132803 3.22121 0.0621321C1.48861 -0.0176381 0.0588605 1.36343 0.0588605 3.07844C0.0588605 4.28293 0.764256 5.32242 1.78433 5.80705V20.1929C0.714766 20.7011 -0.00887852 21.8192 0.0638651 23.098C0.151066 24.6312 1.40161 25.8672 2.93569 25.9379C4.6683 26.0176 6.09804 24.6366 6.09804 22.9216C6.09804 21.7171 5.39265 20.6776 4.37257 20.1929V14.2941H10.2714C10.5697 14.9219 11.0781 15.4304 11.7059 15.7286V20.193C10.6363 20.7012 9.91266 21.8193 9.9854 23.098C10.0726 24.6313 11.3231 25.8672 12.8572 25.9379C14.5898 26.0177 16.0196 24.6366 16.0196 22.9216C16.0196 21.7171 15.3142 20.6776 14.2941 20.193V15.7286C14.9219 15.4303 15.4304 14.9219 15.7286 14.2941H19.9019C22.2843 14.2941 24.2156 12.3628 24.2156 9.98043V5.80705C25.2358 5.32242 25.9412 4.28293 25.9412 3.07844Z" fill="#0F2442"/>
</svg>
