<svg width="100" height="68" viewBox="0 0 100 68" fill="none" xmlns="http://www.w3.org/2000/svg">
<path d="M90.2358 28.7439C86.9475 25.4105 82.6095 23.721 77.3436 23.721H67.9687C67.5368 23.721 67.1875 24.0745 67.1875 24.5117V49.814C67.1875 50.2512 67.5368 50.6049 67.9687 50.6049H78.9061C84.2941 50.6049 84.3734 57.4306 84.375 57.7211C84.3766 58.1581 84.7259 58.5118 85.156 58.5118H94.5311C94.9629 58.5118 95.3124 58.1581 95.3124 57.7209V48.5598L96.6459 47.2102C96.7924 47.0619 96.8748 46.861 96.8748 46.651C96.8748 46.1971 96.8139 35.4092 90.2358 28.7439ZM93.9788 47.6736C93.8323 47.8219 93.7499 48.0226 93.7499 48.2326V56.9304H85.907C85.6689 53.8171 84.0118 49.0233 78.9059 49.0235H68.7498V25.3024H77.3434C84.7731 25.3024 90.0496 28.8513 93.0251 35.8503C94.972 40.4339 95.262 45.09 95.3047 46.3317L93.9788 47.6736Z" fill="black"/>
<path d="M97.6562 47.442C97.2245 47.442 96.875 47.7955 96.875 48.2325V51.3954C96.875 51.8324 97.2245 52.1861 97.6562 52.1861C98.088 52.1861 98.4375 51.8322 98.4375 51.3954V48.2325C98.4375 47.7955 98.088 47.442 97.6562 47.442Z" fill="black"/>
<path d="M99.2185 52.1862H96.1211C95.6893 52.1862 95.3398 52.5397 95.3398 52.9769C95.3398 53.4138 95.6893 53.7676 96.1211 53.7676H99.2185C99.6504 53.7676 99.9997 53.4138 99.9997 52.9769C99.9997 52.5397 99.6504 52.1862 99.2185 52.1862Z" fill="black"/>
<path d="M99.2187 52.1862C98.787 52.1862 98.4375 52.5397 98.4375 52.9769V57.721C98.4375 58.158 98.787 58.5117 99.2187 58.5117C99.6507 58.5117 100 58.158 100 57.721V52.9769C100 52.5397 99.6507 52.1862 99.2187 52.1862Z" fill="black"/>
<path d="M99.2187 56.9304H96.0937C95.662 56.9304 95.3125 57.2841 95.3125 57.7211C95.3125 58.1581 95.662 58.5118 96.0937 58.5118H99.2187C99.6506 58.5118 99.9999 58.1581 99.9999 57.7211C99.9999 57.2841 99.6506 56.9304 99.2187 56.9304Z" fill="black"/>
<path d="M74.9999 52.1862C70.6922 52.1862 67.1875 55.7333 67.1875 60.0931C67.1875 64.4529 70.6922 68 74.9999 68C79.3076 68 82.8125 64.4529 82.8125 60.0931C82.8125 55.7333 79.3076 52.1862 74.9999 52.1862ZM74.9999 66.4186C71.5532 66.4186 68.75 63.5803 68.75 60.0931C68.75 56.6059 71.553 53.7676 74.9999 53.7676C78.4468 53.7676 81.25 56.6059 81.25 60.0931C81.25 63.5803 78.447 66.4186 74.9999 66.4186Z" fill="black"/>
<path d="M74.9999 55.349C72.4151 55.349 70.3125 57.4771 70.3125 60.0931C70.3125 62.7092 72.4151 64.8373 74.9999 64.8373C77.5847 64.8373 79.6876 62.7092 79.6876 60.0931C79.6876 57.4771 77.5847 55.349 74.9999 55.349ZM74.9999 63.2559C73.2773 63.2559 71.875 61.8382 71.875 60.0931C71.875 58.348 73.2773 56.9304 74.9999 56.9304C76.7226 56.9304 78.1249 58.348 78.1249 60.0931C78.1249 61.8382 76.7226 63.2559 74.9999 63.2559Z" fill="black"/>
<path d="M75.0477 56.9304H75.0309C74.6007 56.9304 74.2588 57.2841 74.2588 57.7211C74.2588 58.1581 74.6159 58.5118 75.0477 58.5118C75.4778 58.5118 75.8289 58.1581 75.8289 57.7211C75.8289 57.2841 75.4778 56.9304 75.0477 56.9304Z" fill="black"/>
<path d="M75.0477 61.6746H75.0309C74.6007 61.6746 74.2588 62.0283 74.2588 62.4653C74.2588 62.9022 74.6159 63.256 75.0477 63.256C75.4778 63.256 75.8289 62.9022 75.8289 62.4653C75.8289 62.0283 75.4778 61.6746 75.0477 61.6746Z" fill="black"/>
<path d="M73.0179 58.1164H73.0011C72.5707 58.1164 72.229 58.4701 72.229 58.9073C72.229 59.3443 72.5859 59.6978 73.0179 59.6978C73.448 59.6978 73.7991 59.3443 73.7991 58.9073C73.7991 58.4701 73.448 58.1164 73.0179 58.1164Z" fill="black"/>
<path d="M77.0769 60.4885H77.0601C76.6298 60.4885 76.2881 60.8421 76.2881 61.279C76.2881 61.7162 76.645 62.0699 77.0769 62.0699C77.5071 62.0699 77.8582 61.7162 77.8582 61.279C77.8582 60.8421 77.5071 60.4885 77.0769 60.4885Z" fill="black"/>
<path d="M73.0179 60.4885H73.0011C72.5707 60.4885 72.229 60.8421 72.229 61.279C72.229 61.7162 72.5859 62.0699 73.0179 62.0699C73.448 62.0699 73.7991 61.7162 73.7991 61.279C73.7991 60.8421 73.448 60.4885 73.0179 60.4885Z" fill="black"/>
<path d="M77.0769 58.1164H77.0601C76.6298 58.1164 76.2881 58.4701 76.2881 58.9073C76.2881 59.3443 76.645 59.6978 77.0769 59.6978C77.5071 59.6978 77.8582 59.3443 77.8582 58.9073C77.8582 58.4701 77.5071 58.1164 77.0769 58.1164Z" fill="black"/>
<path d="M75.0477 59.3025H75.0309C74.6007 59.3025 74.2588 59.656 74.2588 60.0932C74.2588 60.5303 74.6159 60.8839 75.0477 60.8839C75.4778 60.8839 75.8289 60.5303 75.8289 60.0932C75.8289 59.656 75.4778 59.3025 75.0477 59.3025Z" fill="black"/>
<path d="M17.1876 52.1862C12.8799 52.1862 9.375 55.7333 9.375 60.0931C9.375 64.4529 12.8799 68 17.1876 68C21.4951 68 25 64.4529 25 60.0931C25 55.7333 21.4951 52.1862 17.1876 52.1862ZM17.1876 66.4186C13.7413 66.4186 10.9375 63.5803 10.9375 60.0931C10.9375 56.6059 13.7413 53.7676 17.1876 53.7676C20.6337 53.7676 23.4375 56.6059 23.4375 60.0931C23.4375 63.5803 20.6337 66.4186 17.1876 66.4186Z" fill="black"/>
<path d="M17.1874 55.349C14.6026 55.349 12.5 57.4771 12.5 60.0931C12.5 62.7092 14.6026 64.8373 17.1874 64.8373C19.7722 64.8373 21.8749 62.7092 21.8749 60.0931C21.8749 57.4771 19.7722 55.349 17.1874 55.349ZM17.1874 63.2559C15.464 63.2559 14.0625 61.8382 14.0625 60.0931C14.0625 58.348 15.464 56.9304 17.1874 56.9304C18.9109 56.9304 20.3124 58.348 20.3124 60.0931C20.3124 61.8382 18.9109 63.2559 17.1874 63.2559Z" fill="black"/>
<path d="M17.2342 56.9304H17.2189C16.787 56.9304 16.4453 57.2841 16.4453 57.7211C16.4453 58.1581 16.803 58.5118 17.2342 58.5118C17.6659 58.5118 18.0154 58.1581 18.0154 57.7211C18.0154 57.2841 17.6659 56.9304 17.2342 56.9304Z" fill="black"/>
<path d="M17.2342 61.6746H17.2189C16.787 61.6746 16.4453 62.0283 16.4453 62.4653C16.4453 62.9022 16.803 63.256 17.2342 63.256C17.6659 63.256 18.0154 62.9022 18.0154 62.4653C18.0154 62.0283 17.6659 61.6746 17.2342 61.6746Z" fill="black"/>
<path d="M15.2049 58.1164H15.1896C14.7579 58.1164 14.416 58.4701 14.416 58.9073C14.416 59.3443 14.7739 59.6978 15.2049 59.6978C15.6368 59.6978 15.9861 59.3443 15.9861 58.9073C15.9861 58.4701 15.6368 58.1164 15.2049 58.1164Z" fill="black"/>
<path d="M19.2635 60.4885H19.2482C18.8165 60.4885 18.4746 60.8421 18.4746 61.279C18.4746 61.7162 18.8325 62.0699 19.2635 62.0699C19.6954 62.0699 20.0447 61.7162 20.0447 61.279C20.0447 60.8421 19.6954 60.4885 19.2635 60.4885Z" fill="black"/>
<path d="M15.2049 60.4885H15.1896C14.7579 60.4885 14.416 60.8421 14.416 61.279C14.416 61.7162 14.7739 62.0699 15.2049 62.0699C15.6368 62.0699 15.9861 61.7162 15.9861 61.279C15.9861 60.8421 15.6368 60.4885 15.2049 60.4885Z" fill="black"/>
<path d="M19.2635 58.1164H19.2482C18.8165 58.1164 18.4746 58.4701 18.4746 58.9073C18.4746 59.3443 18.8325 59.6978 19.2635 59.6978C19.6954 59.6978 20.0447 59.3443 20.0447 58.9073C20.0447 58.4701 19.6954 58.1164 19.2635 58.1164Z" fill="black"/>
<path d="M17.2342 59.3025H17.2189C16.787 59.3025 16.4453 59.656 16.4453 60.0932C16.4453 60.5303 16.803 60.8839 17.2342 60.8839C17.6659 60.8839 18.0154 60.5303 18.0154 60.0932C18.0154 59.656 17.6659 59.3025 17.2342 59.3025Z" fill="black"/>
<path d="M92.9687 42.6979C90.2862 42.6979 89.3053 41.0438 88.1699 39.1274C86.9643 37.0949 85.5987 34.7908 82.0311 34.7908H71.0937C70.6618 34.7908 70.3125 35.1443 70.3125 35.5815C70.3125 36.0187 70.6618 36.3722 71.0937 36.3722H82.0311C84.7136 36.3722 85.6947 38.0263 86.8299 39.9428C88.0355 41.9752 89.401 44.2793 92.9687 44.2793C93.4004 44.2793 93.7499 43.9258 93.7499 43.4886C93.7499 43.0516 93.4004 42.6979 92.9687 42.6979Z" fill="black"/>
<path d="M74.2187 41.1164H71.0937C70.6618 41.1164 70.3125 41.4701 70.3125 41.9071C70.3125 42.3442 70.6618 42.6978 71.0937 42.6978H74.2187C74.6506 42.6978 74.9999 42.3442 74.9999 41.9071C74.9999 41.4701 74.6506 41.1164 74.2187 41.1164Z" fill="black"/>
<path d="M68.3942 49.0268C68.0355 48.7921 67.5503 48.894 67.3139 49.2599L64.1887 54.1276C63.9539 54.4936 64.0561 54.9848 64.4177 55.2226C64.549 55.3092 64.697 55.3494 64.8436 55.3494C65.0985 55.3494 65.3486 55.2226 65.498 54.9893L68.623 50.1216C68.858 49.7558 68.7558 49.2645 68.3942 49.0268Z" fill="black"/>
<path d="M64.8437 53.7676C64.4118 53.7676 64.0625 54.1211 64.0625 54.5583V62.4652C64.0625 62.9021 64.4118 63.2559 64.8437 63.2559C65.2755 63.2559 65.625 62.9021 65.625 62.4652V54.5583C65.625 54.1211 65.2755 53.7676 64.8437 53.7676Z" fill="black"/>
<path d="M63.2814 58.5118H25.7812C25.3495 58.5118 25 58.8655 25 59.3025C25 59.7394 25.3495 60.0932 25.7812 60.0932H63.2814C63.7131 60.0932 64.0626 59.7394 64.0626 59.3025C64.0626 58.8655 63.7131 58.5118 63.2814 58.5118Z" fill="black"/>
<path d="M63.2814 53.7676H24.2187C23.787 53.7676 23.4375 54.1211 23.4375 54.5583C23.4375 54.9952 23.787 55.349 24.2187 55.349H63.2814C63.7131 55.349 64.0626 54.9952 64.0626 54.5583C64.0626 54.1211 63.7131 53.7676 63.2814 53.7676Z" fill="black"/>
<path d="M64.8437 0C64.4118 0 64.0625 0.353526 64.0625 0.790689V49.8139C64.0625 50.2511 64.4118 50.6048 64.8437 50.6048C65.2755 50.6048 65.625 50.2511 65.625 49.8139V0.790689C65.625 0.353526 65.2755 0 64.8437 0Z" fill="black"/>
<path d="M64.844 0H0.781241C0.349497 0 0 0.353525 0 0.790688C0 1.22765 0.349497 1.58138 0.781241 1.58138H64.8438C65.2755 1.58138 65.625 1.22765 65.6252 0.790688C65.6252 0.353525 65.2757 0 64.844 0Z" fill="black"/>
<path d="M0.781241 0C0.349497 0 0 0.353526 0 0.790689V54.5584C0 54.9954 0.349497 55.3491 0.781241 55.3491C1.21318 55.3491 1.56248 54.9954 1.56248 54.5584V0.790689C1.56248 0.353526 1.21318 0 0.781241 0Z" fill="black"/>
<path d="M10.1563 53.7676H0.781241C0.349497 53.7676 0 54.1211 0 54.5583C0 54.9952 0.349497 55.349 0.781241 55.349H10.1561C10.5881 55.349 10.9374 54.9952 10.9376 54.5583C10.9376 54.1211 10.5881 53.7676 10.1563 53.7676Z" fill="black"/>
<path d="M9.14608 58.7434L6.02112 55.5806C5.71597 55.2718 5.22151 55.2718 4.91636 55.5806C4.61121 55.8893 4.61121 56.3897 4.91636 56.6986L8.04133 59.8613C8.1941 60.0157 8.39395 60.0931 8.5938 60.0931C8.79365 60.0931 8.9937 60.0157 9.14608 59.8613C9.45123 59.5527 9.45123 59.0522 9.14608 58.7434Z" fill="black"/>
<path d="M7.03138 56.9304H2.34374C1.912 56.9304 1.5625 57.2841 1.5625 57.7211C1.5625 58.1581 1.912 58.5118 2.34374 58.5118H7.03119C7.46312 58.5118 7.81262 58.1581 7.81262 57.7211C7.81262 57.2841 7.46312 56.9304 7.03138 56.9304Z" fill="black"/>
<path d="M33.5937 56.9304C33.162 56.9304 32.8125 57.2841 32.8125 57.7211V59.3025C32.8125 59.7394 33.162 60.0932 33.5937 60.0932C34.0255 60.0932 34.375 59.7394 34.375 59.3025V57.7211C34.375 57.2841 34.0255 56.9304 33.5937 56.9304Z" fill="black"/>
<path d="M42.9687 56.9304C42.537 56.9304 42.1875 57.2841 42.1875 57.7211V59.3025C42.1875 59.7394 42.537 60.0932 42.9687 60.0932C43.4005 60.0932 43.75 59.7394 43.75 59.3025V57.7211C43.75 57.2841 43.4005 56.9304 42.9687 56.9304Z" fill="black"/>
<path d="M52.3437 56.9304C51.912 56.9304 51.5625 57.2841 51.5625 57.7211V59.3025C51.5625 59.7394 51.912 60.0932 52.3437 60.0932C52.7757 60.0932 53.125 59.7394 53.125 59.3025V57.7211C53.125 57.2841 52.7757 56.9304 52.3437 56.9304Z" fill="black"/>
<path d="M86.7187 28.4652C86.2868 28.4652 85.9375 28.8187 85.9375 29.2559V34C85.9375 34.4372 86.2868 34.7907 86.7187 34.7907C87.1505 34.7907 87.5 34.4372 87.5 34V29.2559C87.5 28.8187 87.1505 28.4652 86.7187 28.4652Z" fill="black"/>
<path d="M37.271 30.2784L31.0211 23.9526C30.716 23.6438 30.2215 23.6438 29.9164 23.9526C29.6112 24.2615 29.6112 24.7619 29.9164 25.0708L36.1663 31.3963C36.3189 31.5507 36.5189 31.628 36.7188 31.628C36.9186 31.628 37.1183 31.5507 37.271 31.3963C37.5762 31.0876 37.5762 30.5872 37.271 30.2784Z" fill="black"/>
<path d="M46.6459 8.13864C46.341 7.8298 45.8465 7.8298 45.5414 8.13864L29.9164 23.9525C29.6112 24.2613 29.6112 24.7617 29.9164 25.0706C30.0691 25.225 30.269 25.3023 30.4688 25.3023C30.6687 25.3023 30.8685 25.225 31.0211 25.0706L46.6459 9.25656C46.9511 8.94792 46.9511 8.44749 46.6459 8.13864Z" fill="black"/>
<path d="M36.8781 13.0195C35.8078 12.7755 34.703 12.6512 33.5938 12.6512C25.409 12.6512 18.75 19.3907 18.75 27.6745C18.75 31.9633 20.5672 36.0573 23.7365 38.9065C23.8852 39.041 24.0706 39.1058 24.2552 39.1058C24.4703 39.1058 24.6846 39.0163 24.8397 38.8397C25.1257 38.5123 25.0968 38.0136 24.7741 37.7233C21.939 35.1743 20.3125 31.5111 20.3125 27.6743C20.3125 20.2623 26.2703 14.2324 33.5938 14.2324C34.587 14.2324 35.5767 14.3437 36.5349 14.5622C36.9506 14.6565 37.3734 14.3907 37.4687 13.9647C37.5633 13.5392 37.2993 13.116 36.8781 13.0195Z" fill="black"/>
<path d="M43.4911 16.4792C43.1686 16.1881 42.6765 16.2152 42.3882 16.5409C42.1004 16.8667 42.1279 17.3662 42.4491 17.6574C45.2621 20.2048 46.875 23.8564 46.875 27.6748C46.875 35.0866 40.9171 41.1165 33.5937 41.1165C32.5966 41.1165 31.6026 41.0036 30.6389 40.783C30.2186 40.6841 29.7988 40.953 29.7035 41.3791C29.6083 41.8052 29.8723 42.2285 30.2927 42.3242C31.3699 42.5714 32.4799 42.6979 33.5939 42.6979C41.7788 42.6979 48.4376 35.9586 48.4372 27.6748C48.4372 23.407 46.6345 19.326 43.4911 16.4792Z" fill="black"/>
<path d="M37.2709 30.2782C36.9658 29.9694 36.4713 29.9694 36.1662 30.2782L22.1039 44.5107C21.7987 44.8195 21.7987 45.3199 22.1039 45.6288C22.2564 45.7832 22.4563 45.8605 22.6561 45.8605C22.8562 45.8605 23.056 45.7834 23.2084 45.6288L37.2709 31.3962C37.5761 31.0875 37.5761 30.5871 37.2709 30.2782Z" fill="black"/>
</svg>
