<svg width="67" height="21" viewBox="0 0 67 21" fill="none" xmlns="http://www.w3.org/2000/svg">
<path d="M66.5582 20.0024C63.8661 20.0024 63.8661 17.1172 61.1741 17.1172C58.4821 17.1172 58.4821 20.0024 55.79 20.0024C53.098 20.0024 53.098 17.1172 50.406 17.1172C47.7139 17.1172 47.7139 20.0024 45.0219 20.0024C42.3299 20.0024 42.3299 17.1172 39.6378 17.1172C36.9458 17.1172 36.9458 20.0024 34.2538 20.0024C31.5617 20.0024 31.5617 17.1172 28.8697 17.1172C26.1777 17.1172 26.1777 20.0024 23.4856 20.0024C20.7936 20.0024 20.7936 17.1172 18.1016 17.1172" stroke="#F8C800" stroke-width="1.5" stroke-miterlimit="10"/>
<path d="M48.4566 3.88521C45.7646 3.88521 45.7646 1 43.0725 1C40.3805 1 40.3805 3.88521 37.6885 3.88521C34.9964 3.88521 34.9964 1 32.3044 1C29.6124 1 29.6124 3.88521 26.9203 3.88521C24.2283 3.88521 24.2283 1 21.5363 1C18.8442 1 18.8442 3.88521 16.1522 3.88521C13.4602 3.88521 13.4602 1 10.7681 1C8.0761 1 8.0761 3.88521 5.38407 3.88521C2.69203 3.88521 2.69203 1 0 1" stroke="white" stroke-width="1.5" stroke-miterlimit="10"/>
</svg>
