<svg width="24" height="16" viewBox="0 0 24 16" fill="none" xmlns="http://www.w3.org/2000/svg">
<path fill-rule="evenodd" clip-rule="evenodd" d="M23.5058 13.5153C23.9999 11.7271 23.9999 8.01869 23.9999 8.01869C23.9999 8.01869 24.0198 4.29185 23.5058 2.50363C23.2289 1.52483 22.4184 0.75279 21.3904 0.489397C19.5124 0 12.0001 0 12.0001 0C12.0001 0 4.48784 0 2.60977 0.470703C1.60144 0.734096 0.770976 1.52483 0.494351 2.50363C0 4.29185 0 8 0 8C0 8 0 11.7271 0.494351 13.4964C0.771269 14.4752 1.58181 15.2472 2.60977 15.5106C4.50747 16 12.0001 16 12.0001 16C12.0001 16 19.5124 16 21.3904 15.5293C22.4184 15.2659 23.2289 14.4941 23.5058 13.5153ZM9.99951 11.9998V3.99976L15.9995 7.99976L9.99951 11.9998Z" fill="white"/>
</svg>
