<svg width="8" height="13" viewBox="0 0 8 13" fill="none" xmlns="http://www.w3.org/2000/svg">
<path fill-rule="evenodd" clip-rule="evenodd" d="M4 0.273438C1.79444 0.273438 0 2.16602 0 4.49219C0 5.27805 0.206444 6.04516 0.597111 6.71055L3.77222 12.1073C3.83311 12.2106 3.94022 12.2734 4.05533 12.2734H4.058C4.17422 12.2725 4.28156 12.2078 4.34133 12.1026L7.43556 6.65359C7.80467 6.00227 7.99978 5.25484 7.99978 4.49219C8 2.16602 6.20556 0.273438 4 0.273438ZM2 4.49219C2 3.32898 2.89711 2.38281 4 2.38281C5.10289 2.38281 6 3.34914 6 4.49219C6 5.63523 5.11733 6.60156 4 6.60156C2.88267 6.60156 2 5.65539 2 4.49219Z" fill="#F2F2F2"/>
</svg>
