<svg width="12" height="13" viewBox="0 0 12 13" fill="none" xmlns="http://www.w3.org/2000/svg">
<path d="M7.47726 12.0686C7.85297 12.205 8.23687 12.2734 8.6243 12.2734C8.78531 12.2734 8.94703 12.2612 9.10875 12.2376C9.62484 12.1619 10.1257 11.9622 10.5574 11.6596C10.991 11.3559 11.3517 10.9509 11.6004 10.4884C11.8655 9.99531 12 9.45719 12 8.88859C12 8.71187 11.8765 8.55906 11.7035 8.52203L8.95687 7.93352C8.83242 7.9068 8.70304 7.945 8.61305 8.035L7.60734 9.0407C5.72109 8.09195 4.18148 6.55234 3.23273 4.66609L4.23844 3.66039C4.32844 3.57039 4.36664 3.44102 4.33992 3.31656L3.75141 0.569922C3.71437 0.396953 3.56156 0.273438 3.38484 0.273438C2.81625 0.273438 2.27812 0.407969 1.78476 0.673047C1.32234 0.921719 0.917343 1.28242 0.613593 1.71602C0.311249 2.14773 0.111327 2.64859 0.0356238 3.16469C-0.0452356 3.71547 0.0117175 4.26438 0.204843 4.79617C0.806014 6.45062 1.78476 7.98648 3.03586 9.23758C4.28695 10.4887 5.82258 11.4677 7.47726 12.0686Z" fill="#F2F2F2"/>
</svg>
