<svg width="32" height="22" viewBox="0 0 32 22" fill="none" xmlns="http://www.w3.org/2000/svg">
    <path fill-rule="evenodd" clip-rule="evenodd" d="M22.2076 2.91659L24.8176 8.13664L28.7498 10.7581V15.6666H27.0913C26.5079 14.0159 24.9336 12.8333 23.0832 12.8333C21.2327 12.8333 19.6584 14.0159 19.075 15.6666H12.9247C12.3412 14.0159 10.767 12.8333 8.9165 12.8333C7.06603 12.8333 5.49177 14.0159 4.90834 15.6666H3.24984V2.91659H22.2076ZM28.7498 18.4999H27.0913C26.5079 20.1506 24.9336 21.3333 23.0832 21.3333C21.2327 21.3333 19.6584 20.1506 19.075 18.4999H12.9247C12.3412 20.1506 10.767 21.3333 8.9165 21.3333C7.06603 21.3333 5.49177 20.1506 4.90834 18.4999H3.24984C1.68503 18.4999 0.416504 17.2314 0.416504 15.6666V2.91659C0.416504 1.35178 1.68503 0.083252 3.24984 0.083252H22.2076C23.2808 0.083252 24.2619 0.689592 24.7418 1.64948L27.0154 6.19654L31.5832 9.24174V15.6666C31.5832 17.2314 30.3146 18.4999 28.7498 18.4999ZM10.3332 17.0833C10.3332 17.8657 9.69891 18.4999 8.9165 18.4999C8.1341 18.4999 7.49984 17.8657 7.49984 17.0833C7.49984 16.3008 8.1341 15.6666 8.9165 15.6666C9.69891 15.6666 10.3332 16.3008 10.3332 17.0833ZM24.4998 17.0833C24.4998 17.8657 23.8656 18.4999 23.0832 18.4999C22.3008 18.4999 21.6665 17.8657 21.6665 17.0833C21.6665 16.3008 22.3008 15.6666 23.0832 15.6666C23.8656 15.6666 24.4998 16.3008 24.4998 17.0833Z" fill="#C4C4C4"/>
</svg>