<svg width="34" height="34" viewBox="0 0 34 34" fill="none" xmlns="http://www.w3.org/2000/svg">
    <path d="M19.6119 26.1197H6.55216C2.93931 26.1197 0 29.059 0 32.6719C0 33.4054 0.594661 34 1.32813 34H24.8359C25.5694 34 26.164 33.4054 26.164 32.6719C26.164 29.059 23.2247 26.1197 19.6119 26.1197ZM2.8895 31.3438C3.43357 29.8475 4.87015 28.776 6.55216 28.776H19.6119C21.2941 28.776 22.7305 29.8475 23.2748 31.3438H2.8895ZM33.611 23.897L24.1022 14.3882L28.387 10.1033C28.9056 9.58469 28.9056 8.74355 28.387 8.22491L20.5511 0.388981C20.0324 -0.12966 19.1916 -0.12966 18.6729 0.388981L8.22484 10.8371C7.7062 11.3557 7.7062 12.1966 8.22484 12.7152L16.0608 20.5511C16.5794 21.0698 17.4205 21.07 17.9392 20.5511L22.224 16.2663L31.7326 25.7752C32.2513 26.2938 33.0924 26.2938 33.611 25.7752C34.1297 25.2565 34.1297 24.4157 33.611 23.897ZM17 17.7338L11.0422 11.776L19.6119 3.20661L25.5696 9.16412L17 17.7338Z" fill="#0F2442"/>
</svg>