<svg width="30" height="30" viewBox="0 0 30 30" fill="none" xmlns="http://www.w3.org/2000/svg">
    <path fill-rule="evenodd" clip-rule="evenodd" d="M14.9997 14.9999C18.9117 14.9999 22.083 11.8286 22.083 7.91658C22.083 4.00457 18.9117 0.833252 14.9997 0.833252C11.0877 0.833252 7.91634 4.00457 7.91634 7.91658C7.91634 11.8286 11.0877 14.9999 14.9997 14.9999ZM14.9997 12.1666C12.6525 12.1666 10.7497 10.2638 10.7497 7.91658C10.7497 5.56938 12.6525 3.66659 14.9997 3.66659C17.3469 3.66659 19.2497 5.56938 19.2497 7.91658C19.2497 10.2638 17.3469 12.1666 14.9997 12.1666ZM2.24967 29.1717C1.46727 29.1717 0.833008 28.5374 0.833008 27.755C0.833008 21.4806 5.91942 16.3942 12.1938 16.3942H17.8055C24.0799 16.3942 29.1663 21.4806 29.1663 27.755C29.1663 28.5374 28.5321 29.1717 27.7497 29.1717H2.24967ZM3.78361 26.3384H26.216C25.5413 22.303 22.0326 19.2275 17.8056 19.2275H12.194C7.967 19.2275 4.45835 22.303 3.78361 26.3384Z" fill="#323C47"/>
</svg>