<svg width="34" height="30" viewBox="0 0 34 30" fill="none" xmlns="http://www.w3.org/2000/svg">
    <path d="M33.9077 14.5688C33.7719 14.2529 33.5012 14.0148 33.1706 13.9204L28.622 12.6209L27.6412 6.72571C27.2991 4.66934 25.3982 3.05841 23.3135 3.05841H20.4107V1.93824C20.4107 1.30598 19.8981 0.793457 19.2659 0.793457H14.7359C14.1037 0.793457 13.5911 1.30598 13.5911 1.93824V3.05841H10.6881C8.60356 3.05841 6.70265 4.66911 6.36036 6.72548L5.3794 12.6209L0.831184 13.9204C0.500457 14.0148 0.229831 14.2529 0.0940596 14.5688C-0.0417114 14.8848 -0.0284319 15.2452 0.130464 15.5501L6.92543 28.5901C7.12267 28.9687 7.51396 29.2059 7.94062 29.2059H26.0609C26.4876 29.2059 26.8788 28.9687 27.0761 28.5901L33.8713 15.5501C34.0303 15.2452 34.0436 14.8848 33.9077 14.5688ZM23.3135 5.34797C24.2603 5.34797 25.2273 6.1674 25.3826 7.10132L26.1851 11.9246L18.1455 9.62773V5.34797H23.3135ZM15.856 5.34797V9.62773L7.8163 11.9247L8.6189 7.10143C8.77436 6.16752 9.74136 5.34808 10.6881 5.34808H15.856V5.34797ZM2.80925 15.7364L15.856 12.0086V26.9163H8.63504L2.80925 15.7364ZM25.3666 26.9164H18.1455V12.009L31.1925 15.7365L25.3666 26.9164Z" fill="#979797"/>
</svg>