<svg width="46" height="19" viewBox="0 0 46 19" fill="none" xmlns="http://www.w3.org/2000/svg">
    <path d="M0.643482 4.50777L5.73844 3.78018C6.66746 3.20947 7.63158 2.69857 8.6256 2.25023C11.9083 0.763312 15.4712 -0.00395231 19.0752 1.53095e-05H19.9603C24.2135 0.00306724 28.3987 1.07034 32.1343 3.10448L34.7056 4.50716C37.7154 4.54104 40.6673 5.34157 43.2822 6.83215C44.3449 7.44163 45.0011 8.57238 45.0029 9.79714V14.2509C45.0029 14.6653 44.6672 15.001 44.2528 15.001H41.7343C40.9151 17.3379 38.3567 18.5685 36.0198 17.7493C34.7334 17.2986 33.7222 16.2871 33.2715 15.001H13.2322C12.4131 17.3379 9.85463 18.5685 7.51774 17.7493C6.23164 17.2986 5.22021 16.2871 4.76944 15.001H4.50026C4.40473 15.001 4.31012 14.983 4.22131 14.9476L1.79194 13.9728C0.706657 13.5431 -0.00414658 12.4926 -0.000175476 11.3259V5.25032C-0.000175476 4.87737 0.274193 4.56088 0.643482 4.50777ZM34.5631 14.101C34.8948 15.7244 36.4797 16.7715 38.103 16.4397C39.7267 16.108 40.7738 14.5231 40.4421 12.8995C40.11 11.2761 38.5251 10.229 36.9018 10.5607C35.5049 10.8461 34.502 12.0751 34.5023 13.501C34.5023 13.7024 34.5228 13.9036 34.5631 14.101ZM21.0013 13.501H33.0023C33.0023 11.0155 35.0169 9.00058 37.5024 9.00058C39.9879 9.00058 42.0028 11.0155 42.0028 13.501H43.5029V9.79714C43.502 9.11014 43.1339 8.47564 42.5375 8.13443C40.0899 6.73693 37.3205 6.00141 34.5023 6.00049H21.0013V13.501ZM21.0013 4.50045H31.5605L31.4159 4.4214C28.2092 2.67873 24.6472 1.69081 21.0013 1.53302V4.50045ZM19.5013 1.50006H19.0768C16.0541 1.4967 13.0589 2.07047 10.2514 3.19085L11.561 4.50045H19.5013V1.50006ZM6.06103 14.101C6.39278 15.7244 7.97767 16.7715 9.60131 16.4397C11.2247 16.108 12.2718 14.5231 11.94 12.8995C11.6083 11.2761 10.0231 10.229 8.39976 10.5607C7.00287 10.8461 5.99999 12.0751 6.0003 13.501C6.0003 13.7024 6.02074 13.9036 6.06103 14.101ZM1.49987 6.75036H3.75008V8.25071H1.49987V11.3259C1.49804 11.8786 1.83497 12.3761 2.34892 12.579L4.50026 13.443C4.50026 13.374 4.50911 13.3057 4.51368 13.2367C4.51826 13.1677 4.51979 13.0869 4.52711 13.0118C4.53474 12.9367 4.5497 12.8616 4.5616 12.7868C4.57381 12.7118 4.58266 12.6367 4.59761 12.5686C4.61257 12.5003 4.63454 12.4246 4.65408 12.3532C4.67361 12.2821 4.68856 12.21 4.71115 12.1401C4.73343 12.0705 4.76059 12.0037 4.78592 11.9353C4.81156 11.8673 4.83475 11.7968 4.861 11.729C4.88725 11.6616 4.92265 11.6002 4.95408 11.5365C4.98552 11.4727 5.01634 11.4028 5.05144 11.3384C5.08685 11.274 5.12652 11.2191 5.1604 11.1592C5.19397 11.0991 5.23517 11.0307 5.2779 10.9694C5.32093 10.9078 5.36061 10.8592 5.40181 10.8037C5.44301 10.7481 5.4897 10.6828 5.53762 10.6251C5.58554 10.5675 5.6304 10.5223 5.67709 10.475C5.72348 10.428 5.77537 10.3642 5.82695 10.3117C5.87883 10.2592 5.9298 10.2177 5.98138 10.1713C6.03326 10.1249 6.08881 10.07 6.14588 10.0212C6.20264 9.97263 6.26063 9.93509 6.3174 9.89236C6.37447 9.84963 6.43154 9.80385 6.49136 9.76387C6.55148 9.7242 6.61893 9.6891 6.68333 9.64698C6.74803 9.60487 6.80053 9.5719 6.86126 9.53986C6.92199 9.50751 6.99768 9.47363 7.06665 9.44067C7.13563 9.40771 7.18965 9.37841 7.25344 9.35155C7.31722 9.32439 7.40359 9.29601 7.47837 9.26915C7.55344 9.24199 7.60228 9.22093 7.66606 9.20078C7.75152 9.17454 7.83911 9.15561 7.9264 9.13395C7.98347 9.12052 8.0381 9.10251 8.09578 9.09061C8.18795 9.07169 8.28256 9.06131 8.37626 9.04757C8.4318 9.04025 8.48491 9.02804 8.54045 9.02285C8.69061 9.0079 8.84046 8.99966 8.99794 8.99966C11.4825 9.0021 13.4959 11.0155 13.4984 13.5001H19.501V6.00019H11.2506C11.0516 6.00019 10.8609 5.92114 10.7205 5.78044L8.77545 3.83542C7.95905 4.22394 7.16523 4.65823 6.39766 5.13617C6.30916 5.19141 6.21027 5.22773 6.10681 5.24269L1.49987 5.90039V6.75036Z" fill="black"/>
</svg>