<svg width="30" height="31" viewBox="0 0 30 31" fill="none" xmlns="http://www.w3.org/2000/svg">
    <path fill-rule="evenodd" clip-rule="evenodd" d="M6.50016 30.1666C8.35064 30.1666 9.9249 28.984 10.5083 27.3333H22.7918C26.3126 27.3333 29.1668 24.4791 29.1668 20.9583C29.1668 17.4375 26.3126 14.5833 22.7918 14.5833H7.2085C5.25249 14.5833 3.66683 12.9976 3.66683 11.0416C3.66683 9.0856 5.25249 7.49994 7.2085 7.49994H11.58L9.74843 9.33154L11.7519 11.335L17.0036 6.08328L11.7519 0.831543L9.74843 2.83501L11.58 4.66661H7.2085C3.68768 4.66661 0.833496 7.5208 0.833496 11.0416C0.833496 14.5624 3.68768 17.4166 7.2085 17.4166H22.7918C24.7478 17.4166 26.3335 19.0023 26.3335 20.9583C26.3335 22.9143 24.7478 24.4999 22.7918 24.4999H10.5083C9.9249 22.8493 8.35064 21.6666 6.50016 21.6666C4.15295 21.6666 2.25016 23.5694 2.25016 25.9166C2.25016 28.2638 4.15295 30.1666 6.50016 30.1666ZM5.0835 25.9167C5.0835 25.1343 5.71776 24.5 6.50016 24.5C7.28257 24.5 7.91683 25.1343 7.91683 25.9167C7.91683 26.6991 7.28257 27.3333 6.50016 27.3333C5.71776 27.3333 5.0835 26.6991 5.0835 25.9167ZM23.5002 1.83312C25.8474 1.83312 27.7502 3.73591 27.7502 6.08312C27.7502 8.43033 25.8474 10.3331 23.5002 10.3331C21.153 10.3331 19.2502 8.43033 19.2502 6.08312C19.2502 3.73591 21.153 1.83312 23.5002 1.83312ZM22.0835 6.08329C22.0835 5.30088 22.7178 4.66662 23.5002 4.66662C24.2826 4.66662 24.9168 5.30088 24.9168 6.08329C24.9168 6.86569 24.2826 7.49995 23.5002 7.49995C22.7178 7.49995 22.0835 6.86569 22.0835 6.08329Z" fill="#0F2442"/>
</svg>